<?xml version="1.0" standalone="no"?>
<!DOCTYPE svg PUBLIC "-//W3C//DTD SVG 20010904//EN" "http://www.w3.org/TR/2001/REC-SVG-20010904/DTD/svg10.dtd">
<svg version="1.0" xmlns="http://www.w3.org/2000/svg" width="512.000000pt" height="512.000000pt"
        viewBox="0 0 512.000000 512.000000" preserveAspectRatio="xMidYMid meet">

        <g transform="translate(0.000000,512.000000) scale(0.100000,-0.100000)" fill="#000000" stroke="none">
                <path d="M850 5109 c-160 -31 -299 -173 -330 -339 -14 -73 -14 -4347 0 -4420
32 -170 170 -308 339 -340 34 -6 452 -10 1132 -10 l1079 0 0 114 c0 381 92
723 279 1039 36 62 61 115 61 132 0 24 -50 79 -324 354 -213 215 -331 341
-346 370 -92 184 44 398 251 395 109 -1 107 0 592 -483 l447 -446 62 63 63 62
-288 288 -287 287 0 1292 c0 1221 -1 1294 -18 1350 -46 146 -155 248 -309 288
-49 13 -218 15 -1208 14 -632 -1 -1170 -5 -1195 -10z m2416 -186 c93 -50 136
-121 142 -235 l4 -78 -1366 0 -1366 0 0 53 c0 125 63 227 163 266 51 20 75 20
1217 18 l1165 -2 41 -22z m144 -1529 l0 -1046 -80 74 c-44 41 -105 86 -134
101 -146 74 -332 64 -461 -24 -153 -105 -228 -300 -181 -474 31 -116 55 -146
365 -460 l297 -300 -53 -95 c-143 -257 -227 -539 -255 -857 l-12 -143 -997 0
c-980 0 -999 0 -1053 20 -70 27 -129 89 -150 161 -11 37 -16 94 -16 191 l0
138 1065 0 1065 0 0 85 0 85 -1065 0 -1065 0 0 1795 0 1795 1365 0 1365 0 0
-1046z" />
                <path d="M981 4260 c-49 -12 -83 -40 -108 -90 -22 -42 -23 -56 -23 -245 0
-233 8 -264 81 -312 l43 -28 215 0 c209 0 217 1 257 24 78 44 84 67 84 317 0
204 -1 221 -21 253 -28 46 -56 68 -106 80 -48 13 -371 13 -422 1z m379 -335
l0 -175 -167 2 -168 3 -3 160 c-1 87 0 165 2 172 4 10 45 13 171 13 l165 0 0
-175z" />
                <path d="M1830 4257 c-49 -16 -73 -36 -99 -77 -20 -33 -21 -48 -21 -254 0
-250 6 -273 84 -317 40 -23 48 -24 257 -24 l215 0 42 27 c71 48 77 66 80 289
4 207 -3 257 -39 303 -44 55 -67 61 -284 63 -137 2 -211 -2 -235 -10z m385
-332 l0 -170 -167 -3 -168 -2 0 175 0 175 168 -2 167 -3 0 -170z" />
                <path d="M2677 4255 c-48 -17 -85 -50 -103 -92 -20 -46 -20 -430 0 -476 16
-38 66 -84 104 -95 35 -9 409 -9 444 0 38 11 88 57 104 95 20 46 20 430 0 476
-17 42 -66 83 -114 97 -56 15 -389 12 -435 -5z m393 -330 l0 -175 -170 0 -170
0 0 175 0 175 170 0 170 0 0 -175z" />
                <path d="M935 3386 c-75 -45 -80 -63 -83 -298 -4 -237 4 -271 74 -324 l37 -29
210 -3 c241 -4 277 3 325 66 l27 35 3 231 c3 228 3 232 -20 265 -51 75 -54 76
-306 79 -225 2 -227 2 -267 -22z m425 -316 l0 -170 -170 0 -170 0 0 170 0 170
170 0 170 0 0 -170z" />
                <path d="M1805 3396 c-36 -15 -82 -67 -91 -100 -3 -12 -4 -121 -2 -242 l3
-221 27 -35 c48 -63 84 -70 325 -66 l210 3 37 29 c70 53 78 87 74 325 -3 202
-4 208 -28 244 -49 72 -70 77 -311 77 -155 -1 -222 -4 -244 -14z m415 -326 l0
-170 -170 0 -170 0 0 170 0 170 170 0 170 0 0 -170z" />
                <path d="M2670 3403 c-36 -14 -72 -47 -90 -83 -18 -35 -20 -60 -20 -245 0
-224 5 -249 56 -297 47 -44 73 -48 284 -48 211 0 237 4 284 48 51 48 56 73 56
297 0 231 -7 260 -72 307 -32 22 -40 23 -258 25 -124 1 -232 -1 -240 -4z m400
-333 l0 -170 -170 0 -170 0 0 170 0 170 170 0 170 0 0 -170z" />
                <path d="M955 2546 c-40 -17 -82 -67 -96 -114 -7 -23 -9 -110 -7 -238 3 -195
4 -202 28 -237 13 -20 42 -45 62 -57 36 -20 49 -21 262 -18 250 3 253 4 304
79 23 33 23 37 20 266 -3 263 -5 268 -88 311 -42 21 -56 22 -250 22 -148 -1
-214 -4 -235 -14z m405 -326 l0 -170 -170 0 -170 0 0 170 0 170 170 0 170 0 0
-170z" />
                <path d="M1800 2538 c-83 -43 -85 -48 -88 -311 -3 -229 -3 -233 20 -266 51
-75 54 -76 304 -79 213 -3 226 -2 262 18 20 12 49 37 62 57 24 35 25 42 28
237 4 218 -2 255 -45 307 -46 54 -71 59 -296 59 -191 0 -205 -1 -247 -22z
m420 -318 l0 -170 -170 0 -170 0 0 170 0 170 170 0 170 0 0 -170z" />
                <path d="M981 1700 c-49 -12 -83 -40 -108 -90 -22 -42 -23 -56 -23 -245 0
-233 8 -264 81 -312 l43 -28 215 0 c209 0 217 1 257 24 78 44 84 67 84 317 0
204 -1 221 -21 253 -28 46 -56 68 -106 80 -48 13 -371 13 -422 1z m379 -335
l0 -175 -167 2 -168 3 -3 160 c-1 87 0 165 2 172 4 10 45 13 171 13 l165 0 0
-175z" />
                <path d="M1830 1697 c-49 -16 -73 -36 -99 -77 -20 -33 -21 -48 -21 -254 0
-250 6 -273 84 -317 40 -23 48 -24 257 -24 l215 0 42 27 c71 48 77 66 80 289
4 207 -3 257 -39 303 -44 55 -67 61 -284 63 -137 2 -211 -2 -235 -10z m385
-332 l0 -170 -167 -3 -168 -2 0 175 0 175 168 -2 167 -3 0 -170z" />
                <path d="M1960 425 l0 -85 85 0 85 0 0 85 0 85 -85 0 -85 0 0 -85z" />
                <path d="M3775 3070 c-32 -33 -57 -61 -54 -63 69 -59 528 -483 561 -520 52
-57 109 -161 135 -247 16 -50 17 -161 20 -1147 l4 -1093 85 0 85 0 -3 1103
c-4 1031 -5 1106 -22 1167 -26 91 -85 214 -137 283 -33 45 -597 577 -611 577
-2 0 -30 -27 -63 -60z" />
        </g>
</svg>