<?xml version="1.0" encoding="iso-8859-1"?>
<!-- Generator: Adobe Illustrator 20.0.0, SVG Export Plug-In . SVG Version: 6.00 Build 0)  -->
<svg version="1.1" id="Layer_1_1_" xmlns="http://www.w3.org/2000/svg" xmlns:xlink="http://www.w3.org/1999/xlink" x="0px"
	y="0px" viewBox="0 0 64 64" style="enable-background:new 0 0 64 64;" xml:space="preserve">
	<g id="Guide">
		<g>
		</g>
		<g>
		</g>
		<g>
		</g>
		<g>
		</g>
		<g>
		</g>
		<g>
		</g>
		<g>
		</g>
		<g>
		</g>
		<g>
		</g>
		<g>
		</g>
		<g>
		</g>
		<g>
		</g>
		<g>
		</g>
		<g>
		</g>
		<g>
		</g>
		<g>
		</g>
		<g>
		</g>
		<g>
		</g>
		<g>
		</g>
		<g>
		</g>
		<g>
		</g>
		<g>
		</g>
		<g>
		</g>
		<g>
		</g>
		<g>
		</g>
		<g>
		</g>
		<g>
		</g>
		<g>
		</g>
		<g>
		</g>
		<g>
		</g>
		<g>
		</g>
		<g>
		</g>
		<g>
		</g>
		<g>
		</g>
		<g>
		</g>
		<g>
		</g>
	</g>
	<path d="M5,45h25v-2h-5.985C24.324,25.939,32.546,9,48,9h7c1.654,0,3,1.346,3,3v28c0,1.654-1.346,3-3,3H36v2h19c2.757,0,5-2.243,5-5
	v-5.197c1.297,2.158,2,4.633,2,7.197c0,7.72-6.28,14-14,14s-14-6.28-14-14c0-2.493,0.653-4.879,1.883-6.997l1.222,2.445l1.789-0.895
	l-2-4C36.725,32.214,36.379,32,36,32h-5v2h3.154C32.747,36.422,32,39.15,32,42c0,8.822,7.178,16,16,16s16-7.178,16-16
	c0-3.91-1.425-7.639-4-10.563V12c0-2.757-2.243-5-5-5H5c-2.757,0-5,2.243-5,5v28C0,42.757,2.243,45,5,45z M38.936,9
	C28.037,14.155,22.27,28.538,22.015,43h-4.004C18.242,26.433,24.203,9,37,9H38.936z M2,12c0-1.654,1.346-3,3-3h24.645
	c-7.399,4.2-13.424,15.161-13.632,34H5c-1.654,0-3-1.346-3-3V12z" />
	<path d="M7,31h6c1.654,0,3-1.346,3-3v-4c0-1.654-1.346-3-3-3H7c-1.654,0-3,1.346-3,3v4C4,29.654,5.346,31,7,31z M6,24
	c0-0.551,0.448-1,1-1h6c0.552,0,1,0.449,1,1v4c0,0.551-0.448,1-1,1H7c-0.552,0-1-0.449-1-1V24z" />
	<rect x="42" y="30" width="2" height="11" />
	<rect x="46" y="30" width="2" height="11" />
	<rect x="50" y="30" width="2" height="11" />
	<rect x="54" y="30" width="2" height="11" />
</svg>