<?xml version="1.0" ?>
<svg id="Layer_1" style="enable-background:new 0 0 91 91;" version="1.1" viewBox="0 0 91 91"
    xml:space="preserve" xmlns="http://www.w3.org/2000/svg" xmlns:xlink="http://www.w3.org/1999/xlink">
    <g>
        <path
            d="M74.5,54.6H43.6v-5.7h22.9c0.9,0,1.7-0.8,1.7-1.7V36.4c0-0.9-0.8-1.7-1.7-1.7h-7.6v-5.1c1.9-2.3,4.8-6,4.8-8.4   c0-3.6-2.9-6.5-6.5-6.5c-3.6,0-6.5,2.9-6.5,6.5c0,2.4,2.9,6.2,4.8,8.4v6.8c0,0.9,0.8,1.7,1.7,1.7h7.6v7.5H41.9   c-0.9,0-1.7,0.8-1.7,1.7v9.1c0,0.9,0.8,1.7,1.7,1.7h30.9v8H26.4v-4.3c2.8-3.2,8.2-9.8,8.2-13.8c0-5.4-4.4-9.9-9.9-9.9   c-5.4,0-9.9,4.4-9.9,9.9c0,4,5.4,10.6,8.2,13.8v6c0,0.9,0.8,1.7,1.7,1.7h49.7c0.9,0,1.7-0.8,1.7-1.7V56.3   C76.1,55.3,75.4,54.6,74.5,54.6z M57.2,19.1c1.2,0,2.1,1,2.1,2.1c0,1.2-1,2.1-2.1,2.1c-1.2,0-2.2-1-2.2-2.1   C55,20.1,56,19.1,57.2,19.1z M21.4,47.6c0-1.9,1.5-3.4,3.4-3.4c1.9,0,3.4,1.5,3.4,3.4c0,1.9-1.5,3.4-3.4,3.4   C22.9,50.9,21.4,49.4,21.4,47.6z" />
    </g>
</svg>