<svg width="184" height="56" viewBox="0 0 184 56" fill="none" xmlns="http://www.w3.org/2000/svg">
<mask id="path-1-inside-1" fill="black">
<path fill-rule="evenodd" clip-rule="evenodd" d="M55.3154 15.8472C55.4161 17.1618 55.0003 18.464 54.1564 19.4771C53.7523 19.9797 53.2395 20.384 52.6564 20.6597C52.0734 20.9353 51.4354 21.0751 50.7905 21.0685C50.7494 20.4363 50.8333 19.8022 51.0373 19.2024C51.2414 18.6026 51.5617 18.0489 51.9799 17.573C52.8352 16.5988 54.0261 15.9826 55.3154 15.8472ZM57.6672 25.4158C57.2388 26.1707 57.0082 27.0217 56.997 27.8897C56.9981 28.866 57.2865 29.8204 57.8263 30.634C58.3662 31.4475 59.1335 32.0841 60.0327 32.4644C59.6792 33.6129 59.1463 34.6982 58.4537 35.6803C57.5237 37.0716 56.5485 38.4308 55.0007 38.4559C54.2646 38.4729 53.7677 38.2612 53.25 38.0407C52.7099 37.8106 52.1471 37.5709 51.2665 37.5709C50.3325 37.5709 49.7445 37.8183 49.1774 38.057C48.6874 38.2632 48.2129 38.4629 47.5443 38.4906C46.0703 38.5452 44.9438 37.0057 43.9799 35.6275C42.0534 32.8129 40.5533 27.6955 42.5644 24.2135C43.0287 23.3792 43.7011 22.6794 44.5163 22.1822C45.3314 21.6851 46.2615 21.4076 47.2158 21.3768C48.0518 21.3596 48.8539 21.6818 49.5572 21.9643C50.0951 22.1803 50.5751 22.3731 50.9682 22.3731C51.3138 22.3731 51.7804 22.1879 52.3242 21.9721C53.1809 21.6321 54.2291 21.2161 55.2972 21.3282C56.1158 21.3538 56.9172 21.57 57.6377 21.9595C58.3581 22.349 58.9779 22.9011 59.4476 23.572C58.7081 24.0266 58.0957 24.6609 57.6672 25.4158ZM74.3021 35.1397H69.5687L68.432 38.4961H66.4271L70.9105 26.0781H72.9935L77.4769 38.4961H75.4378L74.3021 35.1397ZM70.0589 33.5908H73.8109L71.9613 28.1436H71.9095L70.0589 33.5908ZM83.3812 38.591C85.6537 38.591 87.1595 36.7834 87.1595 33.9699C87.1595 31.1643 85.6449 29.3479 83.347 29.3479C82.7667 29.3291 82.1921 29.4681 81.6845 29.7499C81.1769 30.0318 80.7551 30.446 80.4642 30.9485H80.43V29.4426H78.6312V41.4914H80.4896V37.007H80.5326C80.8107 37.5119 81.2255 37.9283 81.7293 38.2084C82.2331 38.4885 82.8056 38.6211 83.3812 38.591ZM82.8568 30.9319C84.3021 30.9319 85.2494 32.1369 85.2494 33.9699H85.2493C85.2493 35.8195 84.3021 37.0158 82.8568 37.0158C81.4369 37.0158 80.4818 35.7942 80.4818 33.9699C80.4818 32.1623 81.4369 30.9319 82.8568 30.9319ZM97.1249 33.9699C97.1249 36.7834 95.6185 38.591 93.3461 38.591C92.7704 38.6211 92.1979 38.4885 91.6941 38.2084C91.1903 37.9283 90.7756 37.5119 90.4974 37.007H90.4544V41.4914H88.596V29.4426H90.3949V30.9485H90.429C90.72 30.446 91.1417 30.0318 91.6493 29.7499C92.157 29.4681 92.7315 29.3291 93.3118 29.3479C95.6097 29.3479 97.1249 31.1643 97.1249 33.9699ZM95.2142 33.9699C95.2142 32.1369 94.2669 30.9319 92.8216 30.9319C91.4017 30.9319 90.4466 32.1623 90.4466 33.9699C90.4466 35.7942 91.4017 37.0158 92.8216 37.0158C94.2669 37.0158 95.2142 35.8195 95.2142 33.9699ZM106.679 37.0762C105.044 37.0762 103.848 36.2676 103.71 35.0362L101.807 35.0361C101.928 37.2822 103.787 38.7031 106.541 38.7031C109.484 38.7031 111.334 37.248 111.334 34.9248C111.334 33.1084 110.276 32.0849 107.728 31.4824L106.36 31.1465C104.76 30.751 104.105 30.2344 104.105 29.3565C104.105 28.2549 105.13 27.4981 106.627 27.4981C108.124 27.4981 109.148 28.2461 109.261 29.4854H111.137C111.076 27.3428 109.277 25.8711 106.652 25.8711C104.002 25.8711 102.135 27.3428 102.135 29.4854C102.135 31.2158 103.193 32.2822 105.474 32.833L107.083 33.2207C108.692 33.6162 109.372 34.1934 109.372 35.1572C109.372 36.2676 108.245 37.0762 106.679 37.0762ZM115.347 27.2998V29.4424H117.068V30.9141H115.347V35.9053C115.347 36.6807 115.691 37.042 116.448 37.042C116.652 37.0384 116.857 37.0241 117.059 36.999V38.4619C116.719 38.5255 116.373 38.5543 116.027 38.5478C114.194 38.5478 113.479 37.8593 113.479 36.1035V30.9141H112.163V29.4424H113.479V27.2998H115.347ZM122.358 29.3311C119.742 29.3311 118.064 31.1211 118.064 33.9697C118.064 36.8262 119.725 38.6084 122.358 38.6084C124.992 38.6084 126.653 36.8262 126.653 33.9697C126.653 31.1211 124.983 29.3311 122.358 29.3311ZM122.358 30.8623C123.864 30.8623 124.76 32.0156 124.76 33.9697C124.76 35.9316 123.864 37.0762 122.358 37.0762C120.852 37.0762 119.957 35.9316 119.957 33.9697C119.957 32.0244 120.852 30.8623 122.358 30.8623ZM128.185 29.4425H129.958V30.9835H130.001C130.121 30.5022 130.403 30.0769 130.799 29.779C131.196 29.4811 131.683 29.3288 132.179 29.3478C132.393 29.347 132.606 29.3703 132.815 29.4171V31.1554C132.545 31.0728 132.263 31.0348 131.98 31.0431C131.71 31.0321 131.441 31.0797 131.191 31.1826C130.941 31.2855 130.717 31.4412 130.533 31.6391C130.349 31.837 130.21 32.0724 130.126 32.3291C130.041 32.5857 130.013 32.8576 130.044 33.1261V38.4962H128.185L128.185 29.4425ZM137.485 38.6084C139.533 38.6084 141.134 37.4805 141.384 35.8369L139.619 35.8369C139.454 36.246 139.161 36.5909 138.785 36.8203C138.408 37.0498 137.967 37.1515 137.528 37.1103C137.194 37.1227 136.861 37.0637 136.551 36.9374C136.241 36.8111 135.962 36.6203 135.732 36.3778C135.501 36.1352 135.325 35.8464 135.215 35.5306C135.105 35.2148 135.063 34.8791 135.093 34.5459V34.4336H141.487V33.7969C141.487 31.0518 139.912 29.3311 137.407 29.3311C134.86 29.3311 133.217 31.1729 133.217 34.0127C133.217 36.8437 134.851 38.6084 137.485 38.6084ZM139.628 33.1348H135.101C135.101 32.8321 135.16 32.5323 135.275 32.2527C135.391 31.973 135.561 31.7191 135.775 31.5054C135.99 31.2918 136.244 31.1227 136.524 31.008C136.804 30.8933 137.104 30.8351 137.407 30.8369C137.707 30.8305 138.005 30.8861 138.283 31.0003C138.56 31.1145 138.811 31.2849 139.02 31.5006C139.228 31.7164 139.39 31.9729 139.494 32.2541C139.599 32.5354 139.644 32.8352 139.628 33.1348Z"/>
</mask>
<path fill-rule="evenodd" clip-rule="evenodd" d="M55.3154 15.8472C55.4161 17.1618 55.0003 18.464 54.1564 19.4771C53.7523 19.9797 53.2395 20.384 52.6564 20.6597C52.0734 20.9353 51.4354 21.0751 50.7905 21.0685C50.7494 20.4363 50.8333 19.8022 51.0373 19.2024C51.2414 18.6026 51.5617 18.0489 51.9799 17.573C52.8352 16.5988 54.0261 15.9826 55.3154 15.8472ZM57.6672 25.4158C57.2388 26.1707 57.0082 27.0217 56.997 27.8897C56.9981 28.866 57.2865 29.8204 57.8263 30.634C58.3662 31.4475 59.1335 32.0841 60.0327 32.4644C59.6792 33.6129 59.1463 34.6982 58.4537 35.6803C57.5237 37.0716 56.5485 38.4308 55.0007 38.4559C54.2646 38.4729 53.7677 38.2612 53.25 38.0407C52.7099 37.8106 52.1471 37.5709 51.2665 37.5709C50.3325 37.5709 49.7445 37.8183 49.1774 38.057C48.6874 38.2632 48.2129 38.4629 47.5443 38.4906C46.0703 38.5452 44.9438 37.0057 43.9799 35.6275C42.0534 32.8129 40.5533 27.6955 42.5644 24.2135C43.0287 23.3792 43.7011 22.6794 44.5163 22.1822C45.3314 21.6851 46.2615 21.4076 47.2158 21.3768C48.0518 21.3596 48.8539 21.6818 49.5572 21.9643C50.0951 22.1803 50.5751 22.3731 50.9682 22.3731C51.3138 22.3731 51.7804 22.1879 52.3242 21.9721C53.1809 21.6321 54.2291 21.2161 55.2972 21.3282C56.1158 21.3538 56.9172 21.57 57.6377 21.9595C58.3581 22.349 58.9779 22.9011 59.4476 23.572C58.7081 24.0266 58.0957 24.6609 57.6672 25.4158ZM74.3021 35.1397H69.5687L68.432 38.4961H66.4271L70.9105 26.0781H72.9935L77.4769 38.4961H75.4378L74.3021 35.1397ZM70.0589 33.5908H73.8109L71.9613 28.1436H71.9095L70.0589 33.5908ZM83.3812 38.591C85.6537 38.591 87.1595 36.7834 87.1595 33.9699C87.1595 31.1643 85.6449 29.3479 83.347 29.3479C82.7667 29.3291 82.1921 29.4681 81.6845 29.7499C81.1769 30.0318 80.7551 30.446 80.4642 30.9485H80.43V29.4426H78.6312V41.4914H80.4896V37.007H80.5326C80.8107 37.5119 81.2255 37.9283 81.7293 38.2084C82.2331 38.4885 82.8056 38.6211 83.3812 38.591ZM82.8568 30.9319C84.3021 30.9319 85.2494 32.1369 85.2494 33.9699H85.2493C85.2493 35.8195 84.3021 37.0158 82.8568 37.0158C81.4369 37.0158 80.4818 35.7942 80.4818 33.9699C80.4818 32.1623 81.4369 30.9319 82.8568 30.9319ZM97.1249 33.9699C97.1249 36.7834 95.6185 38.591 93.3461 38.591C92.7704 38.6211 92.1979 38.4885 91.6941 38.2084C91.1903 37.9283 90.7756 37.5119 90.4974 37.007H90.4544V41.4914H88.596V29.4426H90.3949V30.9485H90.429C90.72 30.446 91.1417 30.0318 91.6493 29.7499C92.157 29.4681 92.7315 29.3291 93.3118 29.3479C95.6097 29.3479 97.1249 31.1643 97.1249 33.9699ZM95.2142 33.9699C95.2142 32.1369 94.2669 30.9319 92.8216 30.9319C91.4017 30.9319 90.4466 32.1623 90.4466 33.9699C90.4466 35.7942 91.4017 37.0158 92.8216 37.0158C94.2669 37.0158 95.2142 35.8195 95.2142 33.9699ZM106.679 37.0762C105.044 37.0762 103.848 36.2676 103.71 35.0362L101.807 35.0361C101.928 37.2822 103.787 38.7031 106.541 38.7031C109.484 38.7031 111.334 37.248 111.334 34.9248C111.334 33.1084 110.276 32.0849 107.728 31.4824L106.36 31.1465C104.76 30.751 104.105 30.2344 104.105 29.3565C104.105 28.2549 105.13 27.4981 106.627 27.4981C108.124 27.4981 109.148 28.2461 109.261 29.4854H111.137C111.076 27.3428 109.277 25.8711 106.652 25.8711C104.002 25.8711 102.135 27.3428 102.135 29.4854C102.135 31.2158 103.193 32.2822 105.474 32.833L107.083 33.2207C108.692 33.6162 109.372 34.1934 109.372 35.1572C109.372 36.2676 108.245 37.0762 106.679 37.0762ZM115.347 27.2998V29.4424H117.068V30.9141H115.347V35.9053C115.347 36.6807 115.691 37.042 116.448 37.042C116.652 37.0384 116.857 37.0241 117.059 36.999V38.4619C116.719 38.5255 116.373 38.5543 116.027 38.5478C114.194 38.5478 113.479 37.8593 113.479 36.1035V30.9141H112.163V29.4424H113.479V27.2998H115.347ZM122.358 29.3311C119.742 29.3311 118.064 31.1211 118.064 33.9697C118.064 36.8262 119.725 38.6084 122.358 38.6084C124.992 38.6084 126.653 36.8262 126.653 33.9697C126.653 31.1211 124.983 29.3311 122.358 29.3311ZM122.358 30.8623C123.864 30.8623 124.76 32.0156 124.76 33.9697C124.76 35.9316 123.864 37.0762 122.358 37.0762C120.852 37.0762 119.957 35.9316 119.957 33.9697C119.957 32.0244 120.852 30.8623 122.358 30.8623ZM128.185 29.4425H129.958V30.9835H130.001C130.121 30.5022 130.403 30.0769 130.799 29.779C131.196 29.4811 131.683 29.3288 132.179 29.3478C132.393 29.347 132.606 29.3703 132.815 29.4171V31.1554C132.545 31.0728 132.263 31.0348 131.98 31.0431C131.71 31.0321 131.441 31.0797 131.191 31.1826C130.941 31.2855 130.717 31.4412 130.533 31.6391C130.349 31.837 130.21 32.0724 130.126 32.3291C130.041 32.5857 130.013 32.8576 130.044 33.1261V38.4962H128.185L128.185 29.4425ZM137.485 38.6084C139.533 38.6084 141.134 37.4805 141.384 35.8369L139.619 35.8369C139.454 36.246 139.161 36.5909 138.785 36.8203C138.408 37.0498 137.967 37.1515 137.528 37.1103C137.194 37.1227 136.861 37.0637 136.551 36.9374C136.241 36.8111 135.962 36.6203 135.732 36.3778C135.501 36.1352 135.325 35.8464 135.215 35.5306C135.105 35.2148 135.063 34.8791 135.093 34.5459V34.4336H141.487V33.7969C141.487 31.0518 139.912 29.3311 137.407 29.3311C134.86 29.3311 133.217 31.1729 133.217 34.0127C133.217 36.8437 134.851 38.6084 137.485 38.6084ZM139.628 33.1348H135.101C135.101 32.8321 135.16 32.5323 135.275 32.2527C135.391 31.973 135.561 31.7191 135.775 31.5054C135.99 31.2918 136.244 31.1227 136.524 31.008C136.804 30.8933 137.104 30.8351 137.407 30.8369C137.707 30.8305 138.005 30.8861 138.283 31.0003C138.56 31.1145 138.811 31.2849 139.02 31.5006C139.228 31.7164 139.39 31.9729 139.494 32.2541C139.599 32.5354 139.644 32.8352 139.628 33.1348Z" fill="black"/>
<path d="M54.1564 19.4771L53.3881 18.837L53.3825 18.8437L53.3771 18.8505L54.1564 19.4771ZM55.3154 15.8472L56.3125 15.7708L56.234 14.7452L55.211 14.8526L55.3154 15.8472ZM50.7905 21.0685L49.7927 21.1334L49.8529 22.0589L50.7802 22.0684L50.7905 21.0685ZM51.9799 17.573L52.7311 18.2331L52.7314 18.2327L51.9799 17.573ZM56.997 27.8897L55.997 27.8768L55.997 27.8908L56.997 27.8897ZM57.6672 25.4158L56.7975 24.9222L56.7975 24.9222L57.6672 25.4158ZM60.0327 32.4644L60.9885 32.7586L61.2542 31.8953L60.4223 31.5434L60.0327 32.4644ZM58.4537 35.6803L57.6365 35.104L57.6293 35.1142L57.6224 35.1245L58.4537 35.6803ZM55.0007 38.4559L54.9845 37.456L54.9777 37.4562L55.0007 38.4559ZM53.25 38.0407L53.6419 37.1207L53.6419 37.1207L53.25 38.0407ZM49.1774 38.057L49.5653 38.9787H49.5653L49.1774 38.057ZM47.5443 38.4906L47.5813 39.4899L47.5857 39.4898L47.5443 38.4906ZM43.9799 35.6275L43.1546 36.1923L43.1604 36.2006L43.9799 35.6275ZM42.5644 24.2135L43.4303 24.7136L43.4343 24.7067L43.4382 24.6997L42.5644 24.2135ZM47.2158 21.3768L47.1952 20.3769L47.1835 20.3773L47.2158 21.3768ZM49.5572 21.9643L49.93 21.0363V21.0363L49.5572 21.9643ZM52.3242 21.9721L51.9553 21.0426L51.9553 21.0426L52.3242 21.9721ZM55.2972 21.3282L55.1928 22.3228L55.2293 22.3266L55.266 22.3277L55.2972 21.3282ZM57.6377 21.9595L58.1132 21.0798V21.0798L57.6377 21.9595ZM59.4476 23.572L59.9713 24.4239L60.8756 23.8679L60.2668 22.9984L59.4476 23.572ZM69.5687 35.1397V34.1397H68.8516L68.6215 34.8189L69.5687 35.1397ZM74.3021 35.1397L75.2494 34.8192L75.0194 34.1397H74.3021V35.1397ZM68.432 38.4961V39.4961H69.1491L69.3791 38.8169L68.432 38.4961ZM66.4271 38.4961L65.4865 38.1565L65.0029 39.4961H66.4271V38.4961ZM70.9105 26.0781V25.0781H70.2084L69.9699 25.7385L70.9105 26.0781ZM72.9935 26.0781L73.9341 25.7385L73.6956 25.0781H72.9935V26.0781ZM77.4769 38.4961V39.4961H78.9011L78.4175 38.1565L77.4769 38.4961ZM75.4378 38.4961L74.4906 38.8166L74.7205 39.4961H75.4378V38.4961ZM73.8109 33.5908V34.5908H75.2066L74.7579 33.2693L73.8109 33.5908ZM70.0589 33.5908L69.1121 33.2692L68.6631 34.5908H70.0589V33.5908ZM71.9613 28.1436L72.9082 27.8221L72.6779 27.1436H71.9613V28.1436ZM71.9095 28.1436V27.1436H71.1931L70.9627 27.8219L71.9095 28.1436ZM83.3812 38.591V37.591H83.3551L83.329 37.5924L83.3812 38.591ZM83.347 29.3479L83.3148 30.3473L83.3309 30.3479H83.347L83.347 29.3479ZM80.4642 30.9485V31.9485H81.0407L81.3296 31.4496L80.4642 30.9485ZM80.43 30.9485H79.43V31.9485H80.43V30.9485ZM80.43 29.4426H81.43V28.4426H80.43V29.4426ZM78.6312 29.4426V28.4426H77.6312V29.4426H78.6312ZM78.6312 41.4914H77.6312V42.4914H78.6312V41.4914ZM80.4896 41.4914V42.4914H81.4896V41.4914H80.4896ZM80.4896 37.007V36.007H79.4896V37.007H80.4896ZM80.5326 37.007L81.4084 36.5245L81.1234 36.007H80.5326V37.007ZM85.2494 33.9699V34.9699H86.2494V33.9699H85.2494ZM85.2493 33.9699V32.9699H84.2493V33.9699H85.2493ZM93.3461 38.591V37.591H93.3199L93.2938 37.5924L93.3461 38.591ZM90.4974 37.007L91.3733 36.5245L91.0882 36.007H90.4974V37.007ZM90.4544 37.007V36.007H89.4544V37.007H90.4544ZM90.4544 41.4914V42.4914H91.4544V41.4914H90.4544ZM88.596 41.4914H87.596V42.4914H88.596V41.4914ZM88.596 29.4426V28.4426H87.596V29.4426H88.596ZM90.3949 29.4426H91.3949V28.4426H90.3949V29.4426ZM90.3949 30.9485H89.3949V31.9485H90.3949V30.9485ZM90.429 30.9485V31.9485H91.0055L91.2944 31.4496L90.429 30.9485ZM93.3118 29.3479L93.2796 30.3473L93.2957 30.3479H93.3118L93.3118 29.3479ZM103.71 35.0362L104.704 34.9251L104.604 34.0362L103.71 34.0362L103.71 35.0362ZM101.807 35.0361L101.807 34.0361L100.753 34.036L100.809 35.0895L101.807 35.0361ZM107.728 31.4824L107.49 32.4536L107.498 32.4556L107.728 31.4824ZM106.36 31.1465L106.12 32.1173L106.122 32.1176L106.36 31.1465ZM109.261 29.4854L108.265 29.5756L108.347 30.4854H109.261V29.4854ZM111.137 29.4854V30.4854H112.165L112.136 29.4571L111.137 29.4854ZM105.474 32.833L105.239 33.8051L105.239 33.8052L105.474 32.833ZM107.083 33.2207L107.322 32.2496L107.317 32.2485L107.083 33.2207ZM115.347 29.4424H114.347V30.4424H115.347V29.4424ZM115.347 27.2998H116.347V26.2998H115.347V27.2998ZM117.068 29.4424H118.068V28.4424H117.068V29.4424ZM117.068 30.9141V31.9141H118.068V30.9141H117.068ZM115.347 30.9141V29.9141H114.347V30.9141H115.347ZM116.448 37.042V38.042H116.457L116.466 38.0418L116.448 37.042ZM117.059 36.999H118.059V35.8677L116.937 36.0065L117.059 36.999ZM117.059 38.4619L117.243 39.4449L118.059 39.2923V38.4619H117.059ZM116.027 38.5478L116.046 37.548L116.036 37.5478H116.027V38.5478ZM113.479 30.9141H114.479V29.9141H113.479V30.9141ZM112.163 30.9141H111.163V31.9141H112.163V30.9141ZM112.163 29.4424V28.4424H111.163V29.4424H112.163ZM113.479 29.4424V30.4424H114.479V29.4424H113.479ZM113.479 27.2998V26.2998H112.479V27.2998H113.479ZM124.76 33.9697L125.76 33.9697V33.9697H124.76ZM129.958 29.4425H130.958V28.4425H129.958V29.4425ZM128.185 29.4425V28.4425H127.185V29.4425L128.185 29.4425ZM129.958 30.9835H128.958V31.9835H129.958V30.9835ZM130.001 30.9835V31.9835H130.782L130.971 31.2253L130.001 30.9835ZM132.179 29.3478L132.14 30.347L132.161 30.3478L132.182 30.3478L132.179 29.3478ZM132.815 29.4171H133.815V28.6164L133.034 28.4413L132.815 29.4171ZM132.815 31.1554L132.523 32.1117L133.815 32.5066V31.1554H132.815ZM131.98 31.0431L131.94 32.0423L131.975 32.0437L132.009 32.0427L131.98 31.0431ZM130.533 31.6391L131.265 32.32H131.265L130.533 31.6391ZM130.044 33.1261H131.044V33.0693L131.037 33.0129L130.044 33.1261ZM130.044 38.4962V39.4962H131.044V38.4962H130.044ZM128.185 38.4962L127.185 38.4962V39.4962H128.185V38.4962ZM141.384 35.8369L142.372 35.9873L142.547 34.8369L141.384 34.8369L141.384 35.8369ZM139.619 35.8369L139.619 34.8369L138.944 34.8369L138.692 35.463L139.619 35.8369ZM137.528 37.1103L137.621 36.1147L137.557 36.1086L137.491 36.111L137.528 37.1103ZM135.093 34.5459L136.089 34.6341L136.093 34.5901V34.5459H135.093ZM135.093 34.4336V33.4336H134.093V34.4336H135.093ZM141.487 34.4336V35.4336H142.487V34.4336H141.487ZM135.101 33.1348L134.101 33.1373L134.104 34.1348H135.101V33.1348ZM139.628 33.1348V34.1348H140.574L140.626 33.1904L139.628 33.1348ZM137.407 30.8369L137.401 31.8369L137.415 31.837L137.429 31.8367L137.407 30.8369ZM54.9248 20.1171C55.9352 18.9041 56.4331 17.345 56.3125 15.7708L54.3184 15.9235C54.3992 16.9787 54.0654 18.0239 53.3881 18.837L54.9248 20.1171ZM53.0839 21.5637C53.8037 21.2234 54.4369 20.7242 54.9358 20.1037L53.3771 18.8505C53.0678 19.2352 52.6752 19.5447 52.229 19.7556L53.0839 21.5637ZM50.7802 22.0684C51.5764 22.0766 52.3641 21.9041 53.0839 21.5637L52.229 19.7556C51.7827 19.9666 51.2944 20.0736 50.8008 20.0685L50.7802 22.0684ZM50.0906 18.8803C49.8442 19.6044 49.743 20.3701 49.7927 21.1334L51.7884 21.0035C51.7558 20.5025 51.8223 19.9999 51.984 19.5245L50.0906 18.8803ZM51.2287 16.9129C50.7238 17.4876 50.337 18.1561 50.0906 18.8803L51.984 19.5245C52.1458 19.0491 52.3996 18.6103 52.7311 18.2331L51.2287 16.9129ZM55.211 14.8526C53.6716 15.0143 52.2496 15.75 51.2284 16.9132L52.7314 18.2327C53.4208 17.4475 54.3807 16.9508 55.4199 16.8417L55.211 14.8526ZM57.9969 27.9026C58.006 27.2033 58.1917 26.5176 58.5369 25.9094L56.7975 24.9222C56.2858 25.8238 56.0105 26.8402 55.9971 27.8768L57.9969 27.9026ZM58.6596 30.081C58.2283 29.4311 57.9979 28.6686 57.997 27.8886L55.997 27.8908C55.9983 29.0634 56.3447 30.2098 56.9931 31.1869L58.6596 30.081ZM60.4223 31.5434C59.7039 31.2395 59.0908 30.731 58.6596 30.081L56.9931 31.1869C57.6415 32.164 58.5632 32.9286 59.6432 33.3854L60.4223 31.5434ZM59.271 36.2566C60.0243 35.1884 60.6039 34.0078 60.9885 32.7586L59.077 32.1702C58.7545 33.2179 58.2683 34.2081 57.6365 35.104L59.271 36.2566ZM55.017 39.4558C56.1142 39.438 56.9709 38.9374 57.6414 38.3113C58.2914 37.7043 58.8264 36.9221 59.2851 36.236L57.6224 35.1245C57.151 35.8297 56.7334 36.4228 56.2764 36.8495C55.8398 37.2571 55.4351 37.4487 54.9845 37.456L55.017 39.4558ZM52.8581 38.9607C53.3843 39.1848 54.0546 39.478 55.0238 39.4556L54.9777 37.4562C54.4747 37.4678 54.1512 37.3376 53.6419 37.1207L52.8581 38.9607ZM51.2665 38.5709C51.9332 38.5709 52.3386 38.7394 52.8581 38.9607L53.6419 37.1207C53.0812 36.8818 52.361 36.5709 51.2665 36.5709V38.5709ZM49.5653 38.9787C50.1096 38.7496 50.5428 38.5709 51.2665 38.5709V36.5709C50.1222 36.5709 49.3794 36.887 48.7895 37.1353L49.5653 38.9787ZM47.5857 39.4898C48.4515 39.4539 49.0731 39.1858 49.5653 38.9787L48.7895 37.1353C48.3016 37.3406 47.9744 37.4719 47.5028 37.4915L47.5857 39.4898ZM43.1604 36.2006C43.6351 36.8793 44.2131 37.6935 44.8864 38.3255C45.5612 38.9589 46.4604 39.5314 47.5813 39.4899L47.5073 37.4913C47.1541 37.5044 46.753 37.3345 46.2551 36.8672C45.7558 36.3985 45.2886 35.7538 44.7994 35.0544L43.1604 36.2006ZM41.6984 23.7133C40.5336 25.7301 40.4227 28.1444 40.8107 30.3444C41.2001 32.552 42.1115 34.6682 43.1547 36.1923L44.8051 35.0626C43.9218 33.7722 43.1199 31.9224 42.7803 29.9971C42.4394 28.0643 42.5841 26.1788 43.4303 24.7136L41.6984 23.7133ZM43.9956 21.3285C43.033 21.9155 42.2388 22.742 41.6906 23.7272L43.4382 24.6997C43.8185 24.0164 44.3693 23.4432 45.037 23.036L43.9956 21.3285ZM47.1835 20.3773C46.0565 20.4137 44.9582 20.7414 43.9956 21.3285L45.037 23.036C45.7046 22.6288 46.4664 22.4015 47.248 22.3762L47.1835 20.3773ZM49.93 21.0363C49.2606 20.7675 48.269 20.3549 47.1952 20.377L47.2363 22.3766C47.8345 22.3643 48.4473 22.5961 49.1845 22.8922L49.93 21.0363ZM50.9682 21.3731C50.9224 21.3731 50.818 21.3597 50.6202 21.2968C50.4259 21.235 50.2077 21.1479 49.93 21.0363L49.1845 22.8922C49.4447 22.9967 49.7354 23.1141 50.0138 23.2027C50.2888 23.2902 50.6209 23.3731 50.9682 23.3731V21.3731ZM51.9553 21.0426C51.6748 21.154 51.4554 21.2406 51.2657 21.3016C51.1739 21.3311 51.1027 21.3501 51.048 21.3613C51.0213 21.3668 51.0013 21.3699 50.9872 21.3715C50.9731 21.3732 50.9671 21.3731 50.9682 21.3731V23.3731C51.299 23.3731 51.621 23.2882 51.8781 23.2055C52.144 23.12 52.4299 23.0061 52.6931 22.9016L51.9553 21.0426ZM55.4016 20.3337C54.0485 20.1916 52.77 20.7193 51.9553 21.0426L52.6931 22.9016C53.5918 22.5449 54.4097 22.2406 55.1928 22.3228L55.4016 20.3337ZM58.1132 21.0798C57.256 20.6164 56.3025 20.3592 55.3285 20.3287L55.266 22.3277C55.9292 22.3485 56.5784 22.5236 57.1621 22.8391L58.1132 21.0798ZM60.2668 22.9984C59.7078 22.2002 58.9705 21.5432 58.1132 21.0798L57.1621 22.8391C57.7458 23.1547 58.2479 23.602 58.6285 24.1455L60.2668 22.9984ZM58.5369 25.9094C58.8821 25.3012 59.3756 24.7901 59.9713 24.4239L58.9239 22.7201C58.0407 23.263 57.3093 24.0206 56.7975 24.9222L58.5369 25.9094ZM69.5687 36.1397H74.3021V34.1397H69.5687V36.1397ZM69.3791 38.8169L70.5159 35.4604L68.6215 34.8189L67.4848 38.1754L69.3791 38.8169ZM66.4271 39.4961H68.432V37.4961H66.4271V39.4961ZM69.9699 25.7385L65.4865 38.1565L67.3677 38.8357L71.8511 26.4177L69.9699 25.7385ZM72.9935 25.0781H70.9105V27.0781H72.9935V25.0781ZM78.4175 38.1565L73.9341 25.7385L72.0529 26.4177L76.5363 38.8357L78.4175 38.1565ZM75.4378 39.4961H77.4769V37.4961H75.4378V39.4961ZM73.3549 35.4602L74.4906 38.8166L76.3851 38.1756L75.2494 34.8192L73.3549 35.4602ZM73.8109 32.5908H70.0589V34.5908H73.8109V32.5908ZM71.0144 28.4651L72.864 33.9124L74.7579 33.2693L72.9082 27.8221L71.0144 28.4651ZM71.9095 29.1436H71.9613V27.1436H71.9095V29.1436ZM71.0058 33.9125L72.8564 28.4652L70.9627 27.8219L69.1121 33.2692L71.0058 33.9125ZM86.1595 33.9699C86.1595 35.2064 85.8287 36.1182 85.35 36.7006C84.8865 37.2645 84.2296 37.591 83.3812 37.591V39.591C84.8053 39.591 86.0375 39.0138 86.8951 37.9705C87.7374 36.9458 88.1595 35.547 88.1595 33.9699H86.1595ZM83.347 30.3479C84.2104 30.3479 84.8764 30.6785 85.3445 31.2443C85.8275 31.8281 86.1595 32.7393 86.1595 33.9699H88.1595C88.1595 32.395 87.7342 30.9951 86.8854 29.9693C86.0218 28.9255 84.7815 28.3479 83.347 28.3479L83.347 30.3479ZM82.1699 30.6242C82.5195 30.4301 82.9151 30.3345 83.3148 30.3473L83.3792 28.3484C82.6182 28.3238 81.8648 28.5061 81.1991 28.8757L82.1699 30.6242ZM81.3296 31.4496C81.5299 31.1035 81.8204 30.8183 82.1699 30.6242L81.1991 28.8757C80.5334 29.2453 79.9804 29.7884 79.5988 30.4473L81.3296 31.4496ZM80.43 31.9485H80.4642V29.9485H80.43V31.9485ZM79.43 29.4426V30.9485H81.43V29.4426H79.43ZM78.6312 30.4426H80.43V28.4426H78.6312V30.4426ZM79.6312 41.4914V29.4426H77.6312V41.4914H79.6312ZM80.4896 40.4914H78.6312V42.4914H80.4896V40.4914ZM79.4896 37.007V41.4914H81.4896V37.007H79.4896ZM80.5326 36.007H80.4896V38.007H80.5326V36.007ZM82.2152 37.3344C81.8756 37.1456 81.596 36.8649 81.4084 36.5245L79.6567 37.4896C80.0255 38.159 80.5754 38.711 81.2433 39.0824L82.2152 37.3344ZM83.329 37.5924C82.9409 37.6127 82.5549 37.5233 82.2152 37.3344L81.2433 39.0824C81.9112 39.4538 82.6702 39.6296 83.4334 39.5897L83.329 37.5924ZM86.2494 33.9699C86.2494 32.8912 85.9712 31.895 85.3809 31.145C84.7733 30.3732 83.8853 29.9319 82.8568 29.9319V31.9319C83.2736 31.9319 83.5819 32.0931 83.8093 32.382C84.0539 32.6928 84.2494 33.2157 84.2494 33.9699H86.2494ZM85.2493 34.9699H85.2494V32.9699H85.2493V34.9699ZM82.8568 38.0158C83.883 38.0158 84.7719 37.5785 85.3808 36.8051C85.972 36.0541 86.2493 35.0551 86.2493 33.9699H84.2493C84.2493 34.7343 84.053 35.2584 83.8093 35.5679C83.5833 35.855 83.2759 36.0158 82.8568 36.0158V38.0158ZM79.4818 33.9699C79.4818 35.0471 79.7633 36.0422 80.3484 36.7922C80.9494 37.5623 81.8311 38.0158 82.8568 38.0158V36.0158C82.4625 36.0158 82.1567 35.8585 81.9252 35.5618C81.6779 35.2448 81.4818 34.717 81.4818 33.9699H79.4818ZM82.8568 29.9319C81.8289 29.9319 80.948 30.3894 80.3484 31.1579C79.7641 31.9068 79.4818 32.8993 79.4818 33.9699H81.4818C81.4818 33.233 81.677 32.7064 81.9253 32.3881C82.1582 32.0896 82.4648 31.9319 82.8568 31.9319V29.9319ZM93.3461 39.591C94.7701 39.591 96.0024 39.0138 96.8601 37.9706C97.7026 36.9458 98.1249 35.547 98.1249 33.9699H96.1249C96.1249 35.2063 95.794 36.1181 95.3152 36.7005C94.8515 37.2644 94.1945 37.591 93.3461 37.591V39.591ZM91.2081 39.0824C91.8761 39.4538 92.6351 39.6296 93.3983 39.5897L93.2938 37.5924C92.9057 37.6127 92.5197 37.5233 92.1801 37.3344L91.2081 39.0824ZM89.6216 37.4896C89.9903 38.159 90.5402 38.711 91.2081 39.0824L92.1801 37.3344C91.8404 37.1456 91.5608 36.8649 91.3733 36.5245L89.6216 37.4896ZM90.4544 38.007H90.4974V36.007H90.4544V38.007ZM91.4544 41.4914V37.007H89.4544V41.4914H91.4544ZM88.596 42.4914H90.4544V40.4914H88.596V42.4914ZM87.596 29.4426V41.4914H89.596V29.4426H87.596ZM90.3949 28.4426H88.596V30.4426H90.3949V28.4426ZM91.3949 30.9485V29.4426H89.3949V30.9485H91.3949ZM90.429 29.9485H90.3949V31.9485H90.429V29.9485ZM91.1639 28.8757C90.4982 29.2453 89.9452 29.7884 89.5636 30.4473L91.2944 31.4496C91.4948 31.1035 91.7852 30.8183 92.1348 30.6242L91.1639 28.8757ZM93.3441 28.3484C92.5831 28.3238 91.8296 28.5061 91.1639 28.8757L92.1348 30.6242C92.4843 30.4301 92.88 30.3345 93.2796 30.3473L93.3441 28.3484ZM98.1249 33.9699C98.1249 32.3949 97.6994 30.995 96.8505 29.9692C95.9867 28.9255 94.7463 28.3479 93.3118 28.3479L93.3118 30.3479C94.1752 30.3479 94.8414 30.6785 95.3097 31.2443C95.7928 31.8281 96.1249 32.7393 96.1249 33.9699H98.1249ZM92.8216 31.9319C93.2385 31.9319 93.5467 32.0931 93.7741 32.382C94.0188 32.6928 94.2142 33.2157 94.2142 33.9699H96.2142C96.2142 32.8912 95.936 31.895 95.3457 31.145C94.7382 30.3732 93.8501 29.9319 92.8216 29.9319V31.9319ZM91.4466 33.9699C91.4466 33.233 91.6418 32.7064 91.8901 32.3881C92.1231 32.0896 92.4296 31.9319 92.8216 31.9319V29.9319C91.7937 29.9319 90.9128 30.3894 90.3132 31.1579C89.729 31.9068 89.4466 32.8993 89.4466 33.9699H91.4466ZM92.8216 36.0158C92.4274 36.0158 92.1216 35.8585 91.89 35.5618C91.6427 35.2448 91.4466 34.717 91.4466 33.9699H89.4466C89.4466 35.0471 89.7281 36.0422 90.3133 36.7922C90.9143 37.5623 91.796 38.0158 92.8216 38.0158V36.0158ZM94.2142 33.9699C94.2142 34.7343 94.0179 35.2584 93.7742 35.5679C93.5482 35.855 93.2407 36.0158 92.8216 36.0158V38.0158C93.8478 38.0158 94.7367 37.5785 95.3456 36.8051C95.9369 36.0541 96.2142 35.0552 96.2142 33.9699H94.2142ZM102.716 35.1473C102.934 37.0984 104.783 38.0762 106.679 38.0762V36.0762C105.305 36.0762 104.761 35.4369 104.704 34.9251L102.716 35.1473ZM101.807 36.0361L103.71 36.0362L103.71 34.0362L101.807 34.0361L101.807 36.0361ZM106.541 37.7031C105.328 37.7031 104.406 37.39 103.797 36.9202C103.207 36.4645 102.851 35.8189 102.806 34.9827L100.809 35.0895C100.884 36.4994 101.518 37.6872 102.576 38.5035C103.615 39.3058 105 39.7031 106.541 39.7031V37.7031ZM110.334 34.9248C110.334 35.794 110.001 36.4436 109.422 36.8996C108.817 37.3762 107.86 37.7031 106.541 37.7031V39.7031C108.165 39.7031 109.604 39.3025 110.66 38.4707C111.742 37.6184 112.334 36.3788 112.334 34.9248H110.334ZM107.498 32.4556C108.704 32.7406 109.401 33.0934 109.795 33.4706C110.145 33.8058 110.334 34.2351 110.334 34.9248H112.334C112.334 33.798 111.994 32.8075 111.178 32.0262C110.406 31.2869 109.301 30.8267 107.959 30.5092L107.498 32.4556ZM106.122 32.1176L107.49 32.4535L107.967 30.5112L106.599 30.1753L106.122 32.1176ZM103.105 29.3565C103.105 30.1027 103.41 30.7392 104.011 31.216C104.547 31.6408 105.282 31.9101 106.12 32.1173L106.6 30.1756C105.838 29.9873 105.445 29.8006 105.254 29.6488C105.128 29.5489 105.105 29.4882 105.105 29.3565H103.105ZM106.627 26.4981C105.721 26.4981 104.866 26.7261 104.211 27.2094C103.535 27.7079 103.105 28.4606 103.105 29.3565H105.105C105.105 29.1507 105.188 28.9743 105.398 28.819C105.629 28.6485 106.036 28.4981 106.627 28.4981V26.4981ZM110.257 29.3951C110.175 28.4991 109.751 27.7415 109.062 27.2261C108.391 26.7244 107.534 26.4981 106.627 26.4981V28.4981C107.217 28.4981 107.621 28.6457 107.864 28.8279C108.089 28.9963 108.234 29.2323 108.265 29.5756L110.257 29.3951ZM111.137 28.4854H109.261V30.4854H111.137V28.4854ZM106.652 26.8711C107.783 26.8711 108.653 27.1877 109.227 27.652C109.787 28.1057 110.115 28.7366 110.137 29.5136L112.136 29.4571C112.098 28.0916 111.496 26.9153 110.485 26.0975C109.488 25.2903 108.146 24.8711 106.652 24.8711V26.8711ZM103.135 29.4854C103.135 28.7315 103.452 28.1111 104.023 27.6569C104.609 27.1899 105.505 26.8711 106.652 26.8711V24.8711C105.149 24.8711 103.786 25.2882 102.776 26.0926C101.75 26.9099 101.135 28.0967 101.135 29.4854H103.135ZM105.708 31.861C104.66 31.6077 104.025 31.265 103.657 30.8958C103.32 30.557 103.135 30.1244 103.135 29.4854H101.135C101.135 30.5768 101.479 31.5426 102.241 32.3073C102.972 33.0417 104.007 33.5075 105.239 33.8051L105.708 31.861ZM107.317 32.2485L105.708 31.8608L105.239 33.8052L106.849 34.1929L107.317 32.2485ZM110.372 35.1572C110.372 34.3933 110.082 33.7245 109.477 33.2127C108.929 32.7487 108.177 32.4599 107.322 32.2496L106.844 34.1918C107.598 34.3771 107.99 34.5745 108.185 34.739C108.322 34.8556 108.372 34.9573 108.372 35.1572H110.372ZM106.679 38.0762C107.624 38.0762 108.512 37.8334 109.194 37.347C109.889 36.8507 110.372 36.0874 110.372 35.1572H108.372C108.372 35.3375 108.292 35.5336 108.032 35.7192C107.758 35.9147 107.3 36.0762 106.679 36.0762V38.0762ZM116.347 29.4424V27.2998H114.347V29.4424H116.347ZM117.068 28.4424H115.347V30.4424H117.068V28.4424ZM118.068 30.9141V29.4424H116.068V30.9141H118.068ZM115.347 31.9141H117.068V29.9141H115.347V31.9141ZM116.347 35.9053V30.9141H114.347V35.9053H116.347ZM116.448 36.042C116.334 36.042 116.283 36.0279 116.271 36.0242C116.267 36.0226 116.297 36.0331 116.333 36.0698C116.367 36.1056 116.373 36.1317 116.368 36.1149C116.361 36.0925 116.347 36.0291 116.347 35.9053H114.347C114.347 36.4183 114.458 37.0073 114.894 37.459C115.337 37.918 115.927 38.042 116.448 38.042V36.042ZM116.937 36.0065C116.769 36.0273 116.6 36.0392 116.431 36.0421L116.466 38.0418C116.705 38.0377 116.944 38.0208 117.182 37.9914L116.937 36.0065ZM118.059 38.4619V36.999H116.059V38.4619H118.059ZM116.009 39.5476C116.423 39.5553 116.836 39.5209 117.243 39.4449L116.876 37.4789C116.602 37.53 116.324 37.5532 116.046 37.548L116.009 39.5476ZM112.479 36.1035C112.479 37.0833 112.673 38.0331 113.373 38.7054C114.063 39.3677 115.026 39.5478 116.027 39.5478V37.5478C115.196 37.5478 114.884 37.3837 114.758 37.2628C114.643 37.1519 114.479 36.8796 114.479 36.1035H112.479ZM112.479 30.9141V36.1035H114.479V30.9141H112.479ZM112.163 31.9141H113.479V29.9141H112.163V31.9141ZM111.163 29.4424V30.9141H113.163V29.4424H111.163ZM113.479 28.4424H112.163V30.4424H113.479V28.4424ZM112.479 27.2998V29.4424H114.479V27.2998H112.479ZM115.347 26.2998H113.479V28.2998H115.347V26.2998ZM119.064 33.9697C119.064 32.7395 119.424 31.8426 119.963 31.2627C120.494 30.6906 121.288 30.3311 122.358 30.3311V28.3311C120.813 28.3311 119.459 28.8665 118.498 29.9016C117.543 30.9289 117.064 32.3513 117.064 33.9697H119.064ZM122.358 37.6084C121.277 37.6084 120.485 37.2491 119.957 36.6802C119.422 36.103 119.064 35.207 119.064 33.9697H117.064C117.064 35.5889 117.537 37.0122 118.491 38.0402C119.452 39.0766 120.807 39.6084 122.358 39.6084V37.6084ZM125.653 33.9697C125.653 35.207 125.296 36.103 124.76 36.6802C124.233 37.249 123.44 37.6084 122.358 37.6084V39.6084C123.91 39.6084 125.265 39.0767 126.227 38.0403C127.18 37.0123 127.653 35.5889 127.653 33.9697H125.653ZM122.358 30.3311C123.434 30.3311 124.227 30.6911 124.757 31.2623C125.295 31.8416 125.653 32.7383 125.653 33.9697H127.653C127.653 32.3525 127.177 30.9298 126.223 29.902C125.262 28.866 123.908 28.3311 122.358 28.3311V30.3311ZM125.76 33.9697C125.76 32.8559 125.506 31.836 124.915 31.0713C124.297 30.2735 123.394 29.8623 122.358 29.8623V31.8623C122.828 31.8623 123.126 32.0277 123.333 32.2952C123.565 32.5957 123.76 33.1295 123.76 33.9697H125.76ZM122.358 38.0762C123.391 38.0762 124.295 37.6691 124.914 36.8715C125.507 36.1072 125.76 35.0867 125.76 33.9697L123.76 33.9697C123.76 34.8147 123.565 35.3474 123.333 35.6458C123.128 35.911 122.831 36.0762 122.358 36.0762V38.0762ZM118.957 33.9697C118.957 35.0867 119.21 36.1072 119.803 36.8715C120.421 37.6691 121.325 38.0762 122.358 38.0762V36.0762C121.886 36.0762 121.589 35.911 121.383 35.6458C121.152 35.3474 120.957 34.8147 120.957 33.9697H118.957ZM122.358 29.8623C121.32 29.8623 120.417 30.2776 119.801 31.0753C119.211 31.8403 118.957 32.8593 118.957 33.9697H120.957C120.957 33.1348 121.151 32.6001 121.384 32.2977C121.593 32.028 121.891 31.8623 122.358 31.8623V29.8623ZM129.958 28.4425H128.185V30.4425H129.958V28.4425ZM130.958 30.9835V29.4425H128.958V30.9835H130.958ZM130.001 29.9835H129.958V31.9835H130.001V29.9835ZM130.199 28.9794C129.619 29.4153 129.206 30.0376 129.031 30.7417L130.971 31.2253C131.036 30.9669 131.187 30.7385 131.4 30.5786L130.199 28.9794ZM132.217 28.3485C131.492 28.3208 130.779 28.5436 130.199 28.9794L131.4 30.5786C131.613 30.4186 131.874 30.3369 132.14 30.347L132.217 28.3485ZM133.034 28.4413C132.752 28.3781 132.464 28.3468 132.175 28.3478L132.182 30.3478C132.322 30.3473 132.461 30.3624 132.597 30.3929L133.034 28.4413ZM133.815 31.1554V29.4171H131.815V31.1554H133.815ZM132.009 32.0427C132.183 32.0376 132.357 32.0609 132.523 32.1117L133.108 30.199C132.733 30.0846 132.343 30.0321 131.951 30.0435L132.009 32.0427ZM131.572 32.1073C131.689 32.0593 131.814 32.0372 131.94 32.0423L132.021 30.0439C131.607 30.0271 131.194 30.1001 130.811 30.258L131.572 32.1073ZM131.265 32.32C131.351 32.2278 131.456 32.1552 131.572 32.1073L130.811 30.258C130.427 30.4158 130.083 30.6547 129.801 30.9582L131.265 32.32ZM131.075 32.6415C131.115 32.5219 131.18 32.4122 131.265 32.32L129.801 30.9582C129.518 31.2618 129.305 31.6228 129.176 32.0166L131.075 32.6415ZM131.037 33.0129C131.023 32.8878 131.036 32.7611 131.075 32.6415L129.176 32.0166C129.046 32.4103 129.003 32.8274 129.05 33.2392L131.037 33.0129ZM131.044 38.4962V33.1261H129.044V38.4962H131.044ZM128.185 39.4962H130.044V37.4962H128.185V39.4962ZM127.185 29.4425L127.185 38.4962L129.185 38.4962L129.185 29.4425L127.185 29.4425ZM140.395 35.6865C140.243 36.6887 139.211 37.6084 137.485 37.6084V39.6084C139.855 39.6084 142.025 38.2723 142.372 35.9873L140.395 35.6865ZM139.619 36.8369L141.384 36.8369L141.384 34.8369L139.619 34.8369L139.619 36.8369ZM139.305 37.6744C139.866 37.333 140.301 36.8197 140.546 36.2108L138.692 35.463C138.607 35.6723 138.457 35.8489 138.265 35.9663L139.305 37.6744ZM137.435 38.106C138.088 38.1672 138.744 38.0159 139.305 37.6744L138.265 35.9663C138.072 36.0837 137.846 36.1358 137.621 36.1147L137.435 38.106ZM136.174 37.8634C136.615 38.0432 137.089 38.1272 137.565 38.1097L137.491 36.111C137.299 36.1181 137.107 36.0842 136.929 36.0114L136.174 37.8634ZM135.007 37.0664C135.335 37.4118 135.732 37.6835 136.174 37.8634L136.929 36.0114C136.75 35.9387 136.589 35.8288 136.457 35.6891L135.007 37.0664ZM134.271 35.86C134.428 36.3098 134.679 36.721 135.007 37.0664L136.457 35.6891C136.324 35.5494 136.223 35.3831 136.159 35.2012L134.271 35.86ZM134.097 34.4577C134.055 34.9322 134.114 35.4102 134.271 35.86L136.159 35.2012C136.096 35.0193 136.072 34.826 136.089 34.6341L134.097 34.4577ZM134.093 34.4336V34.5459H136.093V34.4336H134.093ZM141.487 33.4336H135.093V35.4336H141.487V33.4336ZM140.487 33.7969V34.4336H142.487V33.7969H140.487ZM137.407 30.3311C138.42 30.3311 139.157 30.6716 139.648 31.2093C140.149 31.7569 140.487 32.6117 140.487 33.7969H142.487C142.487 32.2369 142.038 30.8588 141.125 29.8598C140.202 28.8508 138.899 28.3311 137.407 28.3311V30.3311ZM134.217 34.0127C134.217 32.7817 134.571 31.8672 135.102 31.2736C135.623 30.6913 136.389 30.3311 137.407 30.3311V28.3311C135.879 28.3311 134.549 28.8917 133.611 29.9403C132.684 30.9775 132.217 32.4038 132.217 34.0127H134.217ZM137.485 37.6084C136.401 37.6084 135.616 37.2517 135.096 36.6919C134.569 36.1234 134.217 35.2391 134.217 34.0127H132.217C132.217 35.6174 132.682 37.0309 133.63 38.0525C134.587 39.0827 135.936 39.6084 137.485 39.6084V37.6084ZM135.101 34.1348H139.628V32.1348H135.101V34.1348ZM134.351 31.8704C134.185 32.2721 134.1 32.7027 134.101 33.1373L136.101 33.1322C136.101 32.9616 136.134 32.7926 136.2 32.635L134.351 31.8704ZM135.07 30.7971C134.762 31.104 134.518 31.4688 134.351 31.8704L136.2 32.635C136.265 32.4773 136.361 32.3342 136.481 32.2137L135.07 30.7971ZM136.145 30.0827C135.743 30.2475 135.377 30.4903 135.07 30.7971L136.481 32.2137C136.602 32.0933 136.746 31.998 136.904 31.9333L136.145 30.0827ZM137.413 29.8369C136.978 29.8343 136.548 29.9179 136.145 30.0827L136.904 31.9333C137.061 31.8687 137.231 31.8359 137.401 31.8369L137.413 29.8369ZM138.663 30.0756C138.258 29.9089 137.823 29.8277 137.386 29.8371L137.429 31.8367C137.591 31.8332 137.752 31.8633 137.902 31.925L138.663 30.0756ZM139.739 30.8057C139.434 30.4908 139.068 30.2423 138.663 30.0756L137.902 31.925C138.052 31.9868 138.188 32.0789 138.3 32.1956L139.739 30.8057ZM140.432 31.9053C140.279 31.4949 140.043 31.1206 139.739 30.8057L138.3 32.1956C138.413 32.3122 138.501 32.451 138.557 32.603L140.432 31.9053ZM140.626 33.1904C140.651 32.7532 140.584 32.3157 140.432 31.9053L138.557 32.603C138.614 32.7551 138.638 32.9172 138.629 33.0792L140.626 33.1904Z" fill="black" mask="url(#path-1-inside-1)"/>
<mask id="path-3-inside-2" fill="black">
<path fill-rule="evenodd" clip-rule="evenodd" d="M91.9828 16.4365H91.0941V22.6973H91.9828V16.4365ZM69.8265 16.7304C70.2161 16.7024 70.6071 16.7613 70.9712 16.9027C71.3353 17.0442 71.6635 17.2647 71.9321 17.5483C72.2007 17.8319 72.403 18.1716 72.5244 18.5429C72.6458 18.9141 72.6833 19.3077 72.6342 19.6952C72.6342 21.6015 71.6039 22.6972 69.8265 22.6972H67.6713V16.7304H69.8265ZM68.598 21.8534H69.723C70.0014 21.87 70.28 21.8244 70.5386 21.7198C70.7971 21.6152 71.0291 21.4542 71.2176 21.2487C71.4061 21.0431 71.5463 20.7981 71.6282 20.5315C71.7101 20.2648 71.7314 19.9833 71.6908 19.7074C71.7285 19.4326 71.7049 19.1528 71.6218 18.8881C71.5387 18.6235 71.3981 18.3805 71.21 18.1765C71.022 17.9726 70.7911 17.8128 70.534 17.7086C70.2769 17.6043 70 17.5582 69.723 17.5736H68.598V21.8534ZM73.681 20.4438C73.6527 20.1479 73.6866 19.8493 73.7804 19.5672C73.8742 19.2852 74.026 19.0258 74.2259 18.8059C74.4259 18.5859 74.6696 18.4101 74.9414 18.2898C75.2133 18.1696 75.5073 18.1074 75.8046 18.1074C76.1018 18.1074 76.3958 18.1696 76.6677 18.2898C76.9395 18.4101 77.1832 18.5859 77.3832 18.8059C77.5831 19.0258 77.7349 19.2852 77.8287 19.5672C77.9226 19.8493 77.9564 20.1479 77.9281 20.4438C77.9569 20.74 77.9235 21.039 77.8299 21.3215C77.7363 21.6041 77.5846 21.8639 77.3846 22.0843C77.1847 22.3047 76.9408 22.4808 76.6686 22.6014C76.3965 22.7219 76.1022 22.7842 75.8046 22.7842C75.5069 22.7842 75.2126 22.7219 74.9405 22.6014C74.6684 22.4808 74.4245 22.3047 74.2245 22.0843C74.0245 21.8639 73.8728 21.6041 73.7792 21.3215C73.6856 21.039 73.6522 20.74 73.681 20.4438ZM77.014 20.4438C77.014 19.4677 76.5755 18.8969 75.806 18.8969C75.0336 18.8969 74.599 19.4677 74.599 20.4438C74.599 21.4277 75.0336 21.9941 75.806 21.9941C76.5756 21.9941 77.014 21.4238 77.014 20.4438H77.014ZM82.6517 22.6973H83.5736L84.8099 18.1943H83.9213L83.1185 21.6303H83.0482L82.1224 18.1943H81.2699L80.3441 21.6303H80.2777L79.4711 18.1943H78.5697L79.8109 22.6973H80.724L81.6508 19.3809H81.7211L82.6517 22.6973ZM85.8539 18.1944H86.7093V18.9097H86.7757C86.8884 18.6528 87.0784 18.4374 87.3193 18.2936C87.5601 18.1498 87.8399 18.0847 88.1195 18.1075C88.3386 18.091 88.5586 18.124 88.7632 18.2041C88.9678 18.2842 89.1517 18.4093 89.3014 18.5702C89.4511 18.731 89.5627 18.9235 89.6279 19.1333C89.6931 19.3431 89.7102 19.5649 89.6781 19.7823V22.6973H88.7894V20.0054C88.7894 19.2818 88.475 18.9219 87.8177 18.9219C87.669 18.915 87.5205 18.9403 87.3824 18.9961C87.2444 19.052 87.12 19.137 87.0179 19.2454C86.9158 19.3538 86.8383 19.4829 86.7908 19.6241C86.7432 19.7652 86.7268 19.9149 86.7425 20.063V22.6973H85.8539L85.8539 18.1944ZM93.2181 20.4439C93.1898 20.1479 93.2237 19.8494 93.3176 19.5673C93.4114 19.2852 93.5632 19.0259 93.7632 18.8059C93.9632 18.5859 94.2069 18.4101 94.4788 18.2898C94.7506 18.1696 95.0446 18.1074 95.3419 18.1074C95.6392 18.1074 95.9332 18.1696 96.2051 18.2898C96.4769 18.4101 96.7207 18.5859 96.9206 18.8059C97.1206 19.0259 97.2724 19.2852 97.3662 19.5673C97.4601 19.8494 97.494 20.1479 97.4657 20.4439C97.4945 20.7401 97.461 21.0391 97.3674 21.3216C97.2738 21.6042 97.1221 21.864 96.9221 22.0844C96.7221 22.3048 96.4782 22.4809 96.206 22.6014C95.9339 22.722 95.6395 22.7842 95.3419 22.7842C95.0443 22.7842 94.7499 22.722 94.4778 22.6014C94.2057 22.4809 93.9618 22.3048 93.7618 22.0844C93.5617 21.864 93.41 21.6042 93.3164 21.3216C93.2228 21.0391 93.1893 20.7401 93.2181 20.4439ZM96.5511 20.4439C96.5511 19.4678 96.1127 18.897 95.3431 18.897C94.5707 18.897 94.1361 19.4678 94.1361 20.4439C94.1361 21.4278 94.5707 21.9942 95.3431 21.9942C96.1127 21.9942 96.5511 21.4239 96.5511 20.4439ZM100.076 20.0796C99.0048 20.146 98.4012 20.6133 98.4012 21.4238C98.402 21.6139 98.4426 21.8017 98.5203 21.9751C98.5981 22.1485 98.7113 22.3037 98.8527 22.4307C98.9942 22.5576 99.1606 22.6536 99.3414 22.7122C99.5221 22.7709 99.7132 22.7911 99.9022 22.7715C100.17 22.7838 100.436 22.7249 100.674 22.6007C100.912 22.4765 101.112 22.2914 101.255 22.0645H101.325V22.6973H102.181V19.6206C102.181 18.6694 101.544 18.1074 100.415 18.1074C99.3934 18.1074 98.6659 18.6035 98.5751 19.377H99.4354C99.5341 19.0586 99.8778 18.8765 100.374 18.8765C100.981 18.8765 101.296 19.145 101.296 19.6206V20.0093L100.076 20.0796ZM101.296 20.6626V21.0391C101.286 21.1811 101.248 21.3198 101.184 21.4468C101.119 21.5738 101.03 21.6866 100.921 21.7784C100.813 21.8703 100.687 21.9393 100.551 21.9814C100.415 22.0235 100.271 22.0378 100.13 22.0234C99.6464 22.0234 99.2948 21.7876 99.2948 21.3823C99.2948 20.9853 99.576 20.7744 100.196 20.7329L101.296 20.6626ZM103.348 20.4439C103.348 19.021 104.08 18.1196 105.218 18.1196C105.499 18.1067 105.778 18.1741 106.023 18.314C106.267 18.4539 106.467 18.6605 106.598 18.9096H106.665V16.4365H107.554V22.6973H106.702V21.9858H106.632C106.49 22.2333 106.283 22.4374 106.034 22.5758C105.785 22.7143 105.503 22.782 105.218 22.7715C104.072 22.7715 103.348 21.8701 103.348 20.4439ZM104.266 20.4439C104.266 21.3989 104.717 21.9737 105.47 21.9737C106.219 21.9737 106.682 21.3907 106.682 20.4478C106.682 19.5093 106.214 18.918 105.47 18.918C104.722 18.918 104.266 19.4966 104.266 20.4439H104.266ZM111.33 19.5672C111.236 19.8493 111.202 20.1479 111.23 20.4438C111.201 20.74 111.235 21.039 111.329 21.3215C111.422 21.6041 111.574 21.8639 111.774 22.0843C111.974 22.3047 112.218 22.4808 112.49 22.6014C112.762 22.7219 113.056 22.7842 113.354 22.7842C113.651 22.7842 113.946 22.7219 114.218 22.6014C114.49 22.4808 114.734 22.3047 114.934 22.0843C115.134 21.8639 115.286 21.6041 115.379 21.3215C115.473 21.039 115.506 20.74 115.477 20.4438C115.506 20.1479 115.472 19.8493 115.378 19.5672C115.284 19.2852 115.132 19.0258 114.932 18.8059C114.733 18.5859 114.489 18.4101 114.217 18.2898C113.945 18.1696 113.651 18.1074 113.354 18.1074C113.057 18.1074 112.763 18.1696 112.491 18.2898C112.219 18.4101 111.975 18.5859 111.775 18.8059C111.575 19.0258 111.424 19.2852 111.33 19.5672ZM113.355 18.8969C114.125 18.8969 114.563 19.4677 114.563 20.4438C114.563 21.4238 114.125 21.9941 113.355 21.9941C112.583 21.9941 112.148 21.4277 112.148 20.4438C112.148 19.4677 112.583 18.8969 113.355 18.8969ZM116.67 18.1944H117.525V18.9097H117.592C117.704 18.6528 117.894 18.4374 118.135 18.2936C118.376 18.1498 118.656 18.0847 118.935 18.1075C119.155 18.091 119.375 18.124 119.579 18.2041C119.784 18.2842 119.968 18.4093 120.117 18.5702C120.267 18.731 120.379 18.9235 120.444 19.1333C120.509 19.3431 120.526 19.5649 120.494 19.7823V22.6973H119.605V20.0054C119.605 19.2818 119.291 18.9219 118.634 18.9219C118.485 18.915 118.336 18.9403 118.198 18.9961C118.06 19.052 117.936 19.137 117.834 19.2454C117.732 19.3538 117.654 19.4829 117.607 19.6241C117.559 19.7652 117.543 19.9149 117.558 20.063V22.6973H116.67V18.1944ZM125.516 18.2148V17.0732H124.626V18.2148H123.911V18.9633H124.626V21.5063C124.626 22.3745 125.019 22.7222 126.008 22.7222C126.17 22.7205 126.332 22.7053 126.491 22.6768V21.9365C126.379 21.9498 126.265 21.9567 126.152 21.957C125.71 21.957 125.516 21.7505 125.516 21.2788V18.9634H126.491V18.2148H125.516ZM127.705 16.4365H128.586V18.918H128.656C128.774 18.6587 128.969 18.4421 129.215 18.2977C129.461 18.1534 129.745 18.0883 130.029 18.1113C130.247 18.0995 130.465 18.1359 130.667 18.2179C130.87 18.2999 131.051 18.4256 131.199 18.586C131.347 18.7463 131.458 18.9373 131.524 19.1455C131.59 19.3536 131.609 19.5737 131.58 19.79V22.6973H130.69V20.0093C130.69 19.29 130.355 18.9258 129.727 18.9258C129.575 18.9132 129.421 18.9342 129.277 18.9873C129.134 19.0404 129.003 19.1242 128.895 19.2329C128.787 19.3417 128.704 19.4727 128.652 19.6168C128.6 19.761 128.58 19.9147 128.594 20.0674V22.6973H127.705L127.705 16.4365ZM136.023 22.4872C136.379 22.249 136.641 21.8931 136.762 21.4815L135.906 21.4815C135.802 21.6685 135.644 21.8202 135.454 21.9174C135.263 22.0146 135.047 22.0529 134.835 22.0274C134.669 22.0292 134.505 21.9964 134.352 21.931C134.2 21.8656 134.063 21.7691 133.95 21.6476C133.837 21.5262 133.751 21.3825 133.697 21.2257C133.642 21.069 133.622 20.9026 133.636 20.7374V20.6876H136.815V20.3775C136.815 18.9635 136.059 18.1075 134.807 18.1075C134.509 18.105 134.214 18.1664 133.943 18.2876C133.671 18.4088 133.428 18.587 133.232 18.81C133.035 19.0331 132.888 19.2959 132.802 19.5805C132.715 19.8652 132.691 20.1652 132.73 20.46C132.69 20.754 132.714 21.0533 132.8 21.3371C132.887 21.6209 133.034 21.8825 133.232 22.1036C133.43 22.3248 133.674 22.5002 133.946 22.6177C134.219 22.7353 134.514 22.7921 134.81 22.7842C135.237 22.8305 135.666 22.7253 136.023 22.4872ZM135.91 20.0303H133.636C133.634 19.8766 133.662 19.7241 133.72 19.5817C133.778 19.4393 133.864 19.3099 133.973 19.2012C134.081 19.0925 134.211 19.0067 134.353 18.9487C134.495 18.8908 134.648 18.8619 134.802 18.8638C134.953 18.8604 135.104 18.8886 135.244 18.9468C135.384 19.005 135.51 19.0918 135.614 19.2016C135.718 19.3115 135.799 19.442 135.85 19.5847C135.901 19.7274 135.921 19.8792 135.91 20.0303Z"/>
</mask>
<path fill-rule="evenodd" clip-rule="evenodd" d="M91.9828 16.4365H91.0941V22.6973H91.9828V16.4365ZM69.8265 16.7304C70.2161 16.7024 70.6071 16.7613 70.9712 16.9027C71.3353 17.0442 71.6635 17.2647 71.9321 17.5483C72.2007 17.8319 72.403 18.1716 72.5244 18.5429C72.6458 18.9141 72.6833 19.3077 72.6342 19.6952C72.6342 21.6015 71.6039 22.6972 69.8265 22.6972H67.6713V16.7304H69.8265ZM68.598 21.8534H69.723C70.0014 21.87 70.28 21.8244 70.5386 21.7198C70.7971 21.6152 71.0291 21.4542 71.2176 21.2487C71.4061 21.0431 71.5463 20.7981 71.6282 20.5315C71.7101 20.2648 71.7314 19.9833 71.6908 19.7074C71.7285 19.4326 71.7049 19.1528 71.6218 18.8881C71.5387 18.6235 71.3981 18.3805 71.21 18.1765C71.022 17.9726 70.7911 17.8128 70.534 17.7086C70.2769 17.6043 70 17.5582 69.723 17.5736H68.598V21.8534ZM73.681 20.4438C73.6527 20.1479 73.6866 19.8493 73.7804 19.5672C73.8742 19.2852 74.026 19.0258 74.2259 18.8059C74.4259 18.5859 74.6696 18.4101 74.9414 18.2898C75.2133 18.1696 75.5073 18.1074 75.8046 18.1074C76.1018 18.1074 76.3958 18.1696 76.6677 18.2898C76.9395 18.4101 77.1832 18.5859 77.3832 18.8059C77.5831 19.0258 77.7349 19.2852 77.8287 19.5672C77.9226 19.8493 77.9564 20.1479 77.9281 20.4438C77.9569 20.74 77.9235 21.039 77.8299 21.3215C77.7363 21.6041 77.5846 21.8639 77.3846 22.0843C77.1847 22.3047 76.9408 22.4808 76.6686 22.6014C76.3965 22.7219 76.1022 22.7842 75.8046 22.7842C75.5069 22.7842 75.2126 22.7219 74.9405 22.6014C74.6684 22.4808 74.4245 22.3047 74.2245 22.0843C74.0245 21.8639 73.8728 21.6041 73.7792 21.3215C73.6856 21.039 73.6522 20.74 73.681 20.4438ZM77.014 20.4438C77.014 19.4677 76.5755 18.8969 75.806 18.8969C75.0336 18.8969 74.599 19.4677 74.599 20.4438C74.599 21.4277 75.0336 21.9941 75.806 21.9941C76.5756 21.9941 77.014 21.4238 77.014 20.4438H77.014ZM82.6517 22.6973H83.5736L84.8099 18.1943H83.9213L83.1185 21.6303H83.0482L82.1224 18.1943H81.2699L80.3441 21.6303H80.2777L79.4711 18.1943H78.5697L79.8109 22.6973H80.724L81.6508 19.3809H81.7211L82.6517 22.6973ZM85.8539 18.1944H86.7093V18.9097H86.7757C86.8884 18.6528 87.0784 18.4374 87.3193 18.2936C87.5601 18.1498 87.8399 18.0847 88.1195 18.1075C88.3386 18.091 88.5586 18.124 88.7632 18.2041C88.9678 18.2842 89.1517 18.4093 89.3014 18.5702C89.4511 18.731 89.5627 18.9235 89.6279 19.1333C89.6931 19.3431 89.7102 19.5649 89.6781 19.7823V22.6973H88.7894V20.0054C88.7894 19.2818 88.475 18.9219 87.8177 18.9219C87.669 18.915 87.5205 18.9403 87.3824 18.9961C87.2444 19.052 87.12 19.137 87.0179 19.2454C86.9158 19.3538 86.8383 19.4829 86.7908 19.6241C86.7432 19.7652 86.7268 19.9149 86.7425 20.063V22.6973H85.8539L85.8539 18.1944ZM93.2181 20.4439C93.1898 20.1479 93.2237 19.8494 93.3176 19.5673C93.4114 19.2852 93.5632 19.0259 93.7632 18.8059C93.9632 18.5859 94.2069 18.4101 94.4788 18.2898C94.7506 18.1696 95.0446 18.1074 95.3419 18.1074C95.6392 18.1074 95.9332 18.1696 96.2051 18.2898C96.4769 18.4101 96.7207 18.5859 96.9206 18.8059C97.1206 19.0259 97.2724 19.2852 97.3662 19.5673C97.4601 19.8494 97.494 20.1479 97.4657 20.4439C97.4945 20.7401 97.461 21.0391 97.3674 21.3216C97.2738 21.6042 97.1221 21.864 96.9221 22.0844C96.7221 22.3048 96.4782 22.4809 96.206 22.6014C95.9339 22.722 95.6395 22.7842 95.3419 22.7842C95.0443 22.7842 94.7499 22.722 94.4778 22.6014C94.2057 22.4809 93.9618 22.3048 93.7618 22.0844C93.5617 21.864 93.41 21.6042 93.3164 21.3216C93.2228 21.0391 93.1893 20.7401 93.2181 20.4439ZM96.5511 20.4439C96.5511 19.4678 96.1127 18.897 95.3431 18.897C94.5707 18.897 94.1361 19.4678 94.1361 20.4439C94.1361 21.4278 94.5707 21.9942 95.3431 21.9942C96.1127 21.9942 96.5511 21.4239 96.5511 20.4439ZM100.076 20.0796C99.0048 20.146 98.4012 20.6133 98.4012 21.4238C98.402 21.6139 98.4426 21.8017 98.5203 21.9751C98.5981 22.1485 98.7113 22.3037 98.8527 22.4307C98.9942 22.5576 99.1606 22.6536 99.3414 22.7122C99.5221 22.7709 99.7132 22.7911 99.9022 22.7715C100.17 22.7838 100.436 22.7249 100.674 22.6007C100.912 22.4765 101.112 22.2914 101.255 22.0645H101.325V22.6973H102.181V19.6206C102.181 18.6694 101.544 18.1074 100.415 18.1074C99.3934 18.1074 98.6659 18.6035 98.5751 19.377H99.4354C99.5341 19.0586 99.8778 18.8765 100.374 18.8765C100.981 18.8765 101.296 19.145 101.296 19.6206V20.0093L100.076 20.0796ZM101.296 20.6626V21.0391C101.286 21.1811 101.248 21.3198 101.184 21.4468C101.119 21.5738 101.03 21.6866 100.921 21.7784C100.813 21.8703 100.687 21.9393 100.551 21.9814C100.415 22.0235 100.271 22.0378 100.13 22.0234C99.6464 22.0234 99.2948 21.7876 99.2948 21.3823C99.2948 20.9853 99.576 20.7744 100.196 20.7329L101.296 20.6626ZM103.348 20.4439C103.348 19.021 104.08 18.1196 105.218 18.1196C105.499 18.1067 105.778 18.1741 106.023 18.314C106.267 18.4539 106.467 18.6605 106.598 18.9096H106.665V16.4365H107.554V22.6973H106.702V21.9858H106.632C106.49 22.2333 106.283 22.4374 106.034 22.5758C105.785 22.7143 105.503 22.782 105.218 22.7715C104.072 22.7715 103.348 21.8701 103.348 20.4439ZM104.266 20.4439C104.266 21.3989 104.717 21.9737 105.47 21.9737C106.219 21.9737 106.682 21.3907 106.682 20.4478C106.682 19.5093 106.214 18.918 105.47 18.918C104.722 18.918 104.266 19.4966 104.266 20.4439H104.266ZM111.33 19.5672C111.236 19.8493 111.202 20.1479 111.23 20.4438C111.201 20.74 111.235 21.039 111.329 21.3215C111.422 21.6041 111.574 21.8639 111.774 22.0843C111.974 22.3047 112.218 22.4808 112.49 22.6014C112.762 22.7219 113.056 22.7842 113.354 22.7842C113.651 22.7842 113.946 22.7219 114.218 22.6014C114.49 22.4808 114.734 22.3047 114.934 22.0843C115.134 21.8639 115.286 21.6041 115.379 21.3215C115.473 21.039 115.506 20.74 115.477 20.4438C115.506 20.1479 115.472 19.8493 115.378 19.5672C115.284 19.2852 115.132 19.0258 114.932 18.8059C114.733 18.5859 114.489 18.4101 114.217 18.2898C113.945 18.1696 113.651 18.1074 113.354 18.1074C113.057 18.1074 112.763 18.1696 112.491 18.2898C112.219 18.4101 111.975 18.5859 111.775 18.8059C111.575 19.0258 111.424 19.2852 111.33 19.5672ZM113.355 18.8969C114.125 18.8969 114.563 19.4677 114.563 20.4438C114.563 21.4238 114.125 21.9941 113.355 21.9941C112.583 21.9941 112.148 21.4277 112.148 20.4438C112.148 19.4677 112.583 18.8969 113.355 18.8969ZM116.67 18.1944H117.525V18.9097H117.592C117.704 18.6528 117.894 18.4374 118.135 18.2936C118.376 18.1498 118.656 18.0847 118.935 18.1075C119.155 18.091 119.375 18.124 119.579 18.2041C119.784 18.2842 119.968 18.4093 120.117 18.5702C120.267 18.731 120.379 18.9235 120.444 19.1333C120.509 19.3431 120.526 19.5649 120.494 19.7823V22.6973H119.605V20.0054C119.605 19.2818 119.291 18.9219 118.634 18.9219C118.485 18.915 118.336 18.9403 118.198 18.9961C118.06 19.052 117.936 19.137 117.834 19.2454C117.732 19.3538 117.654 19.4829 117.607 19.6241C117.559 19.7652 117.543 19.9149 117.558 20.063V22.6973H116.67V18.1944ZM125.516 18.2148V17.0732H124.626V18.2148H123.911V18.9633H124.626V21.5063C124.626 22.3745 125.019 22.7222 126.008 22.7222C126.17 22.7205 126.332 22.7053 126.491 22.6768V21.9365C126.379 21.9498 126.265 21.9567 126.152 21.957C125.71 21.957 125.516 21.7505 125.516 21.2788V18.9634H126.491V18.2148H125.516ZM127.705 16.4365H128.586V18.918H128.656C128.774 18.6587 128.969 18.4421 129.215 18.2977C129.461 18.1534 129.745 18.0883 130.029 18.1113C130.247 18.0995 130.465 18.1359 130.667 18.2179C130.87 18.2999 131.051 18.4256 131.199 18.586C131.347 18.7463 131.458 18.9373 131.524 19.1455C131.59 19.3536 131.609 19.5737 131.58 19.79V22.6973H130.69V20.0093C130.69 19.29 130.355 18.9258 129.727 18.9258C129.575 18.9132 129.421 18.9342 129.277 18.9873C129.134 19.0404 129.003 19.1242 128.895 19.2329C128.787 19.3417 128.704 19.4727 128.652 19.6168C128.6 19.761 128.58 19.9147 128.594 20.0674V22.6973H127.705L127.705 16.4365ZM136.023 22.4872C136.379 22.249 136.641 21.8931 136.762 21.4815L135.906 21.4815C135.802 21.6685 135.644 21.8202 135.454 21.9174C135.263 22.0146 135.047 22.0529 134.835 22.0274C134.669 22.0292 134.505 21.9964 134.352 21.931C134.2 21.8656 134.063 21.7691 133.95 21.6476C133.837 21.5262 133.751 21.3825 133.697 21.2257C133.642 21.069 133.622 20.9026 133.636 20.7374V20.6876H136.815V20.3775C136.815 18.9635 136.059 18.1075 134.807 18.1075C134.509 18.105 134.214 18.1664 133.943 18.2876C133.671 18.4088 133.428 18.587 133.232 18.81C133.035 19.0331 132.888 19.2959 132.802 19.5805C132.715 19.8652 132.691 20.1652 132.73 20.46C132.69 20.754 132.714 21.0533 132.8 21.3371C132.887 21.6209 133.034 21.8825 133.232 22.1036C133.43 22.3248 133.674 22.5002 133.946 22.6177C134.219 22.7353 134.514 22.7921 134.81 22.7842C135.237 22.8305 135.666 22.7253 136.023 22.4872ZM135.91 20.0303H133.636C133.634 19.8766 133.662 19.7241 133.72 19.5817C133.778 19.4393 133.864 19.3099 133.973 19.2012C134.081 19.0925 134.211 19.0067 134.353 18.9487C134.495 18.8908 134.648 18.8619 134.802 18.8638C134.953 18.8604 135.104 18.8886 135.244 18.9468C135.384 19.005 135.51 19.0918 135.614 19.2016C135.718 19.3115 135.799 19.442 135.85 19.5847C135.901 19.7274 135.921 19.8792 135.91 20.0303Z" fill="black"/>
<path d="M91.0941 16.4365V15.4365H90.0941V16.4365H91.0941ZM91.9828 16.4365H92.9828V15.4365H91.9828V16.4365ZM91.0941 22.6973H90.0941V23.6973H91.0941V22.6973ZM91.9828 22.6973V23.6973H92.9828V22.6973H91.9828ZM69.8265 16.7304V17.7304H69.8624L69.8981 17.7278L69.8265 16.7304ZM71.9321 17.5483L72.6582 16.8607L72.6582 16.8607L71.9321 17.5483ZM72.6342 19.6952L71.6421 19.5695L71.6342 19.6321V19.6952H72.6342ZM67.6713 22.6972H66.6713V23.6972H67.6713V22.6972ZM67.6713 16.7304V15.7304H66.6713V16.7304H67.6713ZM69.723 21.8534L69.7827 20.8552L69.7529 20.8534H69.723V21.8534ZM68.598 21.8534H67.598V22.8534H68.598V21.8534ZM71.6282 20.5315L72.5842 20.825V20.825L71.6282 20.5315ZM71.6908 19.7074L70.7001 19.5715L70.6807 19.7124L70.7015 19.8532L71.6908 19.7074ZM71.6218 18.8881L72.5759 18.5885L72.5759 18.5885L71.6218 18.8881ZM70.534 17.7086L70.1583 18.6353L70.1583 18.6353L70.534 17.7086ZM69.723 17.5736V18.5736H69.7507L69.7784 18.5721L69.723 17.5736ZM68.598 17.5736V16.5736H67.598V17.5736H68.598ZM73.681 20.4438L74.6763 20.5407L74.6857 20.4447L74.6765 20.3486L73.681 20.4438ZM77.9281 20.4438L76.9326 20.3486L76.9234 20.4447L76.9328 20.5407L77.9281 20.4438ZM77.014 20.4438H76.014V21.4438H77.014V20.4438ZM75.806 21.9941V22.9941H75.806L75.806 21.9941ZM77.014 20.4438H78.014V19.4438H77.014V20.4438ZM83.5736 22.6973V23.6973H84.3361L84.5379 22.962L83.5736 22.6973ZM82.6517 22.6973L81.6889 22.9675L81.8937 23.6973H82.6517V22.6973ZM84.8099 18.1943L85.7742 18.4591L86.1215 17.1943H84.8099V18.1943ZM83.9213 18.1943V17.1943H83.128L82.9475 17.9668L83.9213 18.1943ZM83.1185 21.6303V22.6303H83.9118L84.0923 21.8578L83.1185 21.6303ZM83.0482 21.6303L82.0827 21.8905L82.282 22.6303H83.0482V21.6303ZM82.1224 18.1943L83.088 17.9342L82.8887 17.1943H82.1224V18.1943ZM81.2699 18.1943V17.1943H80.5037L80.3043 17.9342L81.2699 18.1943ZM80.3441 21.6303V22.6303H81.1103L81.3097 21.8905L80.3441 21.6303ZM80.2777 21.6303L79.3042 21.8589L79.4853 22.6303H80.2777V21.6303ZM79.4711 18.1943L80.4446 17.9658L80.2635 17.1943H79.4711V18.1943ZM78.5697 18.1943V17.1943H77.2568L77.6057 18.4601L78.5697 18.1943ZM79.8109 22.6973L78.8469 22.963L79.0493 23.6973H79.8109V22.6973ZM80.724 22.6973V23.6973H81.4829L81.6871 22.9664L80.724 22.6973ZM81.6508 19.3809V18.3809H80.8919L80.6877 19.1117L81.6508 19.3809ZM81.7211 19.3809L82.6839 19.1107L82.4791 18.3809H81.7211V19.3809ZM86.7093 18.1944H87.7093V17.1944H86.7093V18.1944ZM85.8539 18.1944V17.1944H84.8539L84.8539 18.1944L85.8539 18.1944ZM86.7093 18.9097H85.7093V19.9097H86.7093V18.9097ZM86.7757 18.9097V19.9097H87.4292L87.6916 19.3113L86.7757 18.9097ZM88.1195 18.1075L88.0385 19.1042L88.1165 19.1105L88.1945 19.1046L88.1195 18.1075ZM89.3014 18.5702L90.0335 17.8889V17.8889L89.3014 18.5702ZM89.6279 19.1333L88.6729 19.43V19.43L89.6279 19.1333ZM89.6781 19.7823L88.6889 19.6359L88.6781 19.7087V19.7823H89.6781ZM89.6781 22.6973V23.6973H90.6781V22.6973H89.6781ZM88.7894 22.6973H87.7894V23.6973H88.7894V22.6973ZM87.8177 18.9219L87.7712 19.9208L87.7945 19.9219H87.8177V18.9219ZM87.3824 18.9961L87.7573 19.9232L87.7573 19.9232L87.3824 18.9961ZM87.0179 19.2454L87.7457 19.9312V19.9312L87.0179 19.2454ZM86.7908 19.6241L87.7385 19.9432V19.9432L86.7908 19.6241ZM86.7425 20.063H87.7425V20.01L87.7369 19.9572L86.7425 20.063ZM86.7425 22.6973V23.6973H87.7425V22.6973H86.7425ZM85.8539 22.6973L84.8539 22.6973L84.8539 23.6973H85.8539V22.6973ZM93.3176 19.5673L92.3687 19.2515L92.3687 19.2516L93.3176 19.5673ZM93.2181 20.4439L94.2134 20.5407L94.2228 20.4447L94.2136 20.3487L93.2181 20.4439ZM94.4788 18.2898L94.0742 17.3753L94.0742 17.3753L94.4788 18.2898ZM96.2051 18.2898L96.6097 17.3753L96.6097 17.3753L96.2051 18.2898ZM96.9206 18.8059L97.6606 18.1332L97.6606 18.1332L96.9206 18.8059ZM97.3662 19.5673L98.3151 19.2516L98.3151 19.2515L97.3662 19.5673ZM97.4657 20.4439L96.4702 20.3487L96.4611 20.4447L96.4704 20.5407L97.4657 20.4439ZM97.3674 21.3216L98.3166 21.6362L98.3166 21.6362L97.3674 21.3216ZM96.9221 22.0844L97.6626 22.7564L97.6626 22.7564L96.9221 22.0844ZM96.206 22.6014L96.611 23.5158L96.611 23.5158L96.206 22.6014ZM94.4778 22.6014L94.0728 23.5158L94.0728 23.5158L94.4778 22.6014ZM93.7618 22.0844L93.0212 22.7564L93.0212 22.7564L93.7618 22.0844ZM93.3164 21.3216L92.3672 21.6362L92.3672 21.6362L93.3164 21.3216ZM96.5511 20.4439H95.5511V20.4439L96.5511 20.4439ZM95.3431 21.9942V22.9942H95.3431L95.3431 21.9942ZM98.4012 21.4238H97.4012L97.4013 21.4277L98.4012 21.4238ZM100.076 20.0796L100.018 19.0812L100.014 19.0815L100.076 20.0796ZM99.9022 22.7715L99.9484 21.7725L99.8734 21.7691L99.7988 21.7768L99.9022 22.7715ZM101.255 22.0645V21.0645H100.702L100.408 21.5322L101.255 22.0645ZM101.325 22.0645H102.325V21.0645H101.325V22.0645ZM101.325 22.6973H100.325V23.6973H101.325V22.6973ZM102.181 22.6973V23.6973H103.181V22.6973H102.181ZM98.5751 19.377L97.5819 19.2603L97.4508 20.377H98.5751V19.377ZM99.4354 19.377V20.377H100.172L100.391 19.6729L99.4354 19.377ZM101.296 20.0093L101.353 21.0076L102.296 20.9533V20.0093H101.296ZM101.296 21.0391L102.293 21.1066L102.296 21.0729V21.0391H101.296ZM101.296 20.6626H102.296V19.5966L101.232 19.6646L101.296 20.6626ZM100.13 22.0234L100.231 21.0285L100.18 21.0234H100.13V22.0234ZM100.196 20.7329L100.132 19.7349L100.129 19.7351L100.196 20.7329ZM105.218 18.1196V19.1196H105.241L105.264 19.1186L105.218 18.1196ZM106.023 18.314L105.526 19.182L106.023 18.314ZM106.598 18.9096L105.714 19.3762L105.995 19.9096H106.598V18.9096ZM106.665 18.9096V19.9096H107.665V18.9096H106.665ZM106.665 16.4365V15.4365H105.665V16.4365H106.665ZM107.554 16.4365H108.554V15.4365H107.554V16.4365ZM107.554 22.6973V23.6973H108.554V22.6973H107.554ZM106.702 22.6973H105.702V23.6973H106.702V22.6973ZM106.702 21.9858H107.702V20.9858H106.702V21.9858ZM106.632 21.9858V20.9858H106.052L105.764 21.4892L106.632 21.9858ZM105.218 22.7715L105.254 21.7722L105.236 21.7715L105.218 21.7715L105.218 22.7715ZM104.266 20.4439H105.266V19.4439H104.266V20.4439ZM104.266 20.4439H103.266V21.4439H104.266V20.4439ZM111.23 20.4438L112.226 20.5407L112.235 20.4446L112.226 20.3486L111.23 20.4438ZM111.33 19.5672L110.381 19.2516L110.381 19.2516L111.33 19.5672ZM111.329 21.3215L110.379 21.636L110.379 21.636L111.329 21.3215ZM112.49 22.6014L112.085 23.5157L112.085 23.5157L112.49 22.6014ZM114.218 22.6014L113.813 21.687L113.813 21.687L114.218 22.6014ZM115.379 21.3215L114.43 21.0071L114.43 21.0071L115.379 21.3215ZM115.477 20.4438L114.482 20.3486L114.473 20.4447L114.482 20.5407L115.477 20.4438ZM115.378 19.5672L114.429 19.8829L114.429 19.8829L115.378 19.5672ZM114.932 18.8059L114.192 19.4784L114.192 19.4784L114.932 18.8059ZM111.775 18.8059L111.035 18.1333L111.035 18.1333L111.775 18.8059ZM113.355 21.9941V22.9941H113.355L113.355 21.9941ZM117.525 18.1944H118.525V17.1944H117.525V18.1944ZM116.67 18.1944V17.1944H115.67V18.1944H116.67ZM117.525 18.9097H116.525V19.9097H117.525V18.9097ZM117.592 18.9097V19.9097H118.245L118.507 19.3113L117.592 18.9097ZM118.935 18.1075L118.854 19.1042L118.932 19.1105L119.01 19.1046L118.935 18.1075ZM120.117 18.5702L120.849 17.8889V17.8889L120.117 18.5702ZM120.444 19.1333L119.489 19.43V19.43L120.444 19.1333ZM120.494 19.7823L119.505 19.6359L119.494 19.7087V19.7823H120.494ZM120.494 22.6973V23.6973H121.494V22.6973H120.494ZM119.605 22.6973H118.605V23.6973H119.605V22.6973ZM118.634 18.9219L118.587 19.9208L118.61 19.9219H118.634V18.9219ZM118.198 18.9961L118.573 19.9232L118.573 19.9232L118.198 18.9961ZM117.834 19.2454L118.562 19.9311V19.9311L117.834 19.2454ZM117.607 19.6241L118.554 19.9432V19.9432L117.607 19.6241ZM117.558 20.063H118.558V20.01L118.553 19.9572L117.558 20.063ZM117.558 22.6973V23.6973H118.558V22.6973H117.558ZM116.67 22.6973H115.67V23.6973H116.67V22.6973ZM125.516 17.0732H126.516V16.0732H125.516V17.0732ZM125.516 18.2148H124.516V19.2148H125.516V18.2148ZM124.626 17.0732V16.0732H123.626V17.0732H124.626ZM124.626 18.2148V19.2148H125.626V18.2148H124.626ZM123.911 18.2148V17.2148H122.911V18.2148H123.911ZM123.911 18.9633H122.911V19.9633H123.911V18.9633ZM124.626 18.9633H125.626V17.9633H124.626V18.9633ZM126.008 22.7222V23.7222L126.018 23.7221L126.008 22.7222ZM126.491 22.6768L126.667 23.6611L127.491 23.5137V22.6768H126.491ZM126.491 21.9365H127.491V20.8113L126.374 20.9434L126.491 21.9365ZM126.152 21.957V22.957L126.155 22.957L126.152 21.957ZM125.516 18.9634V17.9634H124.516V18.9634H125.516ZM126.491 18.9634V19.9634H127.491V18.9634H126.491ZM126.491 18.2148H127.491V17.2148H126.491V18.2148ZM128.586 16.4365H129.586V15.4365H128.586V16.4365ZM127.705 16.4365V15.4365H126.705L126.705 16.4365L127.705 16.4365ZM128.586 18.918H127.586V19.918H128.586V18.918ZM128.656 18.918V19.918H129.299L129.566 19.3325L128.656 18.918ZM129.215 18.2977L128.709 17.4355V17.4355L129.215 18.2977ZM130.029 18.1113L129.948 19.1081L130.016 19.1135L130.083 19.1099L130.029 18.1113ZM131.199 18.586L130.465 19.2645L130.465 19.2645L131.199 18.586ZM131.58 19.79L130.589 19.6569L130.58 19.7232V19.79H131.58ZM131.58 22.6973V23.6973H132.58V22.6973H131.58ZM130.69 22.6973H129.69V23.6973H130.69V22.6973ZM129.727 18.9258L129.646 19.9224L129.687 19.9258H129.727V18.9258ZM128.594 20.0674H129.594V20.023L129.59 19.9788L128.594 20.0674ZM128.594 22.6973V23.6973H129.594V22.6973H128.594ZM127.705 22.6973L126.705 22.6973L126.705 23.6973H127.705V22.6973ZM136.762 21.4815L137.721 21.763L138.097 20.4816L136.762 20.4815L136.762 21.4815ZM135.906 21.4815L135.906 20.4815L135.319 20.4815L135.033 20.9944L135.906 21.4815ZM135.454 21.9174L135 21.0264L134.999 21.0264L135.454 21.9174ZM134.835 22.0274L134.954 21.0345L134.889 21.0267L134.824 21.0274L134.835 22.0274ZM134.352 21.931L134.747 21.012V21.012L134.352 21.931ZM133.95 21.6476L134.682 20.9668L134.682 20.9668L133.95 21.6476ZM133.636 20.7374L134.632 20.8213L134.636 20.7794V20.7374H133.636ZM133.636 20.6876V19.6876H132.636V20.6876H133.636ZM136.815 20.6876V21.6876H137.815V20.6876H136.815ZM134.807 18.1075L134.798 19.1075H134.807V18.1075ZM133.943 18.2876L134.35 19.2008L133.943 18.2876ZM132.802 19.5805L131.845 19.2899V19.2899L132.802 19.5805ZM132.73 20.46L133.721 20.5968L133.74 20.462L133.721 20.3273L132.73 20.46ZM132.8 21.3371L133.757 21.045V21.045L132.8 21.3371ZM133.232 22.1036L132.487 22.7705L132.487 22.7705L133.232 22.1036ZM134.81 22.7842L134.918 21.7901L134.851 21.7828L134.784 21.7846L134.81 22.7842ZM133.636 20.0303L132.636 20.0432L132.648 21.0303H133.636V20.0303ZM135.91 20.0303V21.0303H136.839L136.907 20.1043L135.91 20.0303ZM133.72 19.5817L132.794 19.2051V19.2051L133.72 19.5817ZM133.973 19.2012L133.265 18.4943V18.4943L133.973 19.2012ZM134.802 18.8638L134.789 19.8638L134.807 19.864L134.825 19.8636L134.802 18.8638ZM135.244 18.9468L134.86 19.8702V19.8702L135.244 18.9468ZM135.614 19.2016L136.339 18.5128V18.5128L135.614 19.2016ZM135.85 19.5847L136.791 19.2484V19.2484L135.85 19.5847ZM91.0941 17.4365H91.9828V15.4365H91.0941V17.4365ZM92.0941 22.6973V16.4365H90.0941V22.6973H92.0941ZM91.9828 21.6973H91.0941V23.6973H91.9828V21.6973ZM90.9828 16.4365V22.6973H92.9828V16.4365H90.9828ZM71.3333 15.9706C70.8312 15.7756 70.2922 15.6944 69.755 15.733L69.8981 17.7278C70.1401 17.7105 70.383 17.747 70.6091 17.8349L71.3333 15.9706ZM72.6582 16.8607C72.2879 16.4696 71.8353 16.1656 71.3333 15.9706L70.6091 17.8349C70.8353 17.9227 71.0392 18.0597 71.206 18.2359L72.6582 16.8607ZM73.4749 18.2321C73.3075 17.7201 73.0285 17.2518 72.6582 16.8607L71.206 18.2359C71.3728 18.412 71.4985 18.6231 71.5739 18.8537L73.4749 18.2321ZM73.6262 19.821C73.6939 19.2867 73.6423 18.744 73.4749 18.2321L71.5739 18.8537C71.6493 19.0843 71.6726 19.3288 71.6421 19.5695L73.6262 19.821ZM69.8265 23.6972C70.9249 23.6972 71.9166 23.3529 72.6267 22.5947C73.3282 21.8457 73.6342 20.8216 73.6342 19.6952H71.6342C71.6342 20.4751 71.4249 20.9521 71.167 21.2275C70.9176 21.4937 70.5055 21.6972 69.8265 21.6972V23.6972ZM67.6713 23.6972H69.8265V21.6972H67.6713V23.6972ZM66.6713 16.7304V22.6972H68.6713V16.7304H66.6713ZM69.8265 15.7304H67.6713V17.7304H69.8265V15.7304ZM69.723 20.8534H68.598V22.8534H69.723V20.8534ZM70.1635 20.7928C70.0428 20.8416 69.9127 20.863 69.7827 20.8552L69.6633 22.8516C70.0902 22.8771 70.5173 22.8072 70.9137 22.6468L70.1635 20.7928ZM70.4805 20.5728C70.3925 20.6688 70.2842 20.7439 70.1635 20.7928L70.9137 22.6468C71.31 22.4864 71.6656 22.2396 71.9546 21.9245L70.4805 20.5728ZM70.6722 20.2379C70.634 20.3624 70.5685 20.4768 70.4805 20.5728L71.9546 21.9245C72.2436 21.6093 72.4587 21.2337 72.5842 20.825L70.6722 20.2379ZM70.7015 19.8532C70.7205 19.982 70.7105 20.1135 70.6722 20.2379L72.5842 20.825C72.7097 20.4162 72.7424 19.9846 72.6801 19.5616L70.7015 19.8532ZM70.6678 19.1878C70.7067 19.3117 70.7177 19.4428 70.7001 19.5715L72.6815 19.8433C72.7393 19.4224 72.7032 18.9939 72.5759 18.5885L70.6678 19.1878ZM70.4749 18.8545C70.563 18.95 70.6288 19.0638 70.6678 19.1878L72.5759 18.5885C72.4486 18.1831 72.2332 17.811 71.9451 17.4986L70.4749 18.8545ZM70.1583 18.6353C70.2787 18.6841 70.3868 18.759 70.4749 18.8545L71.9451 17.4986C71.6571 17.1863 71.3035 16.9415 70.9098 16.7818L70.1583 18.6353ZM69.7784 18.5721C69.9082 18.5649 70.0379 18.5865 70.1583 18.6353L70.9098 16.7818C70.516 16.6222 70.0918 16.5516 69.6676 16.5752L69.7784 18.5721ZM68.598 18.5736H69.723V16.5736H68.598V18.5736ZM69.598 21.8534V17.5736H67.598V21.8534H69.598ZM72.8315 19.2516C72.6937 19.6659 72.644 20.1044 72.6856 20.539L74.6765 20.3486C74.6614 20.1914 74.6794 20.0328 74.7293 19.8829L72.8315 19.2516ZM73.4859 18.1333C73.1923 18.4564 72.9694 18.8373 72.8315 19.2516L74.7293 19.8829C74.7791 19.7331 74.8597 19.5953 74.966 19.4784L73.4859 18.1333ZM74.5368 17.3753C74.1376 17.552 73.7796 17.8101 73.4859 18.1333L74.966 19.4784C75.0722 19.3616 75.2016 19.2682 75.3461 19.2043L74.5368 17.3753ZM75.8046 17.1074C75.3679 17.1074 74.9361 17.1987 74.5368 17.3753L75.3461 19.2043C75.4905 19.1404 75.6466 19.1074 75.8046 19.1074V17.1074ZM77.0723 17.3753C76.673 17.1987 76.2412 17.1074 75.8046 17.1074V19.1074C75.9625 19.1074 76.1187 19.1404 76.2631 19.2043L77.0723 17.3753ZM78.1232 18.1333C77.8295 17.8102 77.4716 17.552 77.0723 17.3753L76.2631 19.2043C76.4075 19.2682 76.5369 19.3616 76.6432 19.4784L78.1232 18.1333ZM78.7776 19.2516C78.6397 18.8373 78.4168 18.4564 78.1232 18.1333L76.6432 19.4784C76.7494 19.5953 76.83 19.7331 76.8798 19.8829L78.7776 19.2516ZM78.9235 20.539C78.9651 20.1044 78.9154 19.6659 78.7776 19.2516L76.8798 19.8829C76.9297 20.0328 76.9477 20.1914 76.9326 20.3486L78.9235 20.539ZM78.7792 21.636C78.9166 21.2211 78.9657 20.7819 78.9234 20.3469L76.9328 20.5407C76.9481 20.6981 76.9304 20.857 76.8806 21.0071L78.7792 21.636ZM78.1252 22.7563C78.419 22.4325 78.6417 22.0509 78.7792 21.636L76.8806 21.0071C76.8309 21.1572 76.7503 21.2952 76.6441 21.4123L78.1252 22.7563ZM77.0736 23.5157C77.4733 23.3387 77.8315 23.08 78.1252 22.7563L76.6441 21.4123C76.5378 21.5294 76.4082 21.623 76.2636 21.687L77.0736 23.5157ZM75.8046 23.7842C76.2417 23.7842 76.674 23.6927 77.0736 23.5157L76.2636 21.687C76.1191 21.7511 75.9627 21.7842 75.8046 21.7842V23.7842ZM74.5355 23.5157C74.9352 23.6927 75.3674 23.7842 75.8046 23.7842V21.7842C75.6464 21.7842 75.49 21.7511 75.3455 21.687L74.5355 23.5157ZM73.4839 22.7563C73.7776 23.08 74.1358 23.3387 74.5355 23.5157L75.3455 21.687C75.2009 21.623 75.0713 21.5294 74.965 21.4123L73.4839 22.7563ZM72.8299 21.636C72.9674 22.0509 73.1902 22.4325 73.4839 22.7563L74.965 21.4123C74.8588 21.2952 74.7782 21.1572 74.7285 21.0071L72.8299 21.636ZM72.6857 20.3469C72.6434 20.7819 72.6925 21.2211 72.8299 21.636L74.7285 21.0071C74.6788 20.857 74.661 20.6981 74.6763 20.5407L72.6857 20.3469ZM75.806 19.8969C75.8738 19.8969 75.8998 19.9091 75.9011 19.9097C75.9021 19.9101 75.9024 19.9103 75.9022 19.9102C75.9021 19.9102 75.902 19.9101 75.9019 19.91C75.9018 19.91 75.9018 19.9099 75.9018 19.9099C75.9018 19.9099 75.9019 19.9101 75.9022 19.9103C75.9024 19.9105 75.9028 19.9109 75.9034 19.9114C75.9045 19.9126 75.9064 19.9147 75.9091 19.9181C75.932 19.9475 76.014 20.0881 76.014 20.4438H78.014C78.014 19.8234 77.8768 19.1906 77.488 18.6905C77.072 18.1554 76.4639 17.8969 75.806 17.8969V19.8969ZM75.599 20.4438C75.599 20.0862 75.6809 19.9458 75.7032 19.917C75.7081 19.9106 75.7105 19.909 75.7098 19.9095C75.709 19.9101 75.7085 19.9103 75.7097 19.9097C75.7107 19.9093 75.737 19.8969 75.806 19.8969V17.8969C75.1475 17.8969 74.5386 18.1549 74.1225 18.6917C73.7344 19.1923 73.599 19.8253 73.599 20.4438H75.599ZM75.806 20.9941C75.7359 20.9941 75.7092 20.9816 75.7083 20.9812C75.7071 20.9807 75.7079 20.9809 75.7089 20.9818C75.7099 20.9825 75.7078 20.9811 75.7031 20.9751C75.6816 20.9474 75.599 20.8069 75.599 20.4438H73.599C73.599 21.0646 73.7337 21.6993 74.1226 22.2008C74.5401 22.739 75.1499 22.9941 75.806 22.9941V20.9941ZM76.014 20.4438C76.014 20.8022 75.9317 20.9436 75.9087 20.9732C75.906 20.9766 75.9041 20.9787 75.903 20.9798C75.9025 20.9804 75.9021 20.9808 75.9018 20.981C75.9017 20.9811 75.9016 20.9812 75.9016 20.9812C75.9015 20.9813 75.9015 20.9813 75.9015 20.9813C75.9015 20.9813 75.9015 20.9813 75.9016 20.9812C75.9016 20.9812 75.9016 20.9812 75.9017 20.9811C75.9018 20.9811 75.9019 20.981 75.902 20.9809C75.9022 20.9808 75.902 20.981 75.9011 20.9814C75.8999 20.9819 75.8739 20.9941 75.806 20.9941L75.806 22.9941C76.4637 22.9941 77.0722 22.7358 77.4885 22.1997C77.8772 21.6991 78.014 21.0653 78.014 20.4438H76.014ZM77.014 21.4438H77.014V19.4438H77.014V21.4438ZM83.5736 21.6973H82.6517V23.6973H83.5736V21.6973ZM83.8456 17.9296L82.6093 22.4325L84.5379 22.962L85.7742 18.4591L83.8456 17.9296ZM83.9213 19.1943H84.8099V17.1943H83.9213V19.1943ZM84.0923 21.8578L84.895 18.4218L82.9475 17.9668L82.1448 21.4028L84.0923 21.8578ZM83.0482 22.6303H83.1185V20.6303H83.0482V22.6303ZM81.1569 18.4545L82.0827 21.8905L84.0138 21.3702L83.088 17.9342L81.1569 18.4545ZM81.2699 19.1943H82.1224V17.1943H81.2699V19.1943ZM81.3097 21.8905L82.2355 18.4545L80.3043 17.9342L79.3786 21.3702L81.3097 21.8905ZM80.2777 22.6303H80.3441V20.6303H80.2777V22.6303ZM78.4975 18.4229L79.3042 21.8589L81.2512 21.4018L80.4446 17.9658L78.4975 18.4229ZM78.5697 19.1943H79.4711V17.1943H78.5697V19.1943ZM80.775 22.4315L79.5337 17.9286L77.6057 18.4601L78.8469 22.963L80.775 22.4315ZM80.724 21.6973H79.8109V23.6973H80.724V21.6973ZM80.6877 19.1117L79.7609 22.4281L81.6871 22.9664L82.6139 19.65L80.6877 19.1117ZM81.7211 18.3809H81.6508V20.3809H81.7211V18.3809ZM83.6145 22.4271L82.6839 19.1107L80.7583 19.651L81.6889 22.9675L83.6145 22.4271ZM86.7093 17.1944H85.8539V19.1944H86.7093V17.1944ZM87.7093 18.9097V18.1944H85.7093V18.9097H87.7093ZM86.7757 17.9097H86.7093V19.9097H86.7757V17.9097ZM86.8067 17.435C86.3871 17.6855 86.0561 18.0606 85.8599 18.5081L87.6916 19.3113C87.7207 19.245 87.7697 19.1894 87.8319 19.1522L86.8067 17.435ZM88.2005 17.1107C87.7135 17.0712 87.2262 17.1845 86.8067 17.435L87.8319 19.1522C87.8941 19.1151 87.9663 19.0983 88.0385 19.1042L88.2005 17.1107ZM89.1277 17.2729C88.7834 17.1381 88.4132 17.0826 88.0445 17.1103L88.1945 19.1046C88.264 19.0994 88.3338 19.1099 88.3986 19.1353L89.1277 17.2729ZM90.0335 17.8889C89.7816 17.6182 89.472 17.4077 89.1277 17.2729L88.3986 19.1353C88.4635 19.1607 88.5219 19.2004 88.5694 19.2514L90.0335 17.8889ZM90.5828 18.8365C90.4731 18.4834 90.2854 18.1596 90.0335 17.8889L88.5694 19.2514C88.6169 19.3024 88.6523 19.3635 88.6729 19.43L90.5828 18.8365ZM90.6673 19.9286C90.7214 19.5629 90.6926 19.1896 90.5828 18.8365L88.6729 19.43C88.6936 19.4966 88.6991 19.5669 88.6889 19.6359L90.6673 19.9286ZM90.6781 22.6973V19.7823H88.6781V22.6973H90.6781ZM88.7894 23.6973H89.6781V21.6973H88.7894V23.6973ZM87.7894 20.0054V22.6973H89.7894V20.0054H87.7894ZM87.8177 19.9219C87.8937 19.9219 87.9142 19.9326 87.9002 19.9275C87.8923 19.9245 87.877 19.9178 87.8578 19.905C87.8384 19.892 87.8197 19.8758 87.8034 19.8576C87.7694 19.8194 87.7651 19.7941 87.7705 19.8123C87.7769 19.8342 87.7894 19.8935 87.7894 20.0054H89.7894C89.7894 19.5218 89.6874 18.9656 89.2966 18.527C88.8855 18.0656 88.3256 17.9219 87.8177 17.9219V19.9219ZM87.7573 19.9232C87.7617 19.9214 87.7665 19.9206 87.7712 19.9208L87.8643 17.923C87.5715 17.9094 87.2792 17.9592 87.0075 18.0691L87.7573 19.9232ZM87.7457 19.9312C87.749 19.9277 87.7529 19.925 87.7573 19.9232L87.0075 18.0691C86.7358 18.179 86.4911 18.3463 86.2901 18.5596L87.7457 19.9312ZM87.7385 19.9432C87.74 19.9387 87.7424 19.9346 87.7457 19.9312L86.2901 18.5596C86.0891 18.7729 85.9366 19.0272 85.8431 19.3049L87.7385 19.9432ZM87.7369 19.9572C87.7364 19.9525 87.7369 19.9477 87.7385 19.9432L85.8431 19.3049C85.7495 19.5827 85.7171 19.8774 85.7481 20.1688L87.7369 19.9572ZM87.7425 22.6973V20.063H85.7425V22.6973H87.7425ZM85.8539 23.6973H86.7425V21.6973H85.8539V23.6973ZM84.8539 18.1944L84.8539 22.6973L86.8539 22.6973L86.8539 18.1944L84.8539 18.1944ZM92.3687 19.2516C92.2309 19.6659 92.1811 20.1044 92.2227 20.539L94.2136 20.3487C94.1986 20.1915 94.2166 20.0329 94.2664 19.883L92.3687 19.2516ZM93.0232 18.1332C92.7295 18.4563 92.5066 18.8373 92.3687 19.2515L94.2664 19.883C94.3163 19.7332 94.3969 19.5954 94.5032 19.4785L93.0232 18.1332ZM94.0742 17.3753C93.6749 17.552 93.3169 17.8101 93.0232 18.1332L94.5032 19.4785C94.6094 19.3616 94.7389 19.2682 94.8833 19.2043L94.0742 17.3753ZM95.3419 17.1074C94.9053 17.1074 94.4735 17.1987 94.0742 17.3753L94.8833 19.2043C95.0278 19.1404 95.184 19.1074 95.3419 19.1074V17.1074ZM96.6097 17.3753C96.2104 17.1987 95.7786 17.1074 95.3419 17.1074V19.1074C95.4999 19.1074 95.6561 19.1404 95.8005 19.2043L96.6097 17.3753ZM97.6606 18.1332C97.3669 17.8101 97.009 17.552 96.6097 17.3753L95.8005 19.2043C95.9449 19.2682 96.0744 19.3616 96.1807 19.4785L97.6606 18.1332ZM98.3151 19.2515C98.1772 18.8373 97.9543 18.4563 97.6606 18.1332L96.1807 19.4785C96.2869 19.5954 96.3675 19.7331 96.4174 19.883L98.3151 19.2515ZM98.4612 20.539C98.5027 20.1044 98.453 19.6659 98.3151 19.2516L96.4174 19.883C96.4673 20.0329 96.4853 20.1915 96.4702 20.3487L98.4612 20.539ZM98.3166 21.6362C98.4541 21.2212 98.5033 20.7821 98.461 20.3471L96.4704 20.5407C96.4857 20.6981 96.4679 20.857 96.4182 21.0071L98.3166 21.6362ZM97.6626 22.7564C97.9564 22.4327 98.1791 22.0511 98.3166 21.6362L96.4182 21.0071C96.3684 21.1572 96.2878 21.2952 96.1815 21.4124L97.6626 22.7564ZM96.611 23.5158C97.0107 23.3388 97.3689 23.0801 97.6626 22.7564L96.1815 21.4124C96.0753 21.5295 95.9457 21.6231 95.8011 21.6871L96.611 23.5158ZM95.3419 23.7842C95.779 23.7842 96.2113 23.6928 96.611 23.5158L95.8011 21.6871C95.6565 21.7511 95.5001 21.7842 95.3419 21.7842V23.7842ZM94.0728 23.5158C94.4725 23.6928 94.9048 23.7842 95.3419 23.7842V21.7842C95.1838 21.7842 95.0274 21.7511 94.8828 21.6871L94.0728 23.5158ZM93.0212 22.7564C93.315 23.0801 93.6732 23.3388 94.0728 23.5158L94.8828 21.6871C94.7382 21.6231 94.6086 21.5295 94.5023 21.4124L93.0212 22.7564ZM92.3672 21.6362C92.5047 22.0511 92.7275 22.4327 93.0212 22.7564L94.5023 21.4124C94.396 21.2952 94.3154 21.1572 94.2657 21.0071L92.3672 21.6362ZM92.2228 20.3471C92.1805 20.7822 92.2297 21.2213 92.3672 21.6362L94.2657 21.0071C94.2159 20.857 94.1981 20.6981 94.2134 20.5407L92.2228 20.3471ZM95.3431 19.897C95.4109 19.897 95.4369 19.9092 95.4382 19.9098C95.4392 19.9102 95.4395 19.9104 95.4393 19.9103C95.4392 19.9102 95.4391 19.9102 95.439 19.9101C95.4389 19.9101 95.4389 19.91 95.4389 19.91C95.4389 19.91 95.439 19.9101 95.4393 19.9104C95.4395 19.9106 95.4399 19.911 95.4405 19.9115C95.4416 19.9127 95.4436 19.9148 95.4462 19.9182C95.4691 19.9476 95.5511 20.0882 95.5511 20.4439H97.5511C97.5511 19.8235 97.4139 19.1906 97.0252 18.6906C96.6091 18.1555 96.001 17.897 95.3431 17.897V19.897ZM95.1361 20.4439C95.1361 20.0863 95.218 19.9459 95.2403 19.9171C95.2452 19.9107 95.2476 19.9091 95.2469 19.9096C95.2461 19.9102 95.2456 19.9104 95.2468 19.9098C95.2478 19.9094 95.2741 19.897 95.3431 19.897V17.897C94.6846 17.897 94.0757 18.155 93.6596 18.6918C93.2715 19.1924 93.1361 19.8254 93.1361 20.4439H95.1361ZM95.3431 20.9942C95.2731 20.9942 95.2463 20.9817 95.2454 20.9813C95.2442 20.9807 95.245 20.981 95.246 20.9819C95.247 20.9826 95.2449 20.9812 95.2402 20.9752C95.2187 20.9475 95.1361 20.807 95.1361 20.4439H93.1361C93.1361 21.0647 93.2708 21.6994 93.6598 22.2008C94.0772 22.7391 94.687 22.9942 95.3431 22.9942V20.9942ZM95.5511 20.4439C95.5511 20.8023 95.4688 20.9437 95.4458 20.9733C95.4432 20.9767 95.4412 20.9788 95.4401 20.9799C95.4396 20.9805 95.4392 20.9809 95.4389 20.9811C95.4388 20.9812 95.4387 20.9812 95.4387 20.9813C95.4386 20.9813 95.4386 20.9814 95.4386 20.9814C95.4386 20.9814 95.4386 20.9813 95.4387 20.9813C95.4387 20.9813 95.4387 20.9813 95.4388 20.9812C95.4389 20.9811 95.439 20.9811 95.4391 20.981C95.4393 20.9809 95.4391 20.9811 95.4382 20.9815C95.437 20.982 95.411 20.9942 95.3431 20.9942L95.3431 22.9942C96.0008 22.9942 96.6093 22.7359 97.0256 22.1998C97.4143 21.6992 97.5511 21.0654 97.5511 20.4439L95.5511 20.4439ZM99.4012 21.4238C99.4012 21.3468 99.4151 21.3115 99.4202 21.3003C99.4245 21.291 99.4324 21.2768 99.4593 21.2554C99.5249 21.2032 99.7162 21.1038 100.138 21.0777L100.014 19.0815C99.3646 19.1218 98.7185 19.2893 98.2146 19.6899C97.6718 20.1215 97.4012 20.7394 97.4012 21.4238H99.4012ZM99.4328 21.5659C99.4122 21.52 99.4014 21.4702 99.4012 21.4199L97.4013 21.4277C97.4025 21.7575 97.4729 22.0834 97.6079 22.3842L99.4328 21.5659ZM99.5208 21.6866C99.4834 21.6529 99.4534 21.6118 99.4328 21.5659L97.6079 22.3842C97.7428 22.6851 97.9393 22.9544 98.1847 23.1748L99.5208 21.6866ZM99.6502 21.7611C99.6024 21.7456 99.5583 21.7202 99.5208 21.6866L98.1847 23.1748C98.43 23.3951 98.7189 23.5615 99.0325 23.6634L99.6502 21.7611ZM99.7988 21.7768C99.7487 21.782 99.6981 21.7767 99.6502 21.7611L99.0325 23.6634C99.3462 23.7652 99.6777 23.8002 100.006 23.7661L99.7988 21.7768ZM100.211 21.7145C100.13 21.7567 100.039 21.7767 99.9484 21.7725L99.856 23.7704C100.301 23.7909 100.743 23.6931 101.137 23.4869L100.211 21.7145ZM100.408 21.5322C100.36 21.6093 100.292 21.6723 100.211 21.7145L101.137 23.4869C101.532 23.2807 101.864 22.9735 102.101 22.5967L100.408 21.5322ZM101.325 21.0645H101.255V23.0645H101.325V21.0645ZM102.325 22.6973V22.0645H100.325V22.6973H102.325ZM102.181 21.6973H101.325V23.6973H102.181V21.6973ZM101.181 19.6206V22.6973H103.181V19.6206H101.181ZM100.415 19.1074C100.825 19.1074 101.005 19.21 101.067 19.2641C101.109 19.3004 101.181 19.3807 101.181 19.6206H103.181C103.181 18.9093 102.933 18.2331 102.375 17.7506C101.837 17.2859 101.133 17.1074 100.415 17.1074V19.1074ZM99.5682 19.4936C99.5775 19.4152 99.6102 19.3466 99.7126 19.2761C99.8308 19.1948 100.058 19.1074 100.415 19.1074V17.1074C99.1234 17.1074 97.7559 17.7785 97.5819 19.2603L99.5682 19.4936ZM99.4354 18.377H98.5751V20.377H99.4354V18.377ZM100.374 17.8765C99.7043 17.8765 98.7728 18.1367 98.4802 19.081L100.391 19.6729C100.374 19.7277 100.345 19.7792 100.308 19.8211C100.273 19.8616 100.24 19.8821 100.226 19.89C100.212 19.8975 100.214 19.8936 100.24 19.888C100.266 19.8824 100.31 19.8765 100.374 19.8765V17.8765ZM102.296 19.6206C102.296 19.1474 102.128 18.6504 101.696 18.2966C101.297 17.9694 100.806 17.8765 100.374 17.8765V19.8765C100.455 19.8765 100.493 19.8857 100.501 19.8879C100.507 19.8896 100.475 19.8813 100.429 19.8438C100.38 19.8036 100.34 19.7497 100.316 19.6935C100.294 19.6416 100.296 19.6113 100.296 19.6206H102.296ZM102.296 20.0093V19.6206H100.296V20.0093H102.296ZM100.134 21.0779L101.353 21.0076L101.238 19.0109L100.018 19.0812L100.134 21.0779ZM102.296 21.0391V20.6626H100.296V21.0391H102.296ZM102.076 21.8984C102.201 21.6518 102.275 21.3825 102.293 21.1066L100.298 20.9715C100.298 20.9797 100.295 20.9877 100.292 20.9951L102.076 21.8984ZM101.567 22.5425C101.778 22.3642 101.951 22.1451 102.076 21.8984L100.292 20.9951C100.288 21.0024 100.283 21.009 100.276 21.0143L101.567 22.5425ZM100.846 22.9367C101.11 22.8549 101.355 22.7209 101.567 22.5425L100.276 21.0143C100.27 21.0196 100.263 21.0236 100.255 21.0261L100.846 22.9367ZM100.029 23.0183C100.304 23.0462 100.582 23.0184 100.846 22.9367L100.255 21.0261C100.247 21.0285 100.239 21.0293 100.231 21.0285L100.029 23.0183ZM98.2948 21.3823C98.2948 21.9113 98.5407 22.3664 98.9366 22.659C99.303 22.9298 99.7393 23.0234 100.13 23.0234V21.0234C100.037 21.0234 100.056 20.9991 100.125 21.0506C100.164 21.0795 100.212 21.1277 100.247 21.1976C100.284 21.2685 100.295 21.3354 100.295 21.3823H98.2948ZM100.129 19.7351C99.748 19.7607 99.298 19.8441 98.9247 20.1157C98.4838 20.4363 98.2948 20.9089 98.2948 21.3823H100.295C100.295 21.4016 100.291 21.4651 100.252 21.5467C100.212 21.6326 100.153 21.6953 100.101 21.733C100.056 21.7659 100.033 21.7674 100.063 21.759C100.093 21.7506 100.156 21.7378 100.263 21.7307L100.129 19.7351ZM101.232 19.6646L100.132 19.7349L100.26 21.7309L101.36 21.6606L101.232 19.6646ZM105.218 17.1196C104.36 17.1196 103.601 17.4713 103.078 18.1205C102.572 18.7476 102.348 19.5712 102.348 20.4439H104.348C104.348 19.8937 104.49 19.5552 104.635 19.3758C104.762 19.2186 104.937 19.1196 105.218 19.1196V17.1196ZM106.519 17.446C106.11 17.2118 105.643 17.099 105.172 17.1207L105.264 19.1186C105.355 19.1144 105.447 19.1363 105.526 19.182L106.519 17.446ZM107.483 18.443C107.263 18.026 106.929 17.6802 106.519 17.446L105.526 19.182C105.606 19.2276 105.671 19.295 105.714 19.3762L107.483 18.443ZM106.665 17.9096H106.598V19.9096H106.665V17.9096ZM105.665 16.4365V18.9096H107.665V16.4365H105.665ZM107.554 15.4365H106.665V17.4365H107.554V15.4365ZM108.554 22.6973V16.4365H106.554V22.6973H108.554ZM106.702 23.6973H107.554V21.6973H106.702V23.6973ZM105.702 21.9858V22.6973H107.702V21.9858H105.702ZM106.632 22.9858H106.702V20.9858H106.632V22.9858ZM106.52 23.45C106.929 23.2229 107.267 22.8883 107.5 22.4825L105.764 21.4892C105.713 21.5783 105.638 21.6518 105.549 21.7017L106.52 23.45ZM105.181 23.7708C105.648 23.788 106.111 23.6771 106.52 23.45L105.549 21.7017C105.459 21.7516 105.357 21.7759 105.254 21.7722L105.181 23.7708ZM102.348 20.4439C102.348 21.3153 102.569 22.14 103.074 22.7686C103.597 23.4208 104.358 23.7715 105.218 23.7715L105.218 21.7715C104.932 21.7715 104.758 21.6715 104.633 21.5164C104.49 21.3378 104.348 20.9987 104.348 20.4439H102.348ZM105.47 20.9737C105.41 20.9737 105.387 20.9628 105.385 20.962C105.385 20.962 105.382 20.9616 105.372 20.9491C105.347 20.9171 105.266 20.7789 105.266 20.4439H103.266C103.266 21.0639 103.411 21.6906 103.799 22.1847C104.211 22.7091 104.813 22.9737 105.47 22.9737V20.9737ZM105.682 20.4478C105.682 20.768 105.602 20.9064 105.573 20.9424C105.561 20.9577 105.555 20.9604 105.552 20.9616C105.548 20.9633 105.525 20.9737 105.47 20.9737V22.9737C106.129 22.9737 106.728 22.7039 107.14 22.1862C107.53 21.695 107.682 21.0704 107.682 20.4478H105.682ZM105.47 19.918C105.521 19.918 105.542 19.9276 105.546 19.9293C105.549 19.9307 105.557 19.9344 105.571 19.9518C105.602 19.9917 105.682 20.133 105.682 20.4478H107.682C107.682 19.8241 107.527 19.2005 107.139 18.7101C106.73 18.1946 106.133 17.918 105.47 17.918V19.918ZM105.266 20.4439C105.266 20.1168 105.346 19.9785 105.373 19.9446C105.384 19.9308 105.388 19.9296 105.389 19.9293C105.391 19.9284 105.413 19.918 105.47 19.918V17.918C104.812 17.918 104.212 18.1861 103.802 18.7068C103.414 19.199 103.266 19.8237 103.266 20.4439H105.266ZM104.266 19.4439H104.266V21.4439H104.266V19.4439ZM112.226 20.3486C112.211 20.1914 112.229 20.0328 112.279 19.8829L110.381 19.2516C110.243 19.6659 110.193 20.1044 110.235 20.539L112.226 20.3486ZM112.278 21.0071C112.228 20.857 112.21 20.6981 112.226 20.5407L110.235 20.3469C110.193 20.7819 110.242 21.221 110.379 21.636L112.278 21.0071ZM112.514 21.4123C112.408 21.2952 112.328 21.1572 112.278 21.0071L110.379 21.636C110.517 22.0509 110.739 22.4325 111.033 22.7563L112.514 21.4123ZM112.895 21.687C112.75 21.623 112.621 21.5294 112.514 21.4123L111.033 22.7563C111.327 23.08 111.685 23.3387 112.085 23.5157L112.895 21.687ZM113.354 21.7842C113.196 21.7842 113.039 21.7511 112.895 21.687L112.085 23.5157C112.484 23.6927 112.917 23.7842 113.354 23.7842V21.7842ZM113.813 21.687C113.668 21.7511 113.512 21.7842 113.354 21.7842V23.7842C113.791 23.7842 114.223 23.6927 114.623 23.5157L113.813 21.687ZM114.193 21.4123C114.087 21.5294 113.958 21.623 113.813 21.687L114.623 23.5157C115.023 23.3387 115.381 23.08 115.675 22.7563L114.193 21.4123ZM114.43 21.0071C114.38 21.1572 114.3 21.2952 114.193 21.4123L115.675 22.7563C115.968 22.4325 116.191 22.0509 116.328 21.636L114.43 21.0071ZM114.482 20.5407C114.497 20.6981 114.48 20.8569 114.43 21.0071L116.328 21.636C116.466 21.2211 116.515 20.7819 116.473 20.3469L114.482 20.5407ZM114.429 19.8829C114.479 20.0328 114.497 20.1914 114.482 20.3486L116.473 20.539C116.514 20.1044 116.465 19.6659 116.327 19.2516L114.429 19.8829ZM114.192 19.4784C114.299 19.5953 114.379 19.7331 114.429 19.8829L116.327 19.2516C116.189 18.8373 115.966 18.4564 115.672 18.1333L114.192 19.4784ZM113.812 19.2043C113.957 19.2682 114.086 19.3616 114.192 19.4784L115.672 18.1333C115.379 17.8102 115.021 17.552 114.622 17.3753L113.812 19.2043ZM113.354 19.1074C113.512 19.1074 113.668 19.1404 113.812 19.2043L114.622 17.3753C114.222 17.1987 113.79 17.1074 113.354 17.1074V19.1074ZM112.895 19.2043C113.04 19.1404 113.196 19.1074 113.354 19.1074V17.1074C112.917 17.1074 112.485 17.1987 112.086 17.3753L112.895 19.2043ZM112.515 19.4784C112.621 19.3616 112.751 19.2682 112.895 19.2043L112.086 17.3753C111.687 17.552 111.329 17.8102 111.035 18.1333L112.515 19.4784ZM112.279 19.8829C112.328 19.7331 112.409 19.5953 112.515 19.4784L111.035 18.1333C110.742 18.4564 110.519 18.8373 110.381 19.2516L112.279 19.8829ZM115.563 20.4438C115.563 19.8234 115.426 19.1906 115.037 18.6905C114.621 18.1554 114.013 17.8969 113.355 17.8969V19.8969C113.423 19.8969 113.449 19.9091 113.45 19.9097C113.451 19.9101 113.452 19.9103 113.451 19.9102C113.451 19.9102 113.451 19.9101 113.451 19.91C113.451 19.91 113.451 19.9099 113.451 19.9099C113.451 19.9099 113.451 19.9101 113.451 19.9103C113.452 19.9105 113.452 19.9109 113.453 19.9114C113.454 19.9126 113.456 19.9147 113.458 19.9181C113.481 19.9475 113.563 20.0881 113.563 20.4438H115.563ZM113.355 22.9941C114.013 22.9941 114.622 22.7358 115.038 22.1997C115.426 21.6991 115.563 21.0653 115.563 20.4438H113.563C113.563 20.8022 113.481 20.9436 113.458 20.9732C113.455 20.9766 113.453 20.9787 113.452 20.9798C113.452 20.9804 113.451 20.9808 113.451 20.981C113.451 20.9811 113.451 20.9812 113.451 20.9812C113.451 20.9813 113.451 20.9813 113.451 20.9813C113.451 20.9813 113.451 20.9813 113.451 20.9812C113.451 20.9812 113.451 20.9812 113.451 20.9811C113.451 20.9811 113.451 20.981 113.451 20.9809C113.452 20.9808 113.451 20.981 113.45 20.9814C113.449 20.9819 113.423 20.9941 113.355 20.9941L113.355 22.9941ZM111.148 20.4438C111.148 21.0646 111.283 21.6993 111.672 22.2008C112.089 22.739 112.699 22.9941 113.355 22.9941V20.9941C113.285 20.9941 113.259 20.9816 113.258 20.9812C113.256 20.9807 113.257 20.9809 113.258 20.9818C113.259 20.9825 113.257 20.9811 113.252 20.9751C113.231 20.9474 113.148 20.8069 113.148 20.4438H111.148ZM113.355 17.8969C112.697 17.8969 112.088 18.1549 111.672 18.6917C111.284 19.1923 111.148 19.8253 111.148 20.4438H113.148C113.148 20.0862 113.23 19.9458 113.253 19.917C113.257 19.9106 113.26 19.909 113.259 19.9095C113.258 19.9101 113.258 19.9103 113.259 19.9097C113.26 19.9093 113.286 19.8969 113.355 19.8969V17.8969ZM117.525 17.1944H116.67V19.1944H117.525V17.1944ZM118.525 18.9097V18.1944H116.525V18.9097H118.525ZM117.592 17.9097H117.525V19.9097H117.592V17.9097ZM117.623 17.435C117.203 17.6855 116.872 18.0606 116.676 18.5081L118.507 19.3113C118.537 19.2449 118.586 19.1893 118.648 19.1522L117.623 17.435ZM119.016 17.1107C118.529 17.0712 118.042 17.1845 117.623 17.435L118.648 19.1522C118.71 19.1151 118.782 19.0983 118.854 19.1042L119.016 17.1107ZM119.944 17.2729C119.599 17.1381 119.229 17.0826 118.86 17.1103L119.01 19.1046C119.08 19.0994 119.15 19.1099 119.215 19.1353L119.944 17.2729ZM120.849 17.8889C120.598 17.6182 120.288 17.4077 119.944 17.2729L119.215 19.1353C119.279 19.1607 119.338 19.2004 119.385 19.2514L120.849 17.8889ZM121.399 18.8365C121.289 18.4834 121.101 18.1596 120.849 17.8889L119.385 19.2514C119.433 19.3024 119.468 19.3635 119.489 19.43L121.399 18.8365ZM121.483 19.9286C121.537 19.5629 121.508 19.1896 121.399 18.8365L119.489 19.43C119.51 19.4966 119.515 19.5669 119.505 19.6359L121.483 19.9286ZM121.494 22.6973V19.7823H119.494V22.6973H121.494ZM119.605 23.6973H120.494V21.6973H119.605V23.6973ZM118.605 20.0054V22.6973H120.605V20.0054H118.605ZM118.634 19.9219C118.71 19.9219 118.73 19.9326 118.716 19.9275C118.708 19.9245 118.693 19.9178 118.674 19.905C118.654 19.892 118.636 19.8758 118.619 19.8576C118.585 19.8194 118.581 19.7941 118.586 19.8123C118.593 19.8342 118.605 19.8935 118.605 20.0054H120.605C120.605 19.5218 120.503 18.9656 120.113 18.527C119.701 18.0656 119.141 17.9219 118.634 17.9219V19.9219ZM118.573 19.9232C118.578 19.9214 118.582 19.9206 118.587 19.9208L118.68 17.923C118.387 17.9094 118.095 17.9592 117.823 18.0691L118.573 19.9232ZM118.562 19.9311C118.565 19.9277 118.569 19.925 118.573 19.9232L117.823 18.0691C117.552 18.179 117.307 18.3463 117.106 18.5596L118.562 19.9311ZM118.554 19.9432C118.556 19.9387 118.558 19.9346 118.562 19.9311L117.106 18.5596C116.905 18.7729 116.753 19.0272 116.659 19.3049L118.554 19.9432ZM118.553 19.9572C118.552 19.9525 118.553 19.9477 118.554 19.9432L116.659 19.3049C116.565 19.5827 116.533 19.8774 116.564 20.1688L118.553 19.9572ZM118.558 22.6973V20.063H116.558V22.6973H118.558ZM116.67 23.6973H117.558V21.6973H116.67V23.6973ZM115.67 18.1944V22.6973H117.67V18.1944H115.67ZM124.516 17.0732V18.2148H126.516V17.0732H124.516ZM124.626 18.0732H125.516V16.0732H124.626V18.0732ZM125.626 18.2148V17.0732H123.626V18.2148H125.626ZM123.911 19.2148H124.626V17.2148H123.911V19.2148ZM124.911 18.9633V18.2148H122.911V18.9633H124.911ZM124.626 17.9633H123.911V19.9633H124.626V17.9633ZM125.626 21.5063V18.9633H123.626V21.5063H125.626ZM126.008 21.7222C125.814 21.7222 125.695 21.7045 125.629 21.687C125.567 21.6709 125.576 21.6618 125.607 21.6893C125.643 21.7209 125.653 21.7513 125.65 21.7421C125.643 21.7223 125.626 21.6537 125.626 21.5063H123.626C123.626 22.0688 123.752 22.7206 124.285 23.1903C124.786 23.6311 125.439 23.7222 126.008 23.7222V21.7222ZM126.315 21.6924C126.21 21.7111 126.104 21.7211 125.997 21.7222L126.018 23.7221C126.236 23.7199 126.453 23.6995 126.667 23.6611L126.315 21.6924ZM125.491 21.9365V22.6768H127.491V21.9365H125.491ZM126.155 22.957C126.307 22.9565 126.458 22.9474 126.609 22.9296L126.374 20.9434C126.299 20.9523 126.224 20.9568 126.149 20.957L126.155 22.957ZM124.516 21.2788C124.516 21.6224 124.581 22.0987 124.939 22.4794C125.31 22.8744 125.795 22.957 126.152 22.957V20.957C126.067 20.957 126.234 20.9364 126.397 21.1102C126.547 21.2697 126.516 21.4069 126.516 21.2788H124.516ZM124.516 18.9634V21.2788H126.516V18.9634H124.516ZM126.491 17.9634H125.516V19.9634H126.491V17.9634ZM125.491 18.2148V18.9634H127.491V18.2148H125.491ZM125.516 19.2148H126.491V17.2148H125.516V19.2148ZM128.586 15.4365H127.705V17.4365H128.586V15.4365ZM129.586 18.918V16.4365H127.586V18.918H129.586ZM128.656 17.918H128.586V19.918H128.656V17.918ZM128.709 17.4355C128.286 17.684 127.949 18.0569 127.746 18.5034L129.566 19.3325C129.599 19.2604 129.653 19.2001 129.722 19.1599L128.709 17.4355ZM130.11 17.1146C129.621 17.0749 129.132 17.187 128.709 17.4355L129.722 19.1599C129.79 19.1198 129.869 19.1016 129.948 19.1081L130.11 17.1146ZM131.043 17.2912C130.704 17.1539 130.34 17.093 129.975 17.1128L130.083 19.1099C130.154 19.106 130.225 19.1178 130.291 19.1446L131.043 17.2912ZM131.934 17.9074C131.686 17.639 131.382 17.4286 131.043 17.2912L130.291 19.1446C130.357 19.1713 130.417 19.2123 130.465 19.2645L131.934 17.9074ZM132.478 18.8441C132.368 18.4957 132.182 18.1758 131.934 17.9074L130.465 19.2645C130.513 19.3168 130.549 19.379 130.571 19.4469L132.478 18.8441ZM132.571 19.9232C132.62 19.561 132.588 19.1926 132.478 18.8441L130.571 19.4469C130.592 19.5147 130.598 19.5864 130.589 19.6569L132.571 19.9232ZM132.58 22.6973V19.79H130.58V22.6973H132.58ZM130.69 23.6973H131.58V21.6973H130.69V23.6973ZM129.69 20.0093V22.6973H131.69V20.0093H129.69ZM129.727 19.9258C129.79 19.9258 129.804 19.935 129.788 19.929C129.78 19.9258 129.765 19.9192 129.748 19.9075C129.731 19.8956 129.714 19.8812 129.7 19.8653C129.67 19.8319 129.666 19.8107 129.672 19.828C129.678 19.8484 129.69 19.9043 129.69 20.0093H131.69C131.69 19.5118 131.576 18.962 131.189 18.5303C130.785 18.0792 130.236 17.9258 129.727 17.9258V19.9258ZM129.623 19.9255C129.631 19.9228 129.638 19.9218 129.646 19.9224L129.809 17.9291C129.511 17.9047 129.212 17.9456 128.931 18.0491L129.623 19.9255ZM129.605 19.9376C129.61 19.9322 129.616 19.9281 129.623 19.9255L128.931 18.0491C128.651 18.1526 128.396 18.3161 128.186 18.5282L129.605 19.9376ZM129.593 19.9566C129.595 19.9494 129.599 19.943 129.605 19.9376L128.186 18.5282C127.975 18.7404 127.813 18.9959 127.712 19.2771L129.593 19.9566ZM129.59 19.9788C129.589 19.9713 129.59 19.9637 129.593 19.9566L127.712 19.2771C127.61 19.5582 127.571 19.8582 127.598 20.156L129.59 19.9788ZM129.594 22.6973V20.0674H127.594V22.6973H129.594ZM127.705 23.6973H128.594V21.6973H127.705V23.6973ZM126.705 16.4365L126.705 22.6973L128.705 22.6972L128.705 16.4365L126.705 16.4365ZM135.802 21.2C135.747 21.3864 135.629 21.5476 135.467 21.6555L136.578 23.3189C137.13 22.9504 137.534 22.3997 137.721 21.763L135.802 21.2ZM135.906 22.4815L136.762 22.4815L136.762 20.4815L135.906 20.4815L135.906 22.4815ZM135.908 22.8084C136.275 22.6211 136.579 22.3288 136.779 21.9686L135.033 20.9944C135.025 21.0081 135.014 21.0193 135 21.0264L135.908 22.8084ZM134.716 23.0203C135.125 23.0694 135.54 22.9957 135.908 22.8084L134.999 21.0264C134.985 21.0336 134.97 21.0364 134.954 21.0345L134.716 23.0203ZM133.958 22.85C134.238 22.9703 134.541 23.0307 134.846 23.0273L134.824 21.0274C134.797 21.0277 134.771 21.0225 134.747 21.012L133.958 22.85ZM133.217 22.3285C133.425 22.552 133.677 22.7296 133.958 22.85L134.747 21.012C134.722 21.0016 134.7 20.9862 134.682 20.9668L133.217 22.3285ZM132.751 21.5521C132.851 21.8405 133.01 22.105 133.217 22.3285L134.682 20.9668C134.664 20.9474 134.65 20.9244 134.642 20.8993L132.751 21.5521ZM132.639 20.6535C132.614 20.9576 132.652 21.2637 132.751 21.5521L134.642 20.8993C134.633 20.8743 134.63 20.8477 134.632 20.8213L132.639 20.6535ZM132.636 20.6876V20.7374H134.636V20.6876H132.636ZM136.815 19.6876H133.636V21.6876H136.815V19.6876ZM135.815 20.3775V20.6876H137.815V20.3775H135.815ZM134.807 19.1075C135.193 19.1075 135.405 19.231 135.532 19.3747C135.673 19.534 135.815 19.8407 135.815 20.3775H137.815C137.815 19.5003 137.58 18.672 137.03 18.0498C136.466 17.412 135.673 17.1075 134.807 17.1075V19.1075ZM134.35 19.2008C134.491 19.138 134.644 19.1061 134.798 19.1075L134.815 17.1075C134.374 17.1038 133.938 17.1948 133.535 17.3743L134.35 19.2008ZM133.981 19.4717C134.083 19.3561 134.209 19.2637 134.35 19.2008L133.535 17.3743C133.133 17.5539 132.774 17.8179 132.482 18.1483L133.981 19.4717ZM133.758 19.8712C133.803 19.7236 133.879 19.5874 133.981 19.4717L132.482 18.1483C132.19 18.4788 131.973 18.8681 131.845 19.2899L133.758 19.8712ZM133.721 20.3273C133.701 20.1743 133.714 20.0188 133.758 19.8712L131.845 19.2899C131.717 19.7116 131.681 20.156 131.739 20.5928L133.721 20.3273ZM133.757 21.045C133.712 20.9 133.7 20.747 133.721 20.5968L131.74 20.3233C131.679 20.761 131.715 21.2067 131.844 21.6293L133.757 21.045ZM133.978 21.4368C133.876 21.3237 133.801 21.1901 133.757 21.045L131.844 21.6293C131.973 22.0518 132.193 22.4413 132.487 22.7705L133.978 21.4368ZM134.342 21.6995C134.203 21.6394 134.079 21.5498 133.978 21.4367L132.487 22.7705C132.782 23.0998 133.145 23.361 133.55 23.536L134.342 21.6995ZM134.784 21.7846C134.632 21.7886 134.482 21.7596 134.342 21.6995L133.55 23.536C133.956 23.711 134.395 23.7956 134.837 23.7839L134.784 21.7846ZM135.467 21.6555C135.306 21.7634 135.111 21.811 134.918 21.7901L134.703 23.7784C135.362 23.85 136.026 23.6873 136.578 23.3189L135.467 21.6555ZM133.636 21.0303H135.91V19.0303H133.636V21.0303ZM132.794 19.2051C132.686 19.4712 132.632 19.7561 132.636 20.0432L134.635 20.0175C134.635 19.9972 134.639 19.977 134.647 19.9583L132.794 19.2051ZM133.265 18.4943C133.062 18.6974 132.902 18.9391 132.794 19.2051L134.647 19.9583C134.654 19.9395 134.666 19.9225 134.68 19.9082L133.265 18.4943ZM133.976 18.0225C133.71 18.1308 133.468 18.2912 133.265 18.4943L134.68 19.9082C134.694 19.8939 134.711 19.8826 134.73 19.8749L133.976 18.0225ZM134.814 17.8639C134.527 17.8603 134.242 17.9142 133.976 18.0225L134.73 19.8749C134.749 19.8673 134.769 19.8635 134.789 19.8638L134.814 17.8639ZM135.627 18.0234C135.359 17.9117 135.07 17.8574 134.779 17.8641L134.825 19.8636C134.837 19.8633 134.849 19.8656 134.86 19.8702L135.627 18.0234ZM136.339 18.5128C136.139 18.3019 135.896 18.1351 135.627 18.0234L134.86 19.8702C134.871 19.8748 134.881 19.8817 134.889 19.8905L136.339 18.5128ZM136.791 19.2484C136.694 18.9744 136.54 18.7238 136.339 18.5128L134.889 19.8905C134.897 19.8992 134.904 19.9096 134.908 19.921L136.791 19.2484ZM136.907 20.1043C136.929 19.814 136.889 19.5225 136.791 19.2484L134.908 19.921C134.912 19.9323 134.914 19.9444 134.913 19.9564L136.907 20.1043Z" fill="black" mask="url(#path-3-inside-2)"/>
<rect x="1" y="1" width="182" height="54" rx="11" stroke="black" stroke-width="2"/>
</svg>
