<?xml version="1.0" encoding="utf-8"?>
<!-- Generator: Adobe Illustrator 27.3.1, SVG Export Plug-In . SVG Version: 6.00 Build 0)  -->
<svg version="1.1" id="Camada_1" xmlns="http://www.w3.org/2000/svg" xmlns:xlink="http://www.w3.org/1999/xlink" x="0px" y="0px"
	 viewBox="0 0 1287 256" style="enable-background:new 0 0 1287 256;" xml:space="preserve">
<style type="text/css">
	.st0{fill:#1976D2;}
	.st1{fill:#30E09A;stroke:#000000;stroke-miterlimit:10;}
	.st2{fill:#1976D2;stroke:#000000;stroke-miterlimit:10;}
	.st3{fill:none;stroke:#000000;stroke-miterlimit:10;}
	.st4{fill:#1976D2;stroke:#1976D2;stroke-miterlimit:10;}
	.st5{fill:#30DF99;}
</style>
<g>
	<path class="st0" d="M1274.7,270.2c-13.4,0-27.1-5.2-38.5-14.6l-0.1-0.1H88.1c-27.9,0-50.6-22.7-50.6-50.6V57.1
		c0-27.9,22.7-50.6,50.6-50.6h1148.6c64.7,0,98.5,5.4,100.3,16.1c1.4,8-15.5,19.5-50.2,34l-0.3,0.1v148.4l0.2,0.1
		c19.8,17.2,24.5,40.4,17.4,51.9C1299.3,265.1,1287.8,270.2,1274.7,270.2z"/>
	<path d="M1236.7,7c80.3,0,98.6,8.5,99.8,15.7c0.9,5.4-7,15.5-49.9,33.5l-0.6,0.3v0.7v147.9v0.5l0.3,0.3
		c19.6,17,24.3,39.9,17.3,51.3c-4.7,7.7-16.1,12.7-28.9,12.7c-13.3,0-26.8-5.1-38.2-14.5l-0.3-0.2h-0.4H88.1
		C60.5,255,38,232.5,38,204.9V57.1C38,29.5,60.5,7,88.1,7h1147.9H1236.7L1236.7,7 M1236.7,6c-0.2,0-0.5,0-0.7,0H88.1
		C59.9,6,37,28.9,37,57.1v147.9c0,28.2,22.9,51.1,51.1,51.1h1147.9c12.7,10.5,26.7,14.7,38.8,14.7c13.6,0,25-5.3,29.8-13.2
		c7.6-12.4,1.7-35.9-17.5-52.6V57.1c35.1-14.7,51.9-26.2,50.5-34.6C1335.6,11.5,1302,6,1236.7,6L1236.7,6z"/>
</g>
<path class="st1" d="M1059.5,391.5"/>
<path class="st1" d="M146.5,177.5c17.4-4.1,28.1-7.2,39-11c8.7-3.1,13.2-4.7,19-8c6.8-3.9,11.6-7.9,14-10c5.1-4.4,9.1-8.6,12-12
	c7.7-11.3,15.3-22.7,23-34c41.8-65.5,43.9-87.1,37-94c-1.3-1.3-3.1-2.3-23-3c-24.1-0.9-43.8-0.2-54,0c-9.2,0.2-22.9,0.4-39.9,0H89.4
	c-29.2,0-52.9,23.7-52.9,52.9v76.1c-0.7,13-0.4,23.9,0,31.9c0.7,12.4,1.7,15.5,4,18c0.2,0.2,0.7,0.7,1.5,1.3
	c8.3,6.4,22.7,5.8,23.5,5.7c18.9-1,33-4,33-4C136.7,179.5,131.8,181,146.5,177.5z"/>
<path class="st2" d="M13.5,179.5"/>
<path class="st1" d="M108.5,196.5"/>
<path class="st1" d="M102.7,187.4"/>
<path class="st1" d="M98.5,187.7"/>
<path class="st2" d="M235.5,193.5"/>
<line class="st3" x1="36.5" y1="58.5" x2="36.5" y2="65.5"/>
<rect x="9.5" y="59.5" class="st4" width="27" height="12"/>
<rect x="9.5" y="59.5" class="st4" width="18" height="48"/>
<path class="st5" d="M455.4,161.4h-58.8c-16.9,0-30.6-13.7-30.6-30.6v-65c0-16.9,13.7-30.6,30.6-30.6h58.8
	c16.9,0,30.6,13.7,30.6,30.6v65C486,147.7,472.3,161.4,455.4,161.4z"/>
<path class="st5" d="M619.4,161.4h-58.8c-16.9,0-30.6-13.7-30.6-30.6v-65c0-16.9,13.7-30.6,30.6-30.6h58.8
	c16.9,0,30.6,13.7,30.6,30.6v65C650,147.7,636.3,161.4,619.4,161.4z"/>
<path class="st5" d="M786.4,161.4h-58.8c-16.9,0-30.6-13.7-30.6-30.6v-65c0-16.9,13.7-30.6,30.6-30.6h58.8
	c16.9,0,30.6,13.7,30.6,30.6v65C817,147.7,803.3,161.4,786.4,161.4z"/>
<path class="st5" d="M949.4,161.4h-58.8c-16.9,0-30.6-13.7-30.6-30.6v-65c0-16.9,13.7-30.6,30.6-30.6h58.8
	c16.9,0,30.6,13.7,30.6,30.6v65C980,147.7,966.3,161.4,949.4,161.4z"/>
<image style="overflow:visible;" width="496" height="494" xlink:href="../../../../../Downloads/SLEkUq9.png"  transform="matrix(0.3871 0 0 0.3775 45.5 -9.7398)">
</image>
</svg>
