<?xml version="1.0" standalone="no"?>
<!DOCTYPE svg PUBLIC "-//W3C//DTD SVG 20010904//EN" "http://www.w3.org/TR/2001/REC-SVG-20010904/DTD/svg10.dtd">
<svg version="1.0" xmlns="http://www.w3.org/2000/svg" width="512.000000pt" height="512.000000pt"
        viewBox="0 0 512.000000 512.000000" preserveAspectRatio="xMidYMid meet">

        <g transform="translate(0.000000,512.000000) scale(0.100000,-0.100000)" fill="#000000" stroke="none">
                <path d="M1370 4610 l0 -510 -462 0 c-255 -1 -493 -5 -530 -9 -182 -24 -335
-165 -368 -340 -14 -74 -14 -2478 0 -2552 33 -173 182 -314 362 -339 35 -5
375 -10 756 -10 380 0 692 -3 692 -7 -1 -5 -38 -80 -83 -168 l-82 -160 -795
-2 c-564 -2 -801 -6 -816 -14 -44 -23 -55 -91 -30 -184 42 -158 145 -247 336
-292 71 -17 202 -18 2210 -18 2008 0 2139 1 2210 18 191 45 294 134 336 292
25 93 14 161 -30 184 -15 8 -252 12 -816 14 l-795 2 -82 160 c-45 88 -82 163
-83 168 0 4 312 7 693 7 380 0 720 5 755 10 180 25 329 166 362 339 14 74 14
2478 0 2552 -33 175 -186 316 -368 340 -37 4 -275 8 -529 9 l-463 0 0 510 0
510 -85 0 -85 0 0 -979 c0 -690 3 -987 11 -1010 18 -52 49 -61 216 -61 l148 0
-685 -412 c-416 -250 -695 -412 -710 -412 -15 0 -294 162 -710 412 l-685 412
148 0 c167 0 198 9 216 61 8 23 11 320 11 1010 l0 979 -85 0 -85 0 0 -510z
m-5 -770 l0 -85 -495 -5 c-272 -3 -496 -6 -497 -8 -1 -1 -9 -15 -18 -32 -13
-25 -15 -165 -15 -1150 0 -1192 -1 -1166 45 -1184 22 -8 4328 -8 4350 0 46 18
45 -8 45 1184 0 985 -2 1125 -15 1150 -9 17 -17 31 -18 32 -1 2 -225 5 -497 8
l-495 5 0 85 0 85 495 0 495 0 57 -28 c69 -34 113 -84 133 -151 22 -75 22
-2468 0 -2542 -19 -66 -72 -126 -137 -155 l-53 -24 -2185 0 -2185 0 -53 24
c-65 29 -118 89 -137 155 -22 73 -22 2468 -1 2540 27 89 103 157 197 175 24 5
255 8 514 7 l470 -1 0 -85z m3 -427 l-3 -168 -278 -5 c-278 -5 -279 -5 -298
-29 -27 -33 -24 -75 9 -110 43 -46 1728 -1051 1762 -1051 34 0 1719 1005 1763
1051 32 35 35 77 8 110 -19 24 -20 24 -298 29 l-278 5 -3 168 -2 167 430 0
430 0 0 -1020 0 -1020 -2050 0 -2050 0 0 1020 0 1020 430 0 430 0 -2 -167z
m1820 -2728 c45 -91 82 -167 82 -170 0 -3 -319 -5 -710 -5 -390 0 -710 2 -710
5 0 3 37 79 82 170 l83 165 545 0 545 0 83 -165z m1737 -375 c-36 -70 -113
-110 -249 -129 -108 -15 -4124 -15 -4232 0 -136 19 -213 59 -249 129 l-16 30
2381 0 2381 0 -16 -30z" />
                <path d="M4100 2135 l0 -85 -85 0 -85 0 0 -85 0 -84 83 -3 82 -3 3 -82 3 -83
84 0 85 0 0 85 0 85 85 0 85 0 0 85 0 85 -85 0 -85 0 0 85 0 85 -85 0 -85 0 0
-85z" />
                <path d="M2415 4934 c-168 -30 -300 -125 -369 -266 -84 -172 -105 -404 -51
-557 27 -78 78 -161 132 -217 29 -31 53 -57 53 -59 0 -1 -17 -6 -37 -10 -116
-21 -247 -124 -302 -237 -40 -83 -51 -158 -51 -355 l0 -163 84 0 84 0 4 193
c3 175 5 196 26 238 30 61 85 117 141 143 44 20 60 21 431 21 371 0 387 -1
431 -21 56 -26 111 -82 141 -143 21 -42 23 -63 26 -238 l4 -193 84 0 84 0 0
163 c0 89 -5 191 -10 227 -27 172 -166 325 -327 361 -29 7 -53 13 -53 15 0 1
24 28 54 60 124 129 176 292 157 482 -14 126 -33 200 -77 290 -106 216 -360
319 -659 266z m244 -165 c80 -14 171 -60 213 -108 17 -19 43 -63 58 -96 28
-62 48 -140 33 -133 -4 3 -69 41 -143 86 -75 44 -148 84 -163 87 -36 9 -71
-14 -96 -64 -46 -90 -176 -152 -370 -176 l-54 -7 7 48 c31 210 130 327 306
360 85 16 129 16 209 3z m173 -456 c146 -87 148 -88 142 -118 -12 -60 -67
-146 -134 -208 -76 -73 -141 -112 -221 -134 -51 -14 -60 -14 -114 2 -90 26
-148 59 -217 124 -57 53 -138 169 -138 197 0 6 25 14 58 18 169 19 333 82 417
159 28 25 52 46 54 47 3 0 72 -39 153 -87z" />
        </g>
</svg>