<?xml version="1.0" standalone="no"?>
<!DOCTYPE svg PUBLIC "-//W3C//DTD SVG 20010904//EN" "http://www.w3.org/TR/2001/REC-SVG-20010904/DTD/svg10.dtd">
<svg version="1.0" xmlns="http://www.w3.org/2000/svg" width="512.000000pt" height="512.000000pt"
        viewBox="0 0 512.000000 512.000000" preserveAspectRatio="xMidYMid meet">

        <g transform="translate(0.000000,512.000000) scale(0.100000,-0.100000)" fill="#000000" stroke="none">
                <path d="M2075 4311 c-179 -51 -336 -195 -394 -362 l-19 -54 -684 -5 c-637 -5
-686 -6 -711 -23 -90 -59 -87 -198 4 -252 33 -19 57 -20 712 -25 l678 -5 23
-57 c70 -172 198 -293 368 -349 102 -33 263 -34 358 -1 175 60 312 190 371
353 l22 59 1006 2 c986 3 1007 3 1040 23 98 58 92 206 -9 257 -33 17 -103 18
-1037 18 -818 0 -1003 2 -1003 13 0 7 -18 51 -40 97 -74 152 -222 273 -385
315 -79 20 -224 18 -300 -4z m289 -305 c105 -51 160 -144 161 -266 0 -58 -5
-85 -23 -121 -94 -192 -347 -232 -487 -77 -54 59 -78 120 -78 198 -1 130 83
246 206 286 62 20 156 12 221 -20z" />
                <path d="M3748 3134 c-161 -38 -310 -160 -386 -313 -23 -46 -42 -90 -42 -97 0
-12 -229 -14 -1497 -14 -1456 0 -1499 -1 -1540 -20 -112 -50 -112 -210 0 -260
41 -19 84 -20 1540 -20 1268 0 1497 -2 1497 -14 0 -7 19 -51 42 -97 180 -362
655 -441 939 -157 63 63 133 177 151 246 6 22 8 22 175 22 144 0 174 3 210 20
112 50 112 210 0 260 -36 17 -66 20 -210 20 -167 0 -169 0 -175 22 -3 13 -23
58 -45 101 -73 146 -218 260 -382 302 -72 18 -200 18 -277 -1z m259 -304 c189
-83 236 -329 91 -477 -59 -60 -126 -87 -213 -87 -125 1 -231 73 -274 188 -92
248 154 483 396 376z" />
                <path d="M1209 1955 c-199 -50 -358 -195 -424 -385 l-12 -35 -234 -5 c-211 -5
-237 -7 -268 -25 -91 -54 -94 -193 -4 -252 23 -16 58 -19 266 -23 l239 -5 20
-55 c12 -30 41 -85 65 -122 107 -163 286 -258 485 -258 166 0 292 52 410 170
60 60 86 95 118 160 22 46 40 90 40 97 0 11 265 13 1448 13 1358 0 1449 1
1482 18 101 51 107 199 9 257 -34 20 -54 20 -1485 23 l-1451 2 -22 59 c-58
160 -188 286 -360 349 -83 30 -238 39 -322 17z m257 -309 c110 -50 169 -142
169 -266 0 -122 -56 -215 -160 -265 -116 -57 -234 -41 -328 45 -152 139 -129
372 48 476 83 48 178 52 271 10z" />
        </g>
</svg>