<?xml version="1.0" encoding="utf-8"?>
<!-- Svg Vector Icons : http://www.onlinewebfonts.com/icon -->
<!DOCTYPE svg PUBLIC "-//W3C//DTD SVG 1.1//EN" "http://www.w3.org/Graphics/SVG/1.1/DTD/svg11.dtd">
<svg version="1.1" xmlns="http://www.w3.org/2000/svg" xmlns:xlink="http://www.w3.org/1999/xlink" x="0px" y="0px"
    viewBox="0 0 1000 1000" enable-background="new 0 0 1000 1000" xml:space="preserve">
    <metadata> Svg Vector Icons : http://www.onlinewebfonts.com/icon </metadata>
    <g>
        <g transform="translate(0.000000,512.000000) scale(0.100000,-0.100000)">
            <path
                d="M4693.3,5011.3C3455.5,4904,2445.7,4457.6,1600.8,3643.3C859.2,2926.7,366.8,2012.7,181,1003C-49-238.6,215.5-1531.9,914.8-2583.9c793.2-1191.8,1998.4-1946.7,3443.1-2157.5c314.2-46,965.7-46,1283.7,0c1074.9,155.2,1998.4,601.6,2757.2,1333.6c1128.5,1088.3,1667,2638.4,1456.2,4186.6c-279.8,2057.8-1835.6,3721-3870.4,4138.7c-126.5,24.9-300.8,55.6-390.9,67.1C5419.4,5005.6,4837,5024.8,4693.3,5011.3z M4095.4,4175.9c-548-618.9-996.3-1398.7-1235.8-2151.7l-19.2-57.5l-854.6-5.7c-471.3-1.9-856.5,1.9-856.5,11.5c0,30.7,237.6,440.7,341,588.2c594,841.1,1456.2,1446.6,2431.5,1705.3C4264.1,4361.8,4260.2,4361.8,4095.4,4175.9z M6024.9,4283.2c1187.9-300.8,2182.4-1071.1,2757.2-2136.4c47.9-90,88.1-170.5,88.1-176.3c0-7.7-385.1-11.5-856.5-9.6l-854.5,5.7l-19.2,57.5c-239.5,753-687.9,1532.8-1235.8,2151.7c-99.6,111.1-130.3,157.1-105.4,157.1C5818,4333.1,5919.5,4310.1,6024.9,4283.2z M5260.4,3965.2c402.4-412,716.6-848.8,965.7-1337.4c118.8-235.7,243.3-517.3,277.8-626.5l11.5-44.1H4999.8H3484.2l11.5,44.1c34.5,109.2,159,390.9,277.8,626.5c147.5,289.3,362.1,626.5,576.7,900.5c134.1,172.4,620.8,689.8,649.5,689.8C5007.5,4218.1,5124.4,4103.1,5260.4,3965.2z M2648.8,1206.1c-124.5-657.2-124.5-1519.4,0-2176.6l26.8-138h-894.8H884.2l-40.2,149.5C744.3-587.3,719.4-378.5,719.4,117.8c0,496.3,24.9,705.1,124.5,1078.7l40.2,147.5h896.7h894.8L2648.8,1206.1z M6720.4,1254c159-739.6,159-1532.8,0-2270.5l-19.2-92H4999.8H3298.4l-23,101.6c-78.6,367.9-115,722.3-115,1124.7c0,402.4,36.4,756.8,115,1126.6l23,99.6h1701.4h1701.4L6720.4,1254z M9144.2,1234.8c195.4-707,195.4-1527.1,0-2232.2l-30.6-111.1h-894.8H7324l26.8,138c67.1,356.4,88.1,624.6,88.1,1088.3c0,463.7-21.1,731.9-88.1,1088.3l-26.8,138h894.8h894.8L9144.2,1234.8z M2859.6-1788.7c239.5-753,687.9-1532.8,1235.8-2149.8c80.5-92,128.4-159,111.1-159c-69,0-555.7,138-745.3,210.8c-950.4,367.9-1760.8,1080.7-2243.7,1975.4c-47.9,90-88.1,170.5-88.1,176.3c0,7.7,385.1,11.5,856.5,9.6l854.6-5.7L2859.6-1788.7z M6503.9-1763.8c-74.7-243.3-358.3-806.6-561.4-1117.1c-224.2-341-404.3-565.2-687.9-852.6l-254.8-258.7L4745-3733.5c-283.6,287.4-463.7,511.6-687.9,852.6c-203.1,310.4-486.7,873.7-561.4,1117.1l-11.5,42.2h1515.6h1515.6L6503.9-1763.8z M8870.2-1735.1c0-5.7-40.2-86.2-88.1-176.3c-482.8-894.8-1293.3-1607.6-2243.7-1975.4c-189.7-72.8-676.4-210.8-745.3-210.8c-17.2,0,30.7,67.1,111.1,159c532.7,599.7,986.8,1377.6,1212.9,2082.7c19.2,57.5,38.3,111.1,42.2,120.7C7168.8-1717.8,8870.2-1715.9,8870.2-1735.1z" />
        </g>
    </g>
</svg>