<?xml version="1.0" standalone="no"?>
<!DOCTYPE svg PUBLIC "-//W3C//DTD SVG 20010904//EN" "http://www.w3.org/TR/2001/REC-SVG-20010904/DTD/svg10.dtd">
<svg version="1.0" xmlns="http://www.w3.org/2000/svg" width="512.000000pt" height="512.000000pt"
    viewBox="0 0 512.000000 512.000000" preserveAspectRatio="xMidYMid meet">

    <g transform="translate(0.000000,512.000000) scale(0.100000,-0.100000)" fill="#000000" stroke="none">
        <path d="M3565 5111 c-41 -17 -50 -41 -55 -143 l-5 -100 -70 -27 c-38 -15 -83
-35 -100 -44 l-30 -16 -66 65 c-55 55 -73 66 -108 71 l-43 6 -184 -184 c-148
-148 -184 -190 -184 -212 l0 -27 -1208 -2 -1208 -3 -76 -37 c-91 -45 -147
-103 -191 -196 l-32 -67 0 -1476 0 -1475 37 -76 c45 -91 103 -147 196 -191
l67 -32 843 -3 842 -3 0 -168 0 -169 -162 -4 c-154 -3 -166 -5 -223 -31 -100
-47 -169 -126 -199 -227 -19 -65 -22 -247 -4 -285 26 -57 -15 -55 1014 -55
l946 0 35 35 35 35 -4 128 c-3 111 -7 134 -30 184 -36 79 -98 142 -177 181
-65 32 -68 32 -228 35 l-163 4 0 169 0 169 818 0 c871 0 864 0 961 49 97 50
179 165 201 280 6 34 10 365 10 884 l0 830 51 54 c48 51 51 57 46 95 -5 34
-17 53 -71 107 l-65 66 16 30 c9 17 29 62 44 100 l27 70 101 5 c154 8 146 -9
146 310 0 319 8 302 -146 310 l-101 5 -27 70 c-15 39 -35 84 -44 100 l-16 30
65 66 c55 55 66 73 71 108 l6 43 -186 185 -185 186 -43 -6 c-35 -5 -53 -16
-108 -71 l-66 -65 -30 16 c-16 9 -61 29 -100 44 l-70 27 -5 101 c-8 153 8 146
-298 148 -136 1 -256 -2 -267 -6z m366 -270 c5 -103 23 -129 105 -154 84 -26
181 -66 237 -99 76 -45 107 -39 181 32 l62 59 82 -82 81 -82 -59 -62 c-47 -48
-60 -68 -60 -92 0 -18 24 -82 54 -144 30 -62 59 -134 66 -162 25 -98 62 -125
175 -125 l65 0 0 -109 0 -108 -85 -5 c-109 -6 -123 -18 -160 -136 -15 -48 -47
-125 -71 -171 -61 -116 -60 -137 16 -214 l59 -62 -81 -82 -82 -82 -62 59 c-79
76 -99 77 -215 16 -46 -24 -123 -56 -170 -70 -118 -36 -131 -52 -137 -161 l-5
-85 -107 0 -107 0 -5 85 c-6 109 -19 125 -137 161 -47 14 -124 46 -170 70
-116 61 -136 60 -215 -16 l-62 -59 -82 82 -81 82 59 62 c76 77 77 98 16 214
-24 46 -56 123 -70 170 -36 118 -52 131 -161 137 l-85 5 0 107 0 107 85 5
c109 6 125 19 161 137 14 47 46 124 70 170 61 116 60 136 -16 215 l-59 62 82
82 82 81 62 -59 c76 -75 101 -77 200 -22 37 20 115 53 172 72 132 45 144 59
150 171 l3 79 108 0 108 0 3 -79z m-1126 -623 l-33 -83 -101 -5 c-154 -8 -146
10 -146 -311 l0 -261 28 -24 c25 -22 37 -24 123 -24 89 0 95 -1 104 -22 5 -13
24 -60 43 -105 l34 -81 -64 -64 c-54 -54 -65 -72 -70 -107 l-6 -43 186 -185
185 -186 43 6 c35 5 53 16 107 70 l64 64 81 -34 c45 -19 92 -38 105 -43 21 -9
22 -15 22 -104 0 -86 2 -98 24 -123 l24 -28 262 0 262 0 24 28 c22 25 24 37
24 123 0 81 3 96 18 101 9 3 56 23 104 43 l86 37 64 -64 c52 -52 72 -65 104
-70 33 -4 45 -1 71 21 17 14 34 26 37 26 11 0 7 -1442 -5 -1483 -6 -21 -26
-56 -45 -77 -69 -77 119 -71 -2175 -68 l-2055 3 -41 27 c-22 15 -51 44 -64 65
-22 35 -24 51 -27 185 l-4 148 1876 0 1876 0 32 29 c44 39 46 98 5 139 l-27
27 -1880 3 -1880 2 0 140 0 139 406 3 406 3 24 28 c33 38 33 96 0 134 l-24 28
-406 3 -406 3 0 937 c0 629 4 950 11 975 13 47 77 113 121 126 20 5 523 10
1270 10 l1236 1 -33 -82z m-175 -3448 l0 -170 -220 0 -220 0 0 170 0 170 220
0 220 0 0 -170z m507 -386 c50 -25 85 -76 91 -134 l5 -50 -822 0 -821 0 0 34
c0 67 37 126 95 152 24 11 168 13 723 14 623 0 698 -2 729 -16z" />
        <path d="M3725 4434 c-86 -21 -117 -31 -166 -54 -169 -81 -277 -209 -341 -405
-17 -53 -17 -257 0 -310 39 -119 102 -225 173 -290 215 -198 512 -229 756 -79
217 135 335 410 278 652 -68 287 -294 477 -580 487 -55 2 -109 2 -120 -1z
m200 -209 c312 -81 418 -473 191 -701 -241 -240 -651 -107 -709 230 -50 295
226 546 518 471z" />
        <path d="M1418 3924 c-39 -21 -48 -43 -48 -123 l0 -69 -52 -30 -51 -30 -62 34
c-75 41 -105 43 -144 7 -31 -29 -197 -309 -207 -349 -10 -41 22 -88 86 -124
l60 -34 0 -58 0 -58 -54 -30 c-120 -68 -120 -92 -1 -300 49 -85 99 -165 112
-177 32 -33 84 -30 152 8 l55 31 53 -28 53 -29 0 -73 c0 -68 2 -76 29 -103
l29 -29 210 0 209 0 25 25 c28 28 38 63 38 135 0 47 1 49 48 75 l47 27 57 -31
c68 -37 117 -40 152 -8 36 32 197 316 203 357 6 45 -19 78 -88 118 l-51 30 -1
58 0 59 54 32 c59 35 89 74 89 114 0 35 -189 357 -220 375 -39 21 -70 16 -134
-20 l-60 -34 -48 27 -48 26 0 58 c0 67 -18 118 -51 141 -33 23 -399 23 -441 0z
m292 -242 c0 -72 14 -93 82 -122 29 -12 81 -42 116 -66 36 -24 74 -44 87 -44
12 0 43 11 69 25 26 14 49 25 51 25 3 0 65 -107 65 -114 0 -2 -20 -16 -45 -30
-24 -15 -49 -34 -54 -44 -4 -9 -9 -82 -9 -162 0 -162 4 -174 65 -211 21 -12
40 -24 42 -25 1 -2 -12 -30 -30 -63 l-33 -60 -41 25 c-59 34 -111 32 -157 -6
-36 -30 -127 -80 -146 -80 -5 0 -21 -12 -36 -26 -22 -23 -26 -35 -26 -85 l0
-59 -70 0 -70 0 0 45 c0 73 -21 101 -103 139 -40 18 -89 47 -111 65 -47 38
-98 41 -150 10 -20 -11 -40 -19 -46 -17 -6 2 -24 27 -40 56 l-30 52 49 31 c28
16 53 40 57 52 4 12 7 86 7 164 0 159 -1 164 -75 205 l-38 22 31 55 c17 31 33
57 34 59 2 2 26 -9 54 -24 63 -32 91 -29 159 21 27 19 73 46 103 59 75 33 92
55 97 126 l4 60 69 0 69 0 0 -58z" />
        <path d="M1595 3238 c-62 -34 -74 -110 -26 -159 38 -38 87 -39 129 -4 38 32
46 65 28 109 -22 53 -85 80 -131 54z" />
        <path d="M1311 2236 c-90 -50 -50 -186 55 -186 38 0 94 59 94 100 0 23 -10 42
-34 66 -37 37 -73 43 -115 20z" />
        <path d="M4275 1759 c-62 -36 -74 -111 -26 -160 40 -40 89 -40 133 0 63 56 32
154 -53 167 -18 2 -43 -1 -54 -7z" />
        <path d="M2361 1456 c-90 -50 -50 -186 55 -186 38 0 94 59 94 100 0 23 -9 42
-34 66 -37 37 -73 43 -115 20z" />
    </g>
</svg>