<?xml version="1.0" standalone="no"?>
<!DOCTYPE svg PUBLIC "-//W3C//DTD SVG 20010904//EN" "http://www.w3.org/TR/2001/REC-SVG-20010904/DTD/svg10.dtd">
<svg version="1.0" xmlns="http://www.w3.org/2000/svg" width="512.000000pt" height="512.000000pt"
    viewBox="0 0 512.000000 512.000000" preserveAspectRatio="xMidYMid meet">

    <g transform="translate(0.000000,512.000000) scale(0.100000,-0.100000)" fill="#000000" stroke="none">
        <path d="M1282 5101 c-29 -10 -70 -32 -90 -48 -46 -36 -98 -112 -112 -161 -6
-24 -10 -281 -10 -704 l0 -667 -202 -3 c-199 -3 -204 -4 -260 -31 -62 -30
-115 -83 -150 -149 -22 -41 -23 -54 -23 -243 0 -199 0 -200 27 -252 15 -28 32
-54 37 -57 5 -4 -6 -31 -24 -62 -43 -71 -48 -103 -43 -305 3 -156 5 -167 30
-216 15 -28 32 -54 37 -57 5 -4 -6 -31 -24 -62 -43 -71 -48 -103 -43 -305 3
-156 5 -167 30 -216 15 -28 32 -54 37 -58 6 -3 -3 -26 -20 -52 -43 -69 -49
-101 -49 -279 0 -124 4 -174 17 -214 21 -65 89 -142 157 -178 49 -26 58 -27
256 -32 l205 -5 5 -260 c5 -247 6 -262 28 -303 35 -66 88 -119 150 -149 l57
-28 1255 0 1255 0 57 28 c62 30 115 83 150 149 l23 43 5 1235 5 1235 23 59
c41 110 116 202 209 259 42 27 150 67 178 67 13 0 15 -158 15 -1485 l0 -1485
105 0 105 0 0 1563 c0 1737 6 1593 -67 1623 -77 33 -324 -28 -459 -111 -39
-25 -77 -52 -84 -60 -7 -8 -16 -15 -21 -15 -5 0 -10 402 -11 893 l-3 892 -23
43 c-35 66 -88 119 -150 149 l-57 28 -1240 2 c-1181 2 -1243 2 -1293 -16z
m2493 -205 c57 -24 65 -53 65 -246 l0 -170 -1280 0 -1280 0 0 170 c0 192 8
221 63 245 48 21 2382 22 2432 1z m65 -2336 l0 -1710 -1280 0 -1280 0 0 1710
0 1710 1280 0 1280 0 0 -1710z m-2772 532 l2 -213 -185 3 -185 3 -27 28 c-28
27 -28 30 -31 166 -5 223 4 232 258 228 l165 -2 3 -213z m0 -640 l2 -213 -185
3 -185 3 -27 28 c-28 27 -28 30 -31 166 -5 223 4 232 258 228 l165 -2 3 -213z
m0 -640 l2 -213 -185 3 -185 3 -27 28 c-28 27 -28 30 -31 166 -5 223 4 232
258 228 l165 -2 3 -213z m0 -640 l2 -213 -185 3 -185 3 -27 28 c-28 27 -28 30
-31 166 -5 223 4 232 258 228 l165 -2 3 -213z m2772 -702 c0 -193 -8 -222 -65
-246 -51 -21 -2379 -21 -2430 0 -57 24 -65 53 -65 246 l0 170 1280 0 1280 0 0
-170z" />
        <path d="M2240 4695 l0 -105 320 0 320 0 0 105 0 105 -320 0 -320 0 0 -105z" />
        <path d="M2990 3945 l0 -105 105 0 105 0 0 105 0 105 -105 0 -105 0 0 -105z" />
        <path d="M3410 3945 l0 -105 110 0 110 0 0 105 0 105 -110 0 -110 0 0 -105z" />
        <path d="M2438 3620 c-158 -20 -340 -88 -475 -177 -72 -48 -192 -160 -248
-233 -146 -191 -218 -407 -218 -650 0 -303 113 -565 334 -775 315 -299 785
-375 1174 -191 238 112 409 283 520 519 159 337 129 726 -83 1046 -50 76 -171
201 -252 261 -73 54 -214 128 -295 154 -134 42 -328 62 -457 46z m277 -221
c157 -29 341 -127 452 -241 112 -116 196 -272 229 -428 7 -36 14 -112 14 -170
0 -237 -82 -433 -249 -601 -179 -178 -378 -255 -636 -246 -113 3 -142 8 -225
36 -302 102 -511 336 -577 646 -23 110 -13 306 22 415 96 301 331 516 640 585
74 17 251 19 330 4z" />
        <path d="M2450 3137 l0 -62 -45 -24 c-56 -30 -110 -89 -138 -150 -17 -35 -22
-65 -22 -126 1 -102 27 -166 96 -230 58 -55 99 -73 197 -90 80 -14 106 -31
122 -80 21 -63 -33 -135 -102 -135 -38 0 -85 35 -98 74 l-12 36 -105 0 -106 0
7 -46 c13 -98 76 -190 161 -235 l45 -24 0 -62 0 -63 110 0 110 0 0 63 0 62 45
24 c56 30 110 89 138 150 31 66 30 187 -1 256 -48 104 -134 167 -260 189 -91
15 -115 31 -132 81 -21 63 33 135 102 135 38 0 85 -35 98 -74 l12 -36 105 0
106 0 -7 46 c-13 98 -76 190 -161 235 l-45 24 0 62 0 63 -110 0 -110 0 0 -63z" />
        <path d="M3414 3617 c-2 -7 -3 -56 -2 -108 l3 -94 105 0 105 0 0 105 0 105
-103 3 c-79 2 -104 0 -108 -11z" />
        <path d="M1494 1697 c-2 -7 -3 -56 -2 -108 l3 -94 105 0 105 0 0 105 0 105
-103 3 c-79 2 -104 0 -108 -11z" />
        <path d="M1490 1175 l0 -105 110 0 110 0 0 105 0 105 -110 0 -110 0 0 -105z" />
        <path d="M1920 1175 l0 -105 105 0 105 0 0 105 0 105 -105 0 -105 0 0 -105z" />
    </g>
</svg>