<svg width="184" height="56" viewBox="0 0 184 56" fill="none" xmlns="http://www.w3.org/2000/svg">
<rect x="1" y="1" width="182" height="54" rx="11" stroke="black" stroke-width="2"/>
<path fill-rule="evenodd" clip-rule="evenodd" d="M85.0531 17.1327C85.0531 18.4357 86.0805 19.3782 87.2745 19.3921C88.4547 19.3782 89.496 18.4357 89.496 17.1327C89.496 15.8574 88.5102 14.8733 87.2745 14.8594C86.0389 14.8733 85.0531 15.8574 85.0531 17.1327ZM84.1229 17.1188C84.1229 15.497 85.4974 14 87.2745 14C89.0517 14 90.4262 15.497 90.4262 17.1188C90.4262 18.699 89.1489 20.2238 87.2745 20.2515C85.4002 20.2238 84.1229 18.6852 84.1229 17.1188ZM64.7087 16.8414H61.8347V17.687H63.8756C63.7784 18.879 62.7788 19.3919 61.8486 19.3919C60.6545 19.3919 59.5993 18.4493 59.5993 17.1325C59.5993 15.8434 60.599 14.8592 61.8486 14.8592C62.8204 14.8592 63.3897 15.4691 63.3897 15.4691L63.9867 14.8592C63.9867 14.8592 63.2231 14.0137 61.8208 14.0137C60.0436 14.0137 58.6691 15.5107 58.6691 17.1325C58.6691 18.7127 59.9603 20.2652 61.8624 20.2652C63.5424 20.2652 64.7642 19.1147 64.7642 17.4236C64.7642 17.0493 64.7087 16.8414 64.7087 16.8414ZM65.2548 30.5367H71.5581C71.5581 30.5367 71.6692 30.9941 71.6553 31.7703C71.6553 35.4852 68.9618 38.008 65.2825 38.008C61.1034 38.008 58.2572 34.6119 58.2572 31.1327C58.2572 27.5703 61.2839 24.2852 65.1853 24.2852C68.2537 24.2852 69.9337 26.1564 69.9337 26.1564L68.6286 27.5149C68.6286 27.5149 67.379 26.1703 65.2548 26.1703C62.5057 26.1703 60.312 28.3466 60.312 31.1743C60.312 34.0852 62.6168 36.1505 65.2548 36.1505C67.3235 36.1505 69.5033 35.0278 69.7254 32.408H65.2548V30.5367ZM79.413 33.5998C79.413 31.9503 78.219 30.9246 76.9416 30.9246C75.5116 30.9246 74.4147 32.0612 74.4008 33.586C74.4008 35.1523 75.5116 36.2751 76.9277 36.2751C78.219 36.2751 79.413 35.2216 79.413 33.5998ZM72.4709 33.5721C72.4709 31.2157 74.3314 29.1919 76.9138 29.1919C79.0381 29.1919 81.3567 30.6889 81.3429 33.6276C81.3429 36.1781 79.3574 38.0216 76.9416 38.0216C74.2759 38.0216 72.4709 35.9563 72.4709 33.5721ZM86.7083 30.9246C87.9856 30.9246 89.1796 31.9503 89.1796 33.5998C89.1796 35.2216 87.9856 36.2751 86.6944 36.2751C85.2782 36.2751 84.1675 35.1523 84.1675 33.586C84.1814 32.0612 85.2782 30.9246 86.7083 30.9246ZM86.6944 29.1919C84.112 29.1919 82.2515 31.2157 82.2515 33.5721C82.2515 35.9563 84.0564 38.0216 86.7222 38.0216C89.138 38.0216 91.1234 36.1781 91.1234 33.6276C91.1234 30.6889 88.8186 29.1919 86.6944 29.1919ZM98.7821 33.6137C98.7821 31.9226 97.5881 30.9246 96.4218 30.9246C95.1722 30.9246 93.9504 31.9365 93.9504 33.6276C93.9504 35.2632 95.1306 36.2889 96.394 36.2889C97.5881 36.2889 98.7821 35.3325 98.7821 33.6137ZM91.9928 33.5998C91.9928 31.2711 93.8671 29.1919 96.2413 29.1919C97.2826 29.1919 98.0601 29.5939 98.6432 30.2176V29.4691H100.49V37.3979C100.49 40.5167 98.6849 41.9998 96.3246 41.9998C94.1726 41.9998 92.9508 40.683 92.3538 39.4078L94.0476 38.7008C94.2837 39.2691 94.964 40.2672 96.3107 40.2672C97.6991 40.2672 98.6294 39.3523 98.6294 37.8276V36.9543C98.1295 37.5226 97.4631 38.0216 96.1997 38.0216C94.1587 38.0216 91.9928 36.2612 91.9928 33.5998ZM109.183 30.8832C109.989 30.8832 110.572 31.3129 110.822 31.8258L106.865 33.4753C106.698 32.1862 107.906 30.8832 109.183 30.8832ZM109.114 29.1782C106.879 29.1782 104.99 30.9525 104.99 33.5862C104.99 36.3584 107.087 38.0079 109.322 38.0079C111.197 38.0079 112.335 36.9822 113.029 36.0673L111.502 35.0555C111.099 35.6654 110.447 36.2753 109.336 36.2753C108.1 36.2753 107.517 35.5961 107.17 34.9446L113.099 32.4911L112.793 31.7703C112.21 30.3564 110.877 29.1782 109.114 29.1782ZM101.966 24.7427H103.909V37.7447H101.966V24.7427ZM130.007 24.7427H128.063V37.7447H130.007V24.7427ZM117.737 24.7427H119.681H122.444C124.721 24.7427 126.595 26.6001 126.595 28.8872C126.595 31.1605 124.734 33.0318 122.444 33.0318H119.681V37.7447H117.737V33.0318V24.7427ZM122.444 31.0912H119.681V26.6971V26.6833H122.444C123.651 26.6833 124.651 27.6813 124.651 28.8872C124.651 30.0932 123.651 31.0912 122.444 31.0912ZM149.998 29.1782L144.375 41.9862H142.237L144.266 37.3764L140.656 29.1782H142.78L145.329 34.9616L147.874 29.1782H149.998ZM139.906 37.7444H137.962V36.7048C137.504 37.2454 136.963 37.6474 136.269 37.8414C135.033 38.1741 133.533 38.0493 132.617 37.0652C132.034 36.4276 131.84 35.4018 131.951 34.5563C132.159 32.9899 133.436 32.0473 134.936 31.8949C135.894 31.7978 136.949 31.978 137.921 32.2414C137.699 30.1206 134.478 29.6632 133.339 31.6454L131.77 30.5919C134.089 27.1127 140.212 28.2493 139.906 33.0731V37.7444ZM135.81 36.1365C136.879 35.8454 137.713 35.0691 137.962 33.9879C137.421 33.8216 136.921 33.6691 136.338 33.5998C133.006 33.1008 133.561 36.7464 135.81 36.1365ZM76.4451 14.208H77.3337V20.1268H76.4451V14.208ZM71.5042 20.127H72.3789V15.0815H73.8367V14.1943H70.0464V15.0815H71.5042V20.127ZM69.0972 20.127H65.6956V14.1943H69.0972V15.0815H66.5841V16.7171H68.7917V17.6042H66.5841V19.2399H69.0972V20.127ZM79.5154 20.127H80.3901V15.0815H81.8479V14.1943H78.0576V15.0815H79.5154V20.127ZM91.3141 20.1268H92.1888V15.8159L95.035 20.1268H95.9236V14.208H95.035V18.505L92.1888 14.208H91.3141V20.1268ZM35.6251 41.2931C35.5279 41.3486 35.4446 41.3902 35.3613 41.4179L44.9135 31.7565L47.8014 34.6396L35.6251 41.2931ZM45.3162 31.3545L48.329 34.3486L52.4665 32.103C52.9663 31.8258 53.48 31.1327 52.4665 30.5782L48.329 28.3188L45.3162 31.3545ZM35.6251 21.3881L47.7875 28.0139L44.8997 30.9248L35.1947 21.2495C35.3474 21.2772 35.5001 21.3188 35.6251 21.3881ZM44.497 31.3545L34.4866 21.3743C34.195 21.5406 33.9868 21.8871 34.0007 22.4693C34.0007 23.0849 34.0234 27.6623 34.0451 32.034C34.065 36.0294 34.084 39.8529 34.084 40.3228C34.084 40.8357 34.2367 41.2377 34.5282 41.4179L44.497 31.3545Z" fill="black"/>
</svg>
