<?xml version="1.0" standalone="no"?>
<!DOCTYPE svg PUBLIC "-//W3C//DTD SVG 20010904//EN" "http://www.w3.org/TR/2001/REC-SVG-20010904/DTD/svg10.dtd">
<svg version="1.0" xmlns="http://www.w3.org/2000/svg" width="512.000000pt" height="512.000000pt"
    viewBox="0 0 512.000000 512.000000" preserveAspectRatio="xMidYMid meet">

    <g transform="translate(0.000000,512.000000) scale(0.100000,-0.100000)" fill="#000000" stroke="none">
        <path d="M2400 5110 c-844 -55 -1591 -508 -2030 -1232 l-53 -88 -95 0 c-117 0
-167 -20 -200 -79 l-22 -39 0 -1112 0 -1112 22 -39 c33 -59 83 -79 200 -79
l95 0 53 -88 c369 -607 975 -1040 1655 -1180 251 -52 580 -69 810 -43 804 94
1479 522 1905 1209 l64 102 95 0 c116 0 166 20 199 79 l22 39 0 1112 0 1112
-22 39 c-33 59 -83 79 -200 79 l-95 0 -53 88 c-497 819 -1401 1293 -2350 1232z
m515 -175 c487 -75 943 -297 1295 -632 144 -137 300 -327 389 -475 l23 -38
-144 0 -144 0 -31 44 c-18 25 -47 53 -65 62 -47 25 -125 24 -168 -3 -19 -12
-668 -656 -1442 -1430 -1268 -1269 -1408 -1412 -1418 -1451 -25 -97 8 -151
151 -247 257 -171 529 -280 844 -336 97 -18 162 -22 340 -23 236 -1 342 11
536 59 186 47 446 150 497 197 45 43 13 128 -48 128 -15 0 -70 -20 -121 -44
-270 -127 -544 -188 -849 -187 -337 0 -618 67 -908 215 -128 66 -292 172 -292
189 0 7 80 92 178 190 l177 177 243 0 243 0 24 25 c31 30 32 71 3 102 -21 22
-27 23 -185 23 -90 0 -163 3 -163 7 0 4 30 38 67 75 l67 68 1199 0 1198 0 24
25 c17 16 25 35 25 58 0 97 68 205 155 247 24 12 73 25 107 30 106 15 98 -29
98 570 0 599 8 555 -98 570 -34 5 -83 18 -107 30 -87 42 -155 150 -155 247 0
23 -8 42 -25 58 l-24 25 -268 0 -268 0 76 75 76 75 472 0 471 0 0 -1080 0
-1080 -1252 0 -1252 0 -23 -22 c-28 -26 -30 -67 -4 -99 l19 -24 841 -5 841 -5
-89 -101 c-49 -56 -141 -145 -205 -198 -67 -56 -118 -107 -122 -120 -8 -33 21
-84 52 -92 39 -10 76 13 199 118 114 99 221 213 309 330 l50 68 144 0 143 0
-23 -41 c-44 -77 -207 -286 -302 -386 -306 -322 -708 -558 -1140 -668 -227
-58 -331 -70 -606 -69 -218 1 -261 4 -390 27 -625 112 -1150 434 -1524 934
-50 67 -101 140 -114 162 l-23 41 144 0 143 0 31 -44 c18 -25 47 -53 65 -62
47 -25 125 -24 168 3 19 12 293 280 608 595 538 539 572 575 572 608 0 41 -7
53 -37 69 -47 24 -63 14 -203 -125 l-137 -135 -16 39 c-86 215 -65 472 55 677
53 90 183 220 273 273 205 120 462 141 677 55 l40 -16 -288 -288 c-258 -258
-287 -291 -287 -320 0 -45 44 -83 87 -75 24 5 191 166 768 744 658 658 738
742 748 780 25 97 -8 151 -151 247 -570 380 -1267 467 -1919 240 -375 -131
-749 -402 -985 -713 l-70 -92 -143 0 -144 0 23 38 c117 195 319 425 511 583
373 305 798 483 1286 539 118 13 470 5 597 -15z m-76 -391 c219 -29 424 -93
629 -198 128 -66 292 -172 292 -189 0 -7 -80 -92 -178 -190 l-177 -177 -1213
2 -1212 3 80 92 c222 254 539 464 865 572 305 101 587 128 914 85z m401 -911
c0 -4 -30 -38 -67 -75 l-67 -68 -1197 0 c-1373 0 -1235 11 -1250 -98 -11 -77
-46 -149 -95 -192 -47 -41 -92 -60 -169 -71 -102 -14 -95 28 -95 -569 0 -597
-7 -555 95 -569 77 -11 122 -30 169 -71 49 -43 84 -115 95 -192 13 -100 5 -98
320 -98 l266 0 -76 -75 -76 -75 -472 0 -471 0 0 1080 0 1080 1545 0 c850 0
1545 -3 1545 -7z m-1264 -353 c-136 -110 -239 -259 -295 -425 -73 -219 -64
-448 27 -664 l29 -69 -171 -171 -171 -171 -292 0 -291 0 -22 65 c-43 129 -160
244 -286 281 l-54 15 0 419 0 419 54 15 c126 37 243 152 286 281 l22 65 619 0
620 0 -75 -60z m2357 -11 c43 -126 158 -238 283 -275 l54 -15 0 -419 0 -419
-54 -15 c-125 -37 -240 -149 -283 -275 l-22 -66 -621 -3 -621 -2 75 61 c321
258 431 704 268 1086 l-29 68 171 173 171 172 293 -2 293 -3 22 -66z m-1033
-476 c65 -209 39 -439 -72 -628 -53 -90 -183 -220 -273 -273 -201 -118 -448
-140 -664 -60 l-54 20 514 514 c345 345 516 509 521 501 5 -7 17 -40 28 -74z" />
    </g>
</svg>