<?xml version="1.0" encoding="utf-8"?>
<!-- Generator: Adobe Illustrator 27.0.1, SVG Export Plug-In . SVG Version: 6.00 Build 0)  -->
<svg version="1.1" id="Layer_1" xmlns="http://www.w3.org/2000/svg" xmlns:xlink="http://www.w3.org/1999/xlink" x="0px"
	y="0px" viewBox="0 0 300 300" style="enable-background:new 0 0 300 300;" xml:space="preserve">
	<style type="text/css">
		.st0 {
			clip-path: url(#SVGID_00000009577871451940453680000006690097961010055302_);
		}

		.st1 {
			fill: none;
			stroke: #000;
			stroke-width: 3;
			stroke-linecap: round;
			stroke-linejoin: round;
		}

		.st2 {
			fill: none;
			stroke: #000;
			stroke-width: 3;
			stroke-linejoin: round;
		}
	</style>
	<g>
		<defs>
			<rect id="SVGID_1_" x="8" y="45.6" width="284" height="208.9" />
		</defs>
		<clipPath id="SVGID_00000045591525827483056360000008578864309453390489_">
			<use xlink:href="#SVGID_1_" style="overflow:visible;" />
		</clipPath>
		<g style="clip-path:url(#SVGID_00000045591525827483056360000008578864309453390489_);">
			<path class="st1" d="M88.2,99.7l30.8-30.8c6.2-6.2,14.5-9.7,23.3-9.7h113.7" />
			<path class="st1" d="M218.2,156.4v78.9c0,9.2-7.5,16.7-16.7,16.7H27.2c-9.2,0-16.7-7.5-16.7-16.7V129.9c0-9.2,7.5-16.7,16.7-16.7
			H118" />
			<path class="st2" d="M24.5,151.8h179.7" />
			<path class="st2" d="M24.5,179.9h179.7" />
			<path class="st1" d="M131.3,222.3h52.3" />
			<path class="st1" d="M199.9,93h-51c-6.9,0-12.9,4-15.8,9.9c-1.1,2.3-1.7,4.9-1.7,7.7c0,0.9,0.1,1.7,0.2,2.6
			c0.6,4,2.5,7.6,5.4,10.3c3.1,2.9,7.3,4.7,11.9,4.7h46.6c4,4,8.1,7.5,12.5,10.2c3.2,1.9,6.6,3.4,10.3,4.4c3.2,0.9,6.6,1.4,10.3,1.5
			c0.6,0,1.1,0,1.7,0c9.4,0,18.2-2.4,25.9-6.7" />
			<path class="st1" d="M289.6,154.9l-20.2,0.1V48h20.2" />
		</g>
	</g>
</svg>